STARTFONT 2.1
FONT -FontForge-Lobster-Book-R-Normal--20-200-72-72-P-117-ISO10646-1
SIZE 20 72 72
FONTBOUNDINGBOX 40 30 -9 -10
COMMENT "Generated by fontforge, http://fontforge.sourceforge.net"
COMMENT "Copyright 2010 The Lobster Project Authors (https://github.com/impallari/The-Lobster-Font), with Reserved Font Name "Lobster"."
STARTPROPERTIES 40
FOUNDRY "FontForge"
FAMILY_NAME "Lobster"
WEIGHT_NAME "Book"
SLANT "R"
SETWIDTH_NAME "Normal"
ADD_STYLE_NAME ""
PIXEL_SIZE 20
POINT_SIZE 200
RESOLUTION_X 72
RESOLUTION_Y 72
SPACING "P"
AVERAGE_WIDTH 117
CHARSET_REGISTRY "ISO10646"
CHARSET_ENCODING "1"
FONTNAME_REGISTRY ""
CHARSET_COLLECTIONS "ISO8859-2 ISO8859-5 ISO8859-9 ISO8859-4 ISO10646-1"
FONT_NAME "Lobster-Regular"
FACE_NAME "Lobster Regular"
COPYRIGHT "Copyright 2010 The Lobster Project Authors (https://github.com/impallari/The-Lobster-Font), with Reserved Font Name "Lobster"."
FONT_VERSION "2.100"
FONT_ASCENT 16
FONT_DESCENT 4
UNDERLINE_POSITION -2
UNDERLINE_THICKNESS 1
X_HEIGHT 10
CAP_HEIGHT 14
DEFAULT_CHAR 1
RAW_ASCENT 800
RAW_DESCENT 200
NORM_SPACE 4
RELATIVE_WEIGHT 40
RELATIVE_SETWIDTH 50
SUPERSCRIPT_X 0
SUPERSCRIPT_Y 7
SUPERSCRIPT_SIZE 12
SUBSCRIPT_X 0
SUBSCRIPT_Y 1
SUBSCRIPT_SIZE 12
AVG_LOWERCASE_WIDTH 94
AVG_UPPERCASE_WIDTH 122
ENDPROPERTIES
CHARS 1148
STARTCHAR NULL.dup1
ENCODING 0
SWIDTH 600 0
DWIDTH 12 0
BBX 1 1 0 0
BITMAP
00
ENDCHAR
STARTCHAR nonmarkingreturn
ENCODING 13
SWIDTH 600 0
DWIDTH 12 0
BBX 1 1 0 0
BITMAP
00
ENDCHAR
STARTCHAR space
ENCODING 32
SWIDTH 217 0
DWIDTH 4 0
BBX 1 1 0 0
BITMAP
00
ENDCHAR
STARTCHAR exclam
ENCODING 33
SWIDTH 257 0
DWIDTH 5 0
BBX 6 15 1 0
BITMAP
0C
38
38
38
30
30
30
70
60
60
60
00
C0
E0
C0
ENDCHAR
STARTCHAR quotedbl
ENCODING 34
SWIDTH 353 0
DWIDTH 7 0
BBX 6 5 2 10
BITMAP
6C
6C
D8
D8
90
ENDCHAR
STARTCHAR numbersign
ENCODING 35
SWIDTH 659 0
DWIDTH 13 0
BBX 11 13 1 1
BITMAP
0CC0
0880
0880
0880
7FE0
1980
1100
1100
FFC0
3300
2300
2200
2200
ENDCHAR
STARTCHAR dollar
ENCODING 36
SWIDTH 548 0
DWIDTH 11 0
BBX 11 21 0 -3
BITMAP
0080
0100
0100
0780
1D40
1960
1AC0
1E00
1E00
0F00
0780
0780
77C0
E5C0
C9C0
C980
6F00
3E00
1000
1000
1000
ENDCHAR
STARTCHAR percent
ENCODING 37
SWIDTH 796 0
DWIDTH 16 0
BBX 15 15 1 0
BITMAP
3C30
6C20
6460
C440
CCC0
CC80
CD80
D91C
7236
0666
0446
0CC6
08CC
184C
3070
ENDCHAR
STARTCHAR ampersand
ENCODING 38
SWIDTH 682 0
DWIDTH 14 0
BBX 13 15 0 0
BITMAP
0780
0CC0
1CC0
18C0
1880
1C00
0E08
38F8
79F8
71A0
F140
F040
F080
7F80
3E00
ENDCHAR
STARTCHAR quotesingle
ENCODING 39
SWIDTH 196 0
DWIDTH 4 0
BBX 3 4 2 11
BITMAP
60
40
C0
80
ENDCHAR
STARTCHAR parenleft
ENCODING 40
SWIDTH 437 0
DWIDTH 9 0
BBX 8 20 3 -5
BITMAP
03
04
08
18
30
30
60
60
E0
E0
C0
C0
C0
C0
C0
60
60
60
20
10
ENDCHAR
STARTCHAR parenright
ENCODING 41
SWIDTH 413 0
DWIDTH 8 0
BBX 7 20 -1 -5
BITMAP
18
0C
0C
06
06
06
06
06
06
06
06
0E
0C
0C
18
18
30
60
C0
80
ENDCHAR
STARTCHAR asterisk
ENCODING 42
SWIDTH 515 0
DWIDTH 10 0
BBX 7 8 2 7
BITMAP
30
B4
FE
30
FC
F4
34
30
ENDCHAR
STARTCHAR plus
ENCODING 43
SWIDTH 442 0
DWIDTH 9 0
BBX 8 7 0 3
BITMAP
0C
08
08
7F
FF
10
10
ENDCHAR
STARTCHAR comma
ENCODING 44
SWIDTH 216 0
DWIDTH 4 0
BBX 3 6 0 -3
BITMAP
60
E0
60
20
40
80
ENDCHAR
STARTCHAR hyphen
ENCODING 45
SWIDTH 290 0
DWIDTH 6 0
BBX 5 1 0 5
BITMAP
F8
ENDCHAR
STARTCHAR period
ENCODING 46
SWIDTH 263 0
DWIDTH 5 0
BBX 3 3 1 0
BITMAP
C0
E0
C0
ENDCHAR
STARTCHAR slash
ENCODING 47
SWIDTH 311 0
DWIDTH 6 0
BBX 6 20 0 -5
BITMAP
0C
0C
08
08
08
18
18
10
10
30
30
20
20
20
60
60
40
40
40
C0
ENDCHAR
STARTCHAR zero
ENCODING 48
SWIDTH 546 0
DWIDTH 11 0
BBX 11 15 0 0
BITMAP
0780
0CC0
18E0
38E0
38E0
70E0
70E0
70E0
F0E0
E0C0
E1C0
6180
7380
7300
3E00
ENDCHAR
STARTCHAR one
ENCODING 49
SWIDTH 317 0
DWIDTH 6 0
BBX 6 15 0 0
BITMAP
04
0C
7C
1C
1C
18
38
38
38
38
70
70
70
70
E0
ENDCHAR
STARTCHAR two
ENCODING 50
SWIDTH 492 0
DWIDTH 10 0
BBX 9 15 0 0
BITMAP
1F00
3380
6380
6380
3380
0380
0700
0600
0C00
1000
2000
4080
FF80
FF80
8F00
ENDCHAR
STARTCHAR three
ENCODING 51
SWIDTH 514 0
DWIDTH 10 0
BBX 10 15 0 0
BITMAP
0F00
19C0
31C0
31C0
19C0
0380
0F00
0780
0380
71C0
E1C0
C180
C380
6700
3E00
ENDCHAR
STARTCHAR four
ENCODING 52
SWIDTH 476 0
DWIDTH 10 0
BBX 10 15 0 0
BITMAP
0E00
0E00
0E00
0C00
0D80
1900
3100
2340
7FC0
FF80
0700
0600
0600
0E00
0E00
ENDCHAR
STARTCHAR five
ENCODING 53
SWIDTH 517 0
DWIDTH 10 0
BBX 10 15 0 0
BITMAP
0040
1FC0
1FC0
1000
3000
3000
3F00
2380
0380
31C0
71C0
E180
E380
6700
3E00
ENDCHAR
STARTCHAR six
ENCODING 54
SWIDTH 500 0
DWIDTH 10 0
BBX 10 15 0 0
BITMAP
0780
0CC0
18C0
38C0
7000
7000
7F00
F380
F1C0
E1C0
E1C0
E180
6380
7300
3C00
ENDCHAR
STARTCHAR seven
ENCODING 55
SWIDTH 464 0
DWIDTH 9 0
BBX 9 15 1 0
BITMAP
7880
FF80
8F00
0300
0600
0E00
1C00
1800
3800
7000
7000
7000
F000
7000
7000
ENDCHAR
STARTCHAR eight
ENCODING 56
SWIDTH 499 0
DWIDTH 10 0
BBX 10 15 0 0
BITMAP
0F80
1DC0
38C0
38C0
39C0
3D80
1E00
1F00
7780
E380
E1C0
E1C0
E380
6300
3E00
ENDCHAR
STARTCHAR nine
ENCODING 57
SWIDTH 489 0
DWIDTH 10 0
BBX 10 15 0 0
BITMAP
0F00
3B80
3180
61C0
61C0
61C0
61C0
73C0
3D80
0380
0380
6300
C700
CE00
7800
ENDCHAR
STARTCHAR colon
ENCODING 58
SWIDTH 267 0
DWIDTH 5 0
BBX 4 8 1 1
BITMAP
70
70
70
00
00
E0
E0
E0
ENDCHAR
STARTCHAR semicolon
ENCODING 59
SWIDTH 276 0
DWIDTH 6 0
BBX 4 10 1 -2
BITMAP
70
70
70
00
40
E0
E0
40
40
80
ENDCHAR
STARTCHAR less
ENCODING 60
SWIDTH 358 0
DWIDTH 7 0
BBX 7 7 0 2
BITMAP
02
0E
38
E0
70
38
0C
ENDCHAR
STARTCHAR equal
ENCODING 61
SWIDTH 515 0
DWIDTH 10 0
BBX 8 6 1 2
BITMAP
7F
7F
00
00
FE
FE
ENDCHAR
STARTCHAR greater
ENCODING 62
SWIDTH 362 0
DWIDTH 7 0
BBX 7 7 0 2
BITMAP
40
70
1C
06
1C
70
C0
ENDCHAR
STARTCHAR question
ENCODING 63
SWIDTH 441 0
DWIDTH 9 0
BBX 8 15 1 0
BITMAP
3C
6E
C7
C7
E6
0C
18
30
20
60
40
00
E0
E0
E0
ENDCHAR
STARTCHAR at
ENCODING 64
SWIDTH 688 0
DWIDTH 14 0
BBX 13 14 0 -2
BITMAP
07E0
0E30
3818
3018
67D8
4E98
CD98
D9B0
D9B0
CFE0
C000
C080
6180
3F00
ENDCHAR
STARTCHAR A
ENCODING 65
SWIDTH 668 0
DWIDTH 13 0
BBX 14 17 0 -2
BITMAP
003C
007C
00D8
01B8
0338
0338
3F38
EEF0
EC70
5C70
1870
1860
38E0
30E0
30E0
3000
3000
ENDCHAR
STARTCHAR B
ENCODING 66
SWIDTH 641 0
DWIDTH 13 0
BBX 12 15 0 0
BITMAP
07C0
1860
7730
6630
CE60
CEE0
4FE0
0C70
1C70
1C70
1C70
1C70
1A60
3BE0
3BC0
ENDCHAR
STARTCHAR C
ENCODING 67
SWIDTH 497 0
DWIDTH 10 0
BBX 11 15 0 0
BITMAP
07C0
0E40
1C60
3860
38C0
7000
7000
7000
F000
F000
F000
F020
7040
7F80
3E00
ENDCHAR
STARTCHAR D
ENCODING 68
SWIDTH 663 0
DWIDTH 13 0
BBX 13 15 0 0
BITMAP
07C0
1870
6730
6E38
CE38
CE38
CE38
0C38
1C38
1C30
1C70
1C70
38E0
39C0
3F80
ENDCHAR
STARTCHAR E
ENCODING 69
SWIDTH 459 0
DWIDTH 9 0
BBX 10 15 0 0
BITMAP
0780
0CC0
1CC0
18C0
1980
1C00
0E00
3800
7800
7000
F000
F040
F080
7F00
3C00
ENDCHAR
STARTCHAR F
ENCODING 70
SWIDTH 459 0
DWIDTH 9 0
BBX 12 15 0 0
BITMAP
0FF0
37E0
6E00
CE00
CE00
CE40
4F80
1C00
1C00
1C00
1C00
1800
3800
3800
3800
ENDCHAR
STARTCHAR G
ENCODING 71
SWIDTH 578 0
DWIDTH 12 0
BBX 11 19 0 -4
BITMAP
07C0
1E60
3C60
7860
7060
7000
F000
E0E0
E0E0
70C0
71C0
3FC0
01C0
0180
3D80
2380
6300
2700
3E00
ENDCHAR
STARTCHAR H
ENCODING 72
SWIDTH 665 0
DWIDTH 13 0
BBX 14 15 0 0
BITMAP
071C
1F1C
6738
6E38
CE38
CE38
4FF8
0C70
1C70
1C70
1C70
1C60
18E0
38E0
38E0
ENDCHAR
STARTCHAR I
ENCODING 73
SWIDTH 375 0
DWIDTH 8 0
BBX 8 15 0 0
BITMAP
0F
1F
66
4E
CE
CE
CE
1C
1C
1C
1C
1C
38
38
38
ENDCHAR
STARTCHAR J
ENCODING 74
SWIDTH 536 0
DWIDTH 11 0
BBX 12 19 0 -4
BITMAP
00F0
03E0
06E0
0CE0
0CE0
0CC0
0DC0
01C0
01C0
01C0
0380
0380
0380
0380
7B80
C700
C700
4600
7C00
ENDCHAR
STARTCHAR K
ENCODING 75
SWIDTH 601 0
DWIDTH 12 0
BBX 13 15 0 0
BITMAP
0F18
3730
6660
CEC0
CE80
CF00
4FC0
1CE0
1CE0
1CE0
1CE0
18C0
39C0
39C0
39E0
ENDCHAR
STARTCHAR L
ENCODING 76
SWIDTH 379 0
DWIDTH 8 0
BBX 13 20 0 -5
BITMAP
0F00
3F00
6600
4E00
CE00
CE00
4E00
1C00
1C00
1C00
1C00
1800
3800
3800
3C00
0E00
0380
01F8
00F8
0030
ENDCHAR
STARTCHAR M
ENCODING 77
SWIDTH 787 0
DWIDTH 16 0
BBX 15 15 1 0
BITMAP
0F0E
1F0E
271E
671E
CF3C
CF3C
7F3C
1F7C
175C
37DC
379C
2798
67B8
4738
C738
ENDCHAR
STARTCHAR N
ENCODING 78
SWIDTH 668 0
DWIDTH 13 0
BBX 14 15 0 0
BITMAP
0F0C
370C
670C
CF8C
CF88
CF98
CF98
3998
19D8
19F0
19F0
18F0
30F0
30E0
30E0
ENDCHAR
STARTCHAR O
ENCODING 79
SWIDTH 665 0
DWIDTH 13 0
BBX 13 15 0 0
BITMAP
07E0
1C70
33B8
6638
CE38
DC38
5C38
1C38
3838
3830
3870
3860
38E0
1FC0
0F00
ENDCHAR
STARTCHAR P
ENCODING 80
SWIDTH 573 0
DWIDTH 11 0
BBX 12 15 0 0
BITMAP
0FC0
18E0
6770
6E30
CE30
CE70
CE60
0CC0
1D80
1E00
1C00
1C00
3800
3800
3800
ENDCHAR
STARTCHAR Q
ENCODING 81
SWIDTH 665 0
DWIDTH 13 0
BBX 13 17 0 -2
BITMAP
07E0
1C70
33B8
6638
4E38
DC38
DC38
1C38
3838
3830
3870
3870
3FE0
1DC0
0FC0
00F0
0070
ENDCHAR
STARTCHAR R
ENCODING 82
SWIDTH 601 0
DWIDTH 12 0
BBX 12 15 0 0
BITMAP
0FC0
3860
6730
6E30
CE60
CEC0
4FC0
0CE0
1CE0
1CE0
1CE0
18C0
39C0
39C0
39E0
ENDCHAR
STARTCHAR S
ENCODING 83
SWIDTH 570 0
DWIDTH 11 0
BBX 10 15 1 0
BITMAP
0F80
1CC0
38C0
38C0
3980
1C00
1E00
0F00
0780
F380
C380
C380
C380
E700
3C00
ENDCHAR
STARTCHAR T
ENCODING 84
SWIDTH 481 0
DWIDTH 10 0
BBX 14 15 0 0
BITMAP
0FC4
33FC
63FC
C380
C700
C700
C700
0700
0E00
0E00
0E00
0E00
0E00
1C00
1C00
ENDCHAR
STARTCHAR U
ENCODING 85
SWIDTH 716 0
DWIDTH 14 0
BBX 15 15 0 0
BITMAP
0F8E
370E
670E
C70C
C61C
CE1C
CE1C
0E1C
0C18
1C38
1C38
1C38
1C70
0FE0
07C0
ENDCHAR
STARTCHAR V
ENCODING 86
SWIDTH 615 0
DWIDTH 12 0
BBX 14 15 0 0
BITMAP
0F0C
1F08
6718
4710
C710
C730
C720
0720
0760
0740
0740
0780
0780
0780
0700
ENDCHAR
STARTCHAR W
ENCODING 87
SWIDTH 962 0
DWIDTH 19 0
BBX 21 15 0 0
BITMAP
0F0E18
1F0E10
671E30
471E20
C71E20
C73E60
C72E40
072E40
076E80
074E80
074E80
078F00
078F00
078F00
070E00
ENDCHAR
STARTCHAR X
ENCODING 88
SWIDTH 620 0
DWIDTH 12 0
BBX 13 15 0 0
BITMAP
0F18
1F30
6720
47E0
C3C0
C380
C380
0380
03C0
03C0
07C0
05C0
09E0
08E0
10E0
ENDCHAR
STARTCHAR Y
ENCODING 89
SWIDTH 620 0
DWIDTH 12 0
BBX 14 15 0 0
BITMAP
0F0C
1F08
6788
4390
C390
C3B0
C3E0
01E0
01C0
01C0
01C0
03C0
0380
0380
0380
ENDCHAR
STARTCHAR Z
ENCODING 90
SWIDTH 542 0
DWIDTH 11 0
BBX 11 15 0 0
BITMAP
1FE0
31C0
31C0
0380
0380
0700
0700
0E00
0E00
1C00
1C00
3800
78C0
70C0
FF80
ENDCHAR
STARTCHAR bracketleft
ENCODING 91
SWIDTH 400 0
DWIDTH 8 0
BBX 8 20 0 -5
BITMAP
0F
0C
0C
18
18
18
18
38
30
30
30
30
60
60
60
60
60
C0
C0
F0
ENDCHAR
STARTCHAR backslash
ENCODING 92
SWIDTH 362 0
DWIDTH 7 0
BBX 6 20 1 -5
BITMAP
80
C0
C0
40
40
40
60
60
20
20
30
30
30
10
10
18
18
08
08
0C
ENDCHAR
STARTCHAR bracketright
ENCODING 93
SWIDTH 400 0
DWIDTH 8 0
BBX 8 20 -1 -5
BITMAP
0F
03
03
03
06
06
06
06
0C
0C
0C
0C
0C
18
18
18
18
18
30
F0
ENDCHAR
STARTCHAR asciicircum
ENCODING 94
SWIDTH 421 0
DWIDTH 8 0
BBX 6 4 1 11
BITMAP
08
18
38
C4
ENDCHAR
STARTCHAR underscore
ENCODING 95
SWIDTH 444 0
DWIDTH 9 0
BBX 7 1 1 0
BITMAP
FE
ENDCHAR
STARTCHAR grave
ENCODING 96
SWIDTH 201 0
DWIDTH 4 0
BBX 3 4 0 11
BITMAP
E0
60
60
20
ENDCHAR
STARTCHAR a
ENCODING 97
SWIDTH 526 0
DWIDTH 11 0
BBX 11 10 0 0
BITMAP
1DC0
3B80
7380
E380
E380
E300
E720
E720
FFC0
7380
ENDCHAR
STARTCHAR b
ENCODING 98
SWIDTH 444 0
DWIDTH 9 0
BBX 8 14 0 0
BITMAP
38
38
38
70
7E
73
73
63
E3
E3
E7
E6
FC
78
ENDCHAR
STARTCHAR c
ENCODING 99
SWIDTH 384 0
DWIDTH 8 0
BBX 8 10 0 0
BITMAP
1E
3A
72
E0
E0
E0
E0
E1
E6
78
ENDCHAR
STARTCHAR d
ENCODING 100
SWIDTH 525 0
DWIDTH 11 0
BBX 11 14 0 0
BITMAP
00C0
01C0
01C0
01C0
1DC0
3B80
7380
E380
E380
E380
E700
E720
EF20
73C0
ENDCHAR
STARTCHAR e
ENCODING 101
SWIDTH 384 0
DWIDTH 8 0
BBX 8 10 0 0
BITMAP
1E
3A
72
E6
EC
F8
E0
E1
E6
78
ENDCHAR
STARTCHAR f
ENCODING 102
SWIDTH 267 0
DWIDTH 5 0
BBX 12 20 -4 -5
BITMAP
01E0
0390
0390
0380
0700
07C0
0700
0700
0700
0E00
0E00
0E00
0E00
0C00
1C00
7C00
DC00
9C00
B800
7000
ENDCHAR
STARTCHAR g
ENCODING 103
SWIDTH 507 0
DWIDTH 10 0
BBX 11 15 0 -5
BITMAP
1DC0
3B80
7380
E380
E380
E300
E720
E720
FF40
7780
1E00
3E00
6E00
6C00
3800
ENDCHAR
STARTCHAR h
ENCODING 104
SWIDTH 505 0
DWIDTH 10 0
BBX 12 14 -1 0
BITMAP
1C00
1C00
1C00
1800
3F80
3980
39C0
3180
7380
7380
7380
7390
63A0
E1C0
ENDCHAR
STARTCHAR i
ENCODING 105
SWIDTH 267 0
DWIDTH 5 0
BBX 6 14 0 0
BITMAP
38
38
38
00
70
70
70
60
E0
E0
E4
E4
F8
70
ENDCHAR
STARTCHAR j
ENCODING 106
SWIDTH 240 0
DWIDTH 5 0
BBX 10 19 -4 -5
BITMAP
0300
0380
0300
0000
0700
0700
0700
0700
0E00
0E00
0E40
0E80
0E80
1F00
3C00
7C00
9C00
B800
7000
ENDCHAR
STARTCHAR k
ENCODING 107
SWIDTH 518 0
DWIDTH 10 0
BBX 12 14 -1 0
BITMAP
1C00
1C00
1C00
3800
38C0
3900
3E00
3F80
7B80
7380
7390
7390
63E0
E1C0
ENDCHAR
STARTCHAR l
ENCODING 108
SWIDTH 267 0
DWIDTH 5 0
BBX 6 14 0 0
BITMAP
18
38
38
30
70
70
70
60
E0
E0
E4
E4
F8
70
ENDCHAR
STARTCHAR m
ENCODING 109
SWIDTH 752 0
DWIDTH 15 0
BBX 17 10 -1 0
BITMAP
3FBC00
39CC00
39CE00
338C00
739C00
739C00
739C00
739C80
671D00
E70E00
ENDCHAR
STARTCHAR n
ENCODING 110
SWIDTH 505 0
DWIDTH 10 0
BBX 12 10 -1 0
BITMAP
3F80
3980
39C0
3180
7380
7380
7380
7390
63A0
E1C0
ENDCHAR
STARTCHAR o
ENCODING 111
SWIDTH 439 0
DWIDTH 9 0
BBX 11 10 0 0
BITMAP
1E00
3A00
7320
E7C0
E300
E300
E200
E600
EC00
7800
ENDCHAR
STARTCHAR p
ENCODING 112
SWIDTH 468 0
DWIDTH 9 0
BBX 11 16 -2 -5
BITMAP
0C00
1FC0
1CE0
1CE0
18E0
38E0
38E0
39C0
39C0
3F80
7F00
7000
7000
7000
E000
C000
ENDCHAR
STARTCHAR q
ENCODING 113
SWIDTH 486 0
DWIDTH 10 0
BBX 10 15 0 -5
BITMAP
1DC0
3B80
7380
E380
E380
E300
E700
E700
FF00
7700
0E00
0E00
0E00
0E00
0800
ENDCHAR
STARTCHAR r
ENCODING 114
SWIDTH 376 0
DWIDTH 8 0
BBX 9 10 -1 0
BITMAP
3B00
3F80
3900
3000
7000
7000
7000
7000
6000
E000
ENDCHAR
STARTCHAR s
ENCODING 115
SWIDTH 382 0
DWIDTH 8 0
BBX 9 10 -1 0
BITMAP
0E00
1E00
1E00
1E00
2E00
2E00
6E80
CF00
4E00
7C00
ENDCHAR
STARTCHAR t
ENCODING 116
SWIDTH 267 0
DWIDTH 5 0
BBX 6 13 0 0
BITMAP
38
38
70
78
70
70
70
E0
E0
E4
E4
F8
F0
ENDCHAR
STARTCHAR u
ENCODING 117
SWIDTH 505 0
DWIDTH 10 0
BBX 11 10 0 0
BITMAP
7380
7380
7380
6300
E700
E700
E720
EF20
FFC0
7380
ENDCHAR
STARTCHAR v
ENCODING 118
SWIDTH 414 0
DWIDTH 8 0
BBX 8 10 0 0
BITMAP
73
77
71
61
E3
E2
E6
E4
FC
70
ENDCHAR
STARTCHAR w
ENCODING 119
SWIDTH 661 0
DWIDTH 13 0
BBX 13 10 0 0
BITMAP
7398
73B8
7388
6308
E718
E710
E730
EF20
FFE0
7780
ENDCHAR
STARTCHAR x
ENCODING 120
SWIDTH 522 0
DWIDTH 10 0
BBX 11 11 0 0
BITMAP
00C0
1CC0
2E40
4E80
4F80
8F00
8600
8E00
1720
2740
4380
ENDCHAR
STARTCHAR y
ENCODING 121
SWIDTH 486 0
DWIDTH 10 0
BBX 11 15 0 -5
BITMAP
7380
7380
7380
6300
E700
E700
E720
EF40
FEC0
7F00
1E00
6E00
4C00
7C00
3800
ENDCHAR
STARTCHAR z
ENCODING 122
SWIDTH 428 0
DWIDTH 9 0
BBX 9 10 0 0
BITMAP
3F80
6700
6E00
0E00
1C00
1800
3800
7300
7300
FE00
ENDCHAR
STARTCHAR braceleft
ENCODING 123
SWIDTH 352 0
DWIDTH 7 0
BBX 7 20 1 -5
BITMAP
0E
18
18
38
30
30
30
30
30
C0
60
60
60
60
60
C0
C0
C0
E0
70
ENDCHAR
STARTCHAR bar
ENCODING 124
SWIDTH 532 0
DWIDTH 11 0
BBX 2 20 4 -5
BITMAP
C0
C0
C0
C0
C0
C0
C0
C0
C0
C0
C0
C0
C0
C0
C0
C0
C0
C0
C0
C0
ENDCHAR
STARTCHAR braceright
ENCODING 125
SWIDTH 352 0
DWIDTH 7 0
BBX 7 20 -1 -5
BITMAP
1C
0E
0E
0E
0C
0C
0C
0C
18
18
0E
18
18
38
38
30
30
30
70
E0
ENDCHAR
STARTCHAR asciitilde
ENCODING 126
SWIDTH 431 0
DWIDTH 9 0
BBX 8 2 1 11
BITMAP
7F
FE
ENDCHAR
STARTCHAR uni00A0
ENCODING 160
SWIDTH 217 0
DWIDTH 4 0
BBX 1 1 0 0
BITMAP
00
ENDCHAR
STARTCHAR exclamdown
ENCODING 161
SWIDTH 219 0
DWIDTH 4 0
BBX 6 15 -1 -5
BITMAP
18
3C
18
00
10
30
30
30
30
70
60
60
E0
E0
C0
ENDCHAR
STARTCHAR cent
ENCODING 162
SWIDTH 384 0
DWIDTH 8 0
BBX 8 14 0 0
BITMAP
06
04
0F
35
7B
69
E8
E8
E8
F0
72
3C
10
20
ENDCHAR
STARTCHAR sterling
ENCODING 163
SWIDTH 455 0
DWIDTH 9 0
BBX 10 15 0 0
BITMAP
03C0
06C0
0EC0
0CC0
1C00
1C00
1C00
7F00
1800
3800
3800
3000
7C40
7FC0
8780
ENDCHAR
STARTCHAR currency
ENCODING 164
SWIDTH 500 0
DWIDTH 10 0
BBX 8 8 1 3
BITMAP
42
FF
66
42
42
66
FF
42
ENDCHAR
STARTCHAR yen
ENCODING 165
SWIDTH 558 0
DWIDTH 11 0
BBX 10 15 2 0
BITMAP
F0C0
7080
7100
7100
7B00
3A00
3A00
3C00
3C00
FF00
3800
FF00
3800
7800
7000
ENDCHAR
STARTCHAR brokenbar
ENCODING 166
SWIDTH 532 0
DWIDTH 11 0
BBX 2 20 4 -5
BITMAP
C0
C0
C0
C0
C0
C0
C0
C0
C0
00
00
C0
C0
C0
C0
C0
C0
C0
C0
C0
ENDCHAR
STARTCHAR section
ENCODING 167
SWIDTH 542 0
DWIDTH 11 0
BBX 11 16 0 -1
BITMAP
03C0
0E40
0C60
0CC0
1E00
3F00
3780
3BC0
3DC0
1EC0
0EC0
7780
C700
C700
C600
7C00
ENDCHAR
STARTCHAR dieresis
ENCODING 168
SWIDTH 392 0
DWIDTH 8 0
BBX 6 2 1 11
BITMAP
EC
CC
ENDCHAR
STARTCHAR copyright
ENCODING 169
SWIDTH 587 0
DWIDTH 12 0
BBX 10 10 1 2
BITMAP
1E00
6300
5E80
B280
A040
A040
B240
5E80
6100
3E00
ENDCHAR
STARTCHAR ordfeminine
ENCODING 170
SWIDTH 345 0
DWIDTH 7 0
BBX 5 6 1 9
BITMAP
78
48
D8
98
98
F8
ENDCHAR
STARTCHAR guillemotleft
ENCODING 171
SWIDTH 589 0
DWIDTH 12 0
BBX 11 7 0 2
BITMAP
0220
0660
3980
6600
E600
1980
0C40
ENDCHAR
STARTCHAR logicalnot
ENCODING 172
SWIDTH 444 0
DWIDTH 9 0
BBX 8 5 0 1
BITMAP
FF
07
06
06
06
ENDCHAR
STARTCHAR uni00AD
ENCODING 173
SWIDTH 290 0
DWIDTH 6 0
BBX 5 1 0 5
BITMAP
F8
ENDCHAR
STARTCHAR registered
ENCODING 174
SWIDTH 553 0
DWIDTH 11 0
BBX 9 10 1 2
BITMAP
3E00
6300
DC80
A280
A280
9C80
A480
A280
6300
3E00
ENDCHAR
STARTCHAR macron
ENCODING 175
SWIDTH 446 0
DWIDTH 9 0
BBX 7 1 1 12
BITMAP
FE
ENDCHAR
STARTCHAR degree
ENCODING 176
SWIDTH 314 0
DWIDTH 6 0
BBX 5 7 1 7
BITMAP
70
58
D8
98
90
90
E0
ENDCHAR
STARTCHAR plusminus
ENCODING 177
SWIDTH 479 0
DWIDTH 10 0
BBX 9 9 0 3
BITMAP
0600
0400
3F80
7F80
0C00
0800
1800
0000
FF00
ENDCHAR
STARTCHAR uni00B2
ENCODING 178
SWIDTH 328 0
DWIDTH 7 0
BBX 5 9 1 6
BITMAP
38
58
48
18
10
20
40
E8
B8
ENDCHAR
STARTCHAR uni00B3
ENCODING 179
SWIDTH 336 0
DWIDTH 7 0
BBX 6 9 1 6
BITMAP
38
6C
68
18
38
D8
98
98
70
ENDCHAR
STARTCHAR acute
ENCODING 180
SWIDTH 316 0
DWIDTH 6 0
BBX 4 4 2 11
BITMAP
30
30
60
C0
ENDCHAR
STARTCHAR uni00B5
ENCODING 181
SWIDTH 505 0
DWIDTH 10 0
BBX 12 13 -1 -3
BITMAP
39C0
39C0
39C0
3180
7380
7380
7390
7790
7FE0
F9C0
E000
E000
E000
ENDCHAR
STARTCHAR paragraph
ENCODING 182
SWIDTH 542 0
DWIDTH 11 0
BBX 9 16 1 -1
BITMAP
1F00
3F80
7F80
7F80
FD80
FD80
7D80
7F00
3F00
1B00
1B00
1A00
1E00
3600
3600
3600
ENDCHAR
STARTCHAR periodcentered
ENCODING 183
SWIDTH 434 0
DWIDTH 9 0
BBX 4 4 2 3
BITMAP
70
F0
F0
70
ENDCHAR
STARTCHAR cedilla
ENCODING 184
SWIDTH 227 0
DWIDTH 5 0
BBX 5 5 0 -4
BITMAP
20
20
78
18
F0
ENDCHAR
STARTCHAR uni00B9
ENCODING 185
SWIDTH 229 0
DWIDTH 5 0
BBX 3 9 1 6
BITMAP
20
E0
60
60
40
40
C0
C0
C0
ENDCHAR
STARTCHAR ordmasculine
ENCODING 186
SWIDTH 329 0
DWIDTH 7 0
BBX 5 6 1 9
BITMAP
70
D8
D0
90
90
E0
ENDCHAR
STARTCHAR guillemotright
ENCODING 187
SWIDTH 586 0
DWIDTH 12 0
BBX 11 7 0 2
BITMAP
4200
6300
18C0
0660
0CE0
7300
8400
ENDCHAR
STARTCHAR onequarter
ENCODING 188
SWIDTH 749 0
DWIDTH 15 0
BBX 14 15 1 0
BITMAP
2060
E040
60C0
6080
4100
4300
C200
C66C
C468
0C78
0858
18FC
1018
2010
6030
ENDCHAR
STARTCHAR onehalf
ENCODING 189
SWIDTH 745 0
DWIDTH 15 0
BBX 14 15 1 0
BITMAP
2060
E040
60C0
6080
4100
4300
C200
C638
C44C
0C6C
0808
1810
1020
2040
60F8
ENDCHAR
STARTCHAR threequarters
ENCODING 190
SWIDTH 836 0
DWIDTH 17 0
BBX 16 15 1 0
BITMAP
3818
6C30
6820
1860
3840
D8C0
9880
999B
711E
0216
0616
043E
0C04
080C
180C
ENDCHAR
STARTCHAR questiondown
ENCODING 191
SWIDTH 439 0
DWIDTH 9 0
BBX 7 15 0 -5
BITMAP
06
0E
06
00
04
04
0C
18
30
60
EE
E6
E6
E6
78
ENDCHAR
STARTCHAR Agrave
ENCODING 192
SWIDTH 668 0
DWIDTH 13 0
BBX 14 22 0 -2
BITMAP
0030
0030
0030
0010
0000
003C
007C
00D8
01B8
0338
0338
3F38
EEF0
EC70
5C70
1870
1860
38E0
30E0
30E0
3000
3000
ENDCHAR
STARTCHAR Aacute
ENCODING 193
SWIDTH 668 0
DWIDTH 13 0
BBX 15 22 0 -2
BITMAP
0006
0006
000C
0018
0000
003C
007C
00D8
01B8
0338
0338
3F38
EEF0
EC70
5C70
1870
1860
38E0
30E0
30E0
3000
3000
ENDCHAR
STARTCHAR Acircumflex
ENCODING 194
SWIDTH 668 0
DWIDTH 13 0
BBX 15 22 0 -2
BITMAP
0004
000C
001E
0062
0000
003C
007C
00D8
01B8
0338
0338
3F38
EEF0
EC70
5C70
1870
1860
38E0
30E0
30E0
3000
3000
ENDCHAR
STARTCHAR Atilde
ENCODING 195
SWIDTH 668 0
DWIDTH 13 0
BBX 16 21 0 -2
BITMAP
0010
007F
009E
0000
003C
007C
00D8
01B8
0338
0338
3F38
EEF0
EC70
5C70
1870
1860
38E0
30E0
30E0
3000
3000
ENDCHAR
STARTCHAR Adieresis
ENCODING 196
SWIDTH 668 0
DWIDTH 13 0
BBX 15 20 0 -2
BITMAP
0076
0066
0000
003C
007C
00D8
01B8
0338
0338
3F38
EEF0
EC70
5C70
1870
1860
38E0
30E0
30E0
3000
3000
ENDCHAR
STARTCHAR Aring
ENCODING 197
SWIDTH 668 0
DWIDTH 13 0
BBX 14 21 0 -2
BITMAP
0018
0014
0018
0000
003C
007C
00D8
01B8
0338
0338
3F38
EEF0
EC70
5C70
1870
1860
38E0
30E0
30E0
3000
3000
ENDCHAR
STARTCHAR AE
ENCODING 198
SWIDTH 764 0
DWIDTH 15 0
BBX 18 17 0 -2
BITMAP
003C40
007FC0
00D800
01B800
033800
023800
3F3800
ECFF00
EC7000
5C7000
187000
386000
38E000
30FF00
30FE00
300000
300000
ENDCHAR
STARTCHAR Ccedilla
ENCODING 199
SWIDTH 497 0
DWIDTH 10 0
BBX 11 19 0 -4
BITMAP
07C0
0E40
1C60
3860
38C0
7000
7000
7000
F000
F000
F000
F020
70C0
7F80
3E00
0800
0E00
0200
1C00
ENDCHAR
STARTCHAR Egrave
ENCODING 200
SWIDTH 459 0
DWIDTH 9 0
BBX 10 20 0 0
BITMAP
0600
0600
0300
0300
0000
0780
0CC0
1CC0
18C0
1980
1C00
0E00
3800
7800
7000
F000
F040
F080
7F00
3C00
ENDCHAR
STARTCHAR Eacute
ENCODING 201
SWIDTH 459 0
DWIDTH 9 0
BBX 11 20 0 0
BITMAP
00E0
0080
0180
0100
0000
0780
0CC0
1CC0
18C0
1980
1C00
0E00
3800
7800
7000
F000
F040
F080
7F00
3C00
ENDCHAR
STARTCHAR Ecircumflex
ENCODING 202
SWIDTH 459 0
DWIDTH 9 0
BBX 10 20 0 0
BITMAP
0080
0380
06C0
0840
0000
0780
0CC0
1CC0
18C0
1980
1C00
0E00
3800
7800
7000
F000
F040
F080
7F00
3C00
ENDCHAR
STARTCHAR Edieresis
ENCODING 203
SWIDTH 459 0
DWIDTH 9 0
BBX 11 19 0 0
BITMAP
0660
06E0
0000
0000
0780
0CC0
1CC0
18C0
1980
1C00
0E00
3800
7800
7000
F000
F040
F080
7F00
3C00
ENDCHAR
STARTCHAR Igrave
ENCODING 204
SWIDTH 375 0
DWIDTH 8 0
BBX 8 20 0 0
BITMAP
0C
06
06
06
00
0F
1F
66
4E
CE
CE
CE
1C
1C
1C
1C
1C
38
38
38
ENDCHAR
STARTCHAR Iacute
ENCODING 205
SWIDTH 375 0
DWIDTH 8 0
BBX 10 20 0 0
BITMAP
00C0
0180
0100
0300
0000
0F00
1F00
6600
4E00
CE00
CE00
CE00
1C00
1C00
1C00
1C00
1C00
3800
3800
3800
ENDCHAR
STARTCHAR Icircumflex
ENCODING 206
SWIDTH 375 0
DWIDTH 8 0
BBX 9 20 0 0
BITMAP
0100
0300
0780
1880
0000
0F00
1F00
6600
4E00
CE00
CE00
CE00
1C00
1C00
1C00
1C00
1C00
3800
3800
3800
ENDCHAR
STARTCHAR Idieresis
ENCODING 207
SWIDTH 375 0
DWIDTH 8 0
BBX 10 18 0 0
BITMAP
0DC0
0CC0
0000
0F00
1F00
6600
4E00
CE00
CE00
CE00
1C00
1C00
1C00
1C00
1C00
3800
3800
3800
ENDCHAR
STARTCHAR Eth
ENCODING 208
SWIDTH 663 0
DWIDTH 13 0
BBX 13 15 0 0
BITMAP
07C0
1870
6330
6E38
CE38
CE38
CE38
1F38
1C38
1C30
1C70
1C70
38E0
39C0
3F80
ENDCHAR
STARTCHAR Ntilde
ENCODING 209
SWIDTH 686 0
DWIDTH 14 0
BBX 14 18 0 0
BITMAP
01F4
0278
0000
0F0C
370C
670C
CF8C
CF88
CF98
CF98
3998
19D8
19F0
19F0
18F0
30F0
30E0
30E0
ENDCHAR
STARTCHAR Ograve
ENCODING 210
SWIDTH 665 0
DWIDTH 13 0
BBX 13 20 0 0
BITMAP
0300
0300
0180
0180
0000
07E0
1C70
33B8
6638
CE38
DC38
5C38
1C38
3838
3830
3870
3860
38E0
1FC0
0F00
ENDCHAR
STARTCHAR Oacute
ENCODING 211
SWIDTH 665 0
DWIDTH 13 0
BBX 13 20 0 0
BITMAP
0030
0060
0040
00C0
0000
07E0
1C70
33B8
6638
CE38
DC38
5C38
1C38
3838
3830
3870
3860
38E0
1FC0
0F00
ENDCHAR
STARTCHAR Ocircumflex
ENCODING 212
SWIDTH 665 0
DWIDTH 13 0
BBX 13 20 0 0
BITMAP
0040
00E0
01A0
0620
0000
07E0
1C70
33B8
6638
CE38
DC38
5C38
1C38
3838
3830
3870
3860
38E0
1FC0
0F00
ENDCHAR
STARTCHAR Otilde
ENCODING 213
SWIDTH 665 0
DWIDTH 13 0
BBX 14 19 0 0
BITMAP
0084
03F8
0470
0000
07E0
1C70
33B8
6638
CE38
DC38
5C38
1C38
3838
3830
3870
3860
38E0
1FC0
0F00
ENDCHAR
STARTCHAR Odieresis
ENCODING 214
SWIDTH 665 0
DWIDTH 13 0
BBX 13 19 0 0
BITMAP
0330
0370
0000
0000
07E0
1C70
33B8
6638
CE38
DC38
5C38
1C38
3838
3830
3870
3860
38E0
1FC0
0F00
ENDCHAR
STARTCHAR multiply
ENCODING 215
SWIDTH 414 0
DWIDTH 8 0
BBX 6 6 1 4
BITMAP
84
CC
78
30
78
CC
ENDCHAR
STARTCHAR Oslash
ENCODING 216
SWIDTH 658 0
DWIDTH 13 0
BBX 13 16 0 -1
BITMAP
0040
07C0
1BB0
76B0
6EB8
DCB8
DD38
1D30
3930
3970
3970
3AE0
3AC0
1F80
0E00
0400
ENDCHAR
STARTCHAR Ugrave
ENCODING 217
SWIDTH 716 0
DWIDTH 14 0
BBX 15 20 0 0
BITMAP
00C0
0040
0060
0060
0000
0F0E
370E
670E
C70C
CE1C
CE1C
CE1C
0C1C
1C38
1C38
1C38
1C70
1C70
1FE0
0FC0
ENDCHAR
STARTCHAR Uacute
ENCODING 218
SWIDTH 716 0
DWIDTH 14 0
BBX 15 20 0 0
BITMAP
0018
0030
0020
0060
0000
0F0E
370E
670E
C70C
CE1C
CE1C
CE1C
0C1C
1C38
1C38
1C38
1C70
1C70
1FE0
0FC0
ENDCHAR
STARTCHAR Ucircumflex
ENCODING 219
SWIDTH 716 0
DWIDTH 14 0
BBX 15 20 0 0
BITMAP
0010
0030
0078
0188
0000
0F0E
370E
670E
C70C
CE1C
CE1C
CE1C
0C1C
1C38
1C38
1C38
1C70
1C70
1FE0
0FC0
ENDCHAR
STARTCHAR Udieresis
ENCODING 220
SWIDTH 716 0
DWIDTH 14 0
BBX 15 19 0 0
BITMAP
00D8
00DC
0000
0000
0F0E
370E
670E
C70C
CE1C
CE1C
CE1C
0C1C
1C38
1C38
1C38
1C70
1C70
1FE0
0FC0
ENDCHAR
STARTCHAR Yacute
ENCODING 221
SWIDTH 620 0
DWIDTH 12 0
BBX 14 20 0 0
BITMAP
000C
0018
0010
0030
0000
0F0C
1F08
6788
4390
C390
C3B0
C3E0
01E0
01C0
01C0
01C0
03C0
0380
0380
0380
ENDCHAR
STARTCHAR Thorn
ENCODING 222
SWIDTH 583 0
DWIDTH 12 0
BBX 12 15 0 0
BITMAP
0700
0700
07C0
1E60
7E70
6E30
CE30
CC70
DC60
5CE0
1DC0
1F80
3800
3800
3800
ENDCHAR
STARTCHAR germandbls
ENCODING 223
SWIDTH 480 0
DWIDTH 10 0
BBX 11 19 -2 -5
BITMAP
03C0
06C0
0E40
0EC0
1CC0
1C80
1D00
1DC0
18C0
38E0
38E0
38E0
3CC0
7780
7000
7000
7000
6000
C000
ENDCHAR
STARTCHAR agrave
ENCODING 224
SWIDTH 526 0
DWIDTH 11 0
BBX 11 15 0 0
BITMAP
0C00
0600
0600
0600
0000
1DC0
3B80
7380
E380
E380
E300
E720
E720
FFC0
7380
ENDCHAR
STARTCHAR aacute
ENCODING 225
SWIDTH 526 0
DWIDTH 11 0
BBX 11 15 0 0
BITMAP
0380
0300
0200
0600
0000
1DC0
3B80
7380
E380
E380
E300
E720
E720
FFC0
7380
ENDCHAR
STARTCHAR acircumflex
ENCODING 226
SWIDTH 526 0
DWIDTH 11 0
BBX 11 15 0 0
BITMAP
0100
0300
0780
1880
0000
1DC0
3B80
7380
E380
E380
E300
E720
E720
FFC0
7380
ENDCHAR
STARTCHAR atilde
ENCODING 227
SWIDTH 526 0
DWIDTH 11 0
BBX 11 14 0 0
BITMAP
0F20
1FC0
2100
0000
1DC0
3B80
7380
E380
E380
E300
E720
E720
FFC0
7380
ENDCHAR
STARTCHAR adieresis
ENCODING 228
SWIDTH 526 0
DWIDTH 11 0
BBX 11 14 0 0
BITMAP
0D80
0DC0
0000
0000
1DC0
3B80
7380
E380
E380
E300
E720
E720
FFC0
7380
ENDCHAR
STARTCHAR aring
ENCODING 229
SWIDTH 526 0
DWIDTH 11 0
BBX 11 14 0 0
BITMAP
0700
0500
0700
0000
1DC0
3B80
7380
E380
E380
E300
E720
E720
FFC0
7380
ENDCHAR
STARTCHAR ae
ENCODING 230
SWIDTH 650 0
DWIDTH 13 0
BBX 14 10 0 0
BITMAP
1EF0
27D8
0398
0390
3F30
F7E0
E704
E708
FF10
73E0
ENDCHAR
STARTCHAR ccedilla
ENCODING 231
SWIDTH 384 0
DWIDTH 8 0
BBX 8 14 0 -4
BITMAP
1E
3A
72
E0
E0
E0
E1
E2
FE
78
10
1C
0C
38
ENDCHAR
STARTCHAR egrave
ENCODING 232
SWIDTH 384 0
DWIDTH 8 0
BBX 8 15 0 0
BITMAP
18
08
0C
0C
00
1E
3A
72
E6
EC
F8
E0
E1
E6
78
ENDCHAR
STARTCHAR eacute
ENCODING 233
SWIDTH 384 0
DWIDTH 8 0
BBX 8 15 0 0
BITMAP
03
02
06
0C
00
1E
3A
72
E6
EC
F8
E0
E1
E6
78
ENDCHAR
STARTCHAR ecircumflex
ENCODING 234
SWIDTH 384 0
DWIDTH 8 0
BBX 8 15 0 0
BITMAP
02
06
0F
31
00
1E
3A
72
E6
EC
F8
E0
E1
E6
78
ENDCHAR
STARTCHAR edieresis
ENCODING 235
SWIDTH 384 0
DWIDTH 8 0
BBX 8 14 0 0
BITMAP
1B
3B
00
00
1E
3A
72
E6
EC
F8
E0
E1
E6
78
ENDCHAR
STARTCHAR igrave
ENCODING 236
SWIDTH 267 0
DWIDTH 5 0
BBX 6 15 0 0
BITMAP
60
20
30
30
00
70
70
70
60
E0
E0
E4
E4
F8
70
ENDCHAR
STARTCHAR iacute
ENCODING 237
SWIDTH 267 0
DWIDTH 5 0
BBX 6 15 0 0
BITMAP
0C
18
18
30
00
70
70
70
60
E0
E0
E4
E4
F8
70
ENDCHAR
STARTCHAR icircumflex
ENCODING 238
SWIDTH 267 0
DWIDTH 5 0
BBX 6 15 0 0
BITMAP
08
18
68
84
00
70
70
70
60
E0
E0
E4
E4
F8
70
ENDCHAR
STARTCHAR idieresis
ENCODING 239
SWIDTH 267 0
DWIDTH 5 0
BBX 6 14 0 0
BITMAP
6C
EC
00
00
70
70
70
60
E0
E0
E4
E4
F8
70
ENDCHAR
STARTCHAR eth
ENCODING 240
SWIDTH 526 0
DWIDTH 11 0
BBX 11 15 0 0
BITMAP
0600
0360
0780
0D80
0180
1D80
3B80
7380
E380
E380
E380
E700
E720
EF20
7BC0
ENDCHAR
STARTCHAR ntilde
ENCODING 241
SWIDTH 505 0
DWIDTH 10 0
BBX 12 14 -1 0
BITMAP
0F20
1FC0
0000
0000
3F80
3980
39C0
3180
7380
7380
7390
73A0
63E0
E1C0
ENDCHAR
STARTCHAR ograve
ENCODING 242
SWIDTH 433 0
DWIDTH 9 0
BBX 11 15 0 0
BITMAP
0C00
0C00
0C00
0400
0000
1E00
3A00
7320
E7C0
E300
E200
E600
E600
EC00
7800
ENDCHAR
STARTCHAR oacute
ENCODING 243
SWIDTH 439 0
DWIDTH 9 0
BBX 11 15 0 0
BITMAP
0300
0300
0600
0C00
0000
1E00
3A00
7320
E7C0
E300
E300
E200
E600
EC00
7800
ENDCHAR
STARTCHAR ocircumflex
ENCODING 244
SWIDTH 433 0
DWIDTH 9 0
BBX 11 15 0 0
BITMAP
0200
0600
1E00
3100
0000
1E00
3A00
7320
E7C0
E300
E200
E600
E600
EC00
7800
ENDCHAR
STARTCHAR otilde
ENCODING 245
SWIDTH 433 0
DWIDTH 9 0
BBX 11 14 0 0
BITMAP
3C80
7F00
0400
0000
1E00
3A00
7320
E7C0
E300
E200
E600
E600
EC00
7800
ENDCHAR
STARTCHAR odieresis
ENCODING 246
SWIDTH 433 0
DWIDTH 9 0
BBX 11 14 0 0
BITMAP
3300
3B00
0000
0000
1E00
3A00
7320
E7C0
E300
E200
E600
E600
EC00
7800
ENDCHAR
STARTCHAR divide
ENCODING 247
SWIDTH 415 0
DWIDTH 8 0
BBX 7 10 1 2
BITMAP
18
1C
18
00
FE
00
00
30
78
30
ENDCHAR
STARTCHAR oslash
ENCODING 248
SWIDTH 428 0
DWIDTH 9 0
BBX 11 11 -1 -1
BITMAP
0F60
1D80
3980
7380
7780
7580
7B00
7300
7E00
7C00
8000
ENDCHAR
STARTCHAR ugrave
ENCODING 249
SWIDTH 505 0
DWIDTH 10 0
BBX 11 15 0 0
BITMAP
0C00
0C00
0C00
0400
0000
7380
7380
7380
6300
E700
E700
E720
EF20
FFC0
7380
ENDCHAR
STARTCHAR uacute
ENCODING 250
SWIDTH 505 0
DWIDTH 10 0
BBX 11 15 0 0
BITMAP
0380
0300
0600
0400
0000
7380
7380
7380
6300
E700
E700
E720
EF20
FFC0
7380
ENDCHAR
STARTCHAR ucircumflex
ENCODING 251
SWIDTH 505 0
DWIDTH 10 0
BBX 11 15 0 0
BITMAP
0200
0700
0D00
1100
0000
7380
7380
7380
6300
E700
E700
E720
EF20
FFC0
7380
ENDCHAR
STARTCHAR udieresis
ENCODING 252
SWIDTH 505 0
DWIDTH 10 0
BBX 11 14 0 0
BITMAP
1980
1B80
0000
0000
7380
7380
7380
6300
E700
E700
E720
EF20
FFC0
7380
ENDCHAR
STARTCHAR yacute
ENCODING 253
SWIDTH 505 0
DWIDTH 10 0
BBX 11 20 0 -5
BITMAP
0380
0300
0600
0400
0000
7380
7380
7380
6300
E700
E700
E720
EF40
FEC0
7F00
1E00
6E00
4C00
7C00
3800
ENDCHAR
STARTCHAR thorn
ENCODING 254
SWIDTH 473 0
DWIDTH 9 0
BBX 11 20 -2 -5
BITMAP
0600
0E00
0E00
0E00
0C00
1FC0
1CE0
1CE0
18E0
38E0
38E0
39C0
39C0
3B80
7F00
7000
7000
7000
E000
C000
ENDCHAR
STARTCHAR ydieresis
ENCODING 255
SWIDTH 505 0
DWIDTH 10 0
BBX 11 19 0 -5
BITMAP
1B00
3B80
0000
0000
7380
7380
7380
6300
E700
E700
E720
EF40
FEC0
7F00
1E00
6E00
4C00
7C00
3800
ENDCHAR
STARTCHAR Amacron
ENCODING 256
SWIDTH 668 0
DWIDTH 13 0
BBX 16 20 0 -2
BITMAP
007F
0000
0000
003C
007C
00D8
01B8
0338
0338
3F38
EEF0
EC70
5C70
1870
1860
38E0
30E0
30E0
3000
3000
ENDCHAR
STARTCHAR amacron
ENCODING 257
SWIDTH 526 0
DWIDTH 11 0
BBX 11 14 0 0
BITMAP
1FC0
0000
0000
0000
1DC0
3B80
7380
E380
E380
E300
E720
E720
FFC0
7380
ENDCHAR
STARTCHAR Abreve
ENCODING 258
SWIDTH 668 0
DWIDTH 13 0
BBX 17 21 0 -2
BITMAP
006180
006300
003E00
000000
003C00
007C00
00D800
01B800
033800
033800
3F3800
EEF000
EC7000
5C7000
187000
186000
38E000
30E000
30E000
300000
300000
ENDCHAR
STARTCHAR abreve
ENCODING 259
SWIDTH 526 0
DWIDTH 11 0
BBX 11 15 0 0
BITMAP
18C0
18C0
0F00
0000
0000
1DC0
3B80
7380
E380
E380
E300
E720
E720
FFC0
7380
ENDCHAR
STARTCHAR Aogonek
ENCODING 260
SWIDTH 668 0
DWIDTH 13 0
BBX 14 19 0 -4
BITMAP
003C
007C
00D8
01B8
0338
0338
3F38
EEF0
EC70
5C70
1870
1860
38E0
30E0
30E0
3080
3180
11A0
00C0
ENDCHAR
STARTCHAR aogonek
ENCODING 261
SWIDTH 526 0
DWIDTH 11 0
BBX 11 14 0 -4
BITMAP
1DC0
3B80
7380
E380
E380
E300
E700
E720
EF20
73C0
0100
0300
0340
0380
ENDCHAR
STARTCHAR Cacute
ENCODING 262
SWIDTH 497 0
DWIDTH 10 0
BBX 11 20 0 0
BITMAP
00E0
00C0
0180
0100
0000
07C0
0E40
1C60
3860
38C0
7000
7000
7000
F000
F000
F000
F020
7040
7F80
3E00
ENDCHAR
STARTCHAR cacute
ENCODING 263
SWIDTH 384 0
DWIDTH 8 0
BBX 9 15 0 0
BITMAP
0380
0300
0200
0600
0000
1E00
3A00
7200
E000
E000
E000
E000
E100
E600
7800
ENDCHAR
STARTCHAR Ccircumflex
ENCODING 264
SWIDTH 497 0
DWIDTH 10 0
BBX 11 20 0 0
BITMAP
0080
0380
06C0
0840
0000
07C0
0E40
1C60
3860
38C0
7000
7000
7000
F000
F000
F000
F020
7040
7F80
3E00
ENDCHAR
STARTCHAR ccircumflex
ENCODING 265
SWIDTH 384 0
DWIDTH 8 0
BBX 8 15 0 0
BITMAP
02
06
0F
31
00
1E
3A
72
E0
E0
E0
E0
E1
E6
78
ENDCHAR
STARTCHAR Cdotaccent
ENCODING 266
SWIDTH 497 0
DWIDTH 10 0
BBX 11 20 0 0
BITMAP
00C0
01E0
00C0
0000
0000
07C0
0E40
1C60
3860
38C0
7000
7000
7000
F000
F000
F000
F020
7040
7F80
3E00
ENDCHAR
STARTCHAR cdotaccent
ENCODING 267
SWIDTH 384 0
DWIDTH 8 0
BBX 8 15 0 0
BITMAP
06
0F
06
00
00
1E
3A
72
E0
E0
E0
E0
E1
E6
78
ENDCHAR
STARTCHAR Ccaron
ENCODING 268
SWIDTH 497 0
DWIDTH 10 0
BBX 12 20 0 0
BITMAP
0230
03C0
0180
0100
0000
07C0
0E40
1C60
3860
38C0
7000
7000
7000
F000
F000
F000
F020
7040
7F80
3E00
ENDCHAR
STARTCHAR ccaron
ENCODING 269
SWIDTH 384 0
DWIDTH 8 0
BBX 10 15 0 0
BITMAP
08C0
0F00
0600
0400
0000
1E00
3A00
7200
E000
E000
E000
E100
E100
FE00
7800
ENDCHAR
STARTCHAR Dcaron
ENCODING 270
SWIDTH 663 0
DWIDTH 13 0
BBX 13 20 0 0
BITMAP
0230
03C0
0180
0100
0000
07C0
1870
6730
6E38
CE38
CE38
CE38
0C38
1C38
1C30
1C70
1C70
38E0
39C0
3F80
ENDCHAR
STARTCHAR dcaron
ENCODING 271
SWIDTH 525 0
DWIDTH 11 0
BBX 14 15 0 0
BITMAP
0018
00DC
01C8
01D8
01C0
1DC0
3B80
7380
E380
E380
E380
E700
E720
EF20
73C0
ENDCHAR
STARTCHAR Dcroat
ENCODING 272
SWIDTH 663 0
DWIDTH 13 0
BBX 13 15 0 0
BITMAP
07C0
1870
6330
6E38
CE38
CE38
CE38
1F38
1C38
1C30
1C70
1C70
38E0
39C0
3F80
ENDCHAR
STARTCHAR dcroat
ENCODING 273
SWIDTH 525 0
DWIDTH 11 0
BBX 12 14 0 0
BITMAP
00C0
01C0
07F0
01C0
1DC0
3B80
7380
E380
E380
E380
E700
E720
EF20
73C0
ENDCHAR
STARTCHAR Emacron
ENCODING 274
SWIDTH 459 0
DWIDTH 9 0
BBX 11 18 0 0
BITMAP
07E0
0800
0000
0780
0CC0
1CC0
18C0
1980
1C00
0E00
3800
7800
7000
F000
F040
F080
7F00
3C00
ENDCHAR
STARTCHAR emacron
ENCODING 275
SWIDTH 384 0
DWIDTH 8 0
BBX 8 14 0 0
BITMAP
3F
00
00
00
1E
3A
72
E6
EC
F8
E0
E1
E6
78
ENDCHAR
STARTCHAR Ebreve
ENCODING 276
SWIDTH 459 0
DWIDTH 9 0
BBX 12 19 0 0
BITMAP
0C30
07C0
0000
0000
0780
0CC0
1CC0
18C0
1980
1C00
0E00
3800
7800
7000
F000
F040
F080
7F00
3C00
ENDCHAR
STARTCHAR ebreve
ENCODING 277
SWIDTH 384 0
DWIDTH 8 0
BBX 9 15 0 0
BITMAP
6180
3300
3E00
0000
0000
1E00
3A00
7200
E600
EC00
F800
E000
E100
E600
7800
ENDCHAR
STARTCHAR Edotaccent
ENCODING 278
SWIDTH 459 0
DWIDTH 9 0
BBX 10 20 0 0
BITMAP
0180
03C0
0180
0000
0000
0780
0CC0
1CC0
18C0
1980
1C00
0E00
3800
7800
7000
F000
F040
F080
7F00
3C00
ENDCHAR
STARTCHAR edotaccent
ENCODING 279
SWIDTH 384 0
DWIDTH 8 0
BBX 8 15 0 0
BITMAP
06
0E
06
00
00
1E
3A
72
E6
EC
F8
E0
E1
E6
78
ENDCHAR
STARTCHAR Eogonek
ENCODING 280
SWIDTH 459 0
DWIDTH 9 0
BBX 10 19 0 -4
BITMAP
0F80
1CC0
38C0
38C0
3980
3800
1E00
3C00
7800
7000
F000
F040
F080
7F80
3E00
0400
0400
0C80
0700
ENDCHAR
STARTCHAR eogonek
ENCODING 281
SWIDTH 384 0
DWIDTH 8 0
BBX 8 14 0 -4
BITMAP
1E
3A
72
E6
EC
F8
E0
E1
FE
7C
18
10
34
18
ENDCHAR
STARTCHAR Ecaron
ENCODING 282
SWIDTH 459 0
DWIDTH 9 0
BBX 12 20 0 0
BITMAP
0230
03C0
0180
0100
0000
0780
0CC0
1CC0
18C0
1980
1C00
0E00
3800
7800
7000
F000
F040
F080
7F00
3C00
ENDCHAR
STARTCHAR ecaron
ENCODING 283
SWIDTH 384 0
DWIDTH 8 0
BBX 10 15 0 0
BITMAP
08C0
0F00
0600
0400
0000
1E00
3A00
7200
E600
EC00
F800
E000
E100
E600
7800
ENDCHAR
STARTCHAR Gcircumflex
ENCODING 284
SWIDTH 578 0
DWIDTH 12 0
BBX 11 24 0 -4
BITMAP
0040
00C0
01C0
0620
0000
07C0
1E60
3C60
7860
7000
7000
F060
E0E0
E0C0
71C0
71C0
3FC0
01C0
0180
3D80
2380
6300
2700
3E00
ENDCHAR
STARTCHAR gcircumflex
ENCODING 285
SWIDTH 507 0
DWIDTH 10 0
BBX 11 20 0 -5
BITMAP
0100
0300
0780
1880
0000
1DC0
3B80
7380
E380
E380
E300
E720
E720
FF40
7780
1E00
3E00
6E00
6C00
3800
ENDCHAR
STARTCHAR Gbreve
ENCODING 286
SWIDTH 578 0
DWIDTH 12 0
BBX 13 23 0 -4
BITMAP
0218
0330
01E0
0000
07C0
1E60
3C60
7860
7060
7000
F000
E0E0
E0E0
70C0
71C0
3FC0
01C0
0180
3D80
2380
6300
2700
3E00
ENDCHAR
STARTCHAR gbreve
ENCODING 287
SWIDTH 507 0
DWIDTH 10 0
BBX 11 20 0 -5
BITMAP
18C0
18C0
0F00
0000
0000
1DC0
3B80
7380
E380
E380
E300
E720
E720
FF40
7780
1E00
3E00
6E00
6C00
3800
ENDCHAR
STARTCHAR Gdotaccent
ENCODING 288
SWIDTH 578 0
DWIDTH 12 0
BBX 11 23 0 -4
BITMAP
01C0
01C0
01C0
0000
07C0
1E60
3C60
7860
7060
7000
F000
E0E0
E0E0
70C0
71C0
3FC0
01C0
0180
3D80
2380
6300
2700
3E00
ENDCHAR
STARTCHAR gdotaccent
ENCODING 289
SWIDTH 507 0
DWIDTH 10 0
BBX 11 20 0 -5
BITMAP
0300
0700
0300
0000
0000
1DC0
3B80
7380
E380
E380
E300
E720
E720
FF40
7780
1E00
3E00
6E00
6C00
3800
ENDCHAR
STARTCHAR Gcommaaccent
ENCODING 290
SWIDTH 578 0
DWIDTH 12 0
BBX 11 20 0 -5
BITMAP
0780
0EC0
1C60
38C0
78C0
7000
7000
F000
F0E0
E0C0
E0C0
F1C0
71C0
7380
3D80
0200
0C00
0C00
0400
0800
ENDCHAR
STARTCHAR gcommaaccent
ENCODING 291
SWIDTH 507 0
DWIDTH 10 0
BBX 11 20 0 -5
BITMAP
0200
0200
0600
0200
0000
1DC0
3B80
7380
E380
E380
E300
E720
E720
FF40
7780
1E00
3E00
6E00
6C00
3800
ENDCHAR
STARTCHAR Hcircumflex
ENCODING 292
SWIDTH 665 0
DWIDTH 13 0
BBX 14 20 0 0
BITMAP
0010
0030
0070
0198
0000
071C
1F1C
6738
6E38
CE38
CE38
4FF8
0C70
1C70
1C70
1C70
1C60
18E0
38E0
38E0
ENDCHAR
STARTCHAR hcircumflex
ENCODING 293
SWIDTH 505 0
DWIDTH 10 0
BBX 12 18 -1 0
BITMAP
0200
0600
1900
2100
1C00
1C00
1C00
3800
3F80
3980
39C0
3180
7380
7380
7380
7390
63A0
E1C0
ENDCHAR
STARTCHAR Hbar
ENCODING 294
SWIDTH 665 0
DWIDTH 13 0
BBX 15 15 0 0
BITMAP
071C
1F1C
6718
6638
DFFE
CE38
4FF8
0C70
1C70
1C70
1C70
1C60
18E0
38E0
38E0
ENDCHAR
STARTCHAR hbar
ENCODING 295
SWIDTH 505 0
DWIDTH 10 0
BBX 12 14 -1 0
BITMAP
0C00
1C00
7F00
1800
3F80
39C0
39C0
3180
7380
7380
7390
73A0
63E0
E1C0
ENDCHAR
STARTCHAR Itilde
ENCODING 296
SWIDTH 375 0
DWIDTH 8 0
BBX 11 19 0 0
BITMAP
0400
1FE0
2380
0000
0F00
1F00
6600
4E00
CE00
CE00
CE00
1C00
1C00
1C00
1C00
1C00
3800
3800
3800
ENDCHAR
STARTCHAR itilde
ENCODING 297
SWIDTH 267 0
DWIDTH 5 0
BBX 6 14 0 0
BITMAP
74
F8
00
00
70
70
70
60
E0
E0
E4
E4
F8
70
ENDCHAR
STARTCHAR Imacron
ENCODING 298
SWIDTH 375 0
DWIDTH 8 0
BBX 10 18 0 0
BITMAP
1FC0
0000
0000
0F00
1F00
6600
4E00
CE00
CE00
CE00
1C00
1C00
1C00
1C00
1C00
3800
3800
3800
ENDCHAR
STARTCHAR imacron
ENCODING 299
SWIDTH 267 0
DWIDTH 5 0
BBX 6 14 0 0
BITMAP
7C
80
00
00
70
70
70
60
E0
E0
E4
E4
F8
70
ENDCHAR
STARTCHAR Ibreve
ENCODING 300
SWIDTH 375 0
DWIDTH 8 0
BBX 11 19 0 0
BITMAP
1860
0CC0
0F80
0000
0F00
1F00
6600
4E00
CE00
CE00
CE00
1C00
1C00
1C00
1C00
1C00
3800
3800
3800
ENDCHAR
STARTCHAR ibreve
ENCODING 301
SWIDTH 267 0
DWIDTH 5 0
BBX 7 15 0 0
BITMAP
46
44
78
00
00
70
70
70
60
E0
E0
E4
E4
F8
70
ENDCHAR
STARTCHAR Iogonek
ENCODING 302
SWIDTH 375 0
DWIDTH 8 0
BBX 8 24 0 -4
BITMAP
1C
0C
0C
0C
00
0F
1F
66
4E
CE
CE
CE
1C
1C
1C
1C
1C
38
38
38
20
60
64
38
ENDCHAR
STARTCHAR iogonek
ENCODING 303
SWIDTH 267 0
DWIDTH 5 0
BBX 7 18 -1 -4
BITMAP
1C
1C
1C
00
38
38
38
30
70
70
72
72
7C
38
40
C0
C8
70
ENDCHAR
STARTCHAR Idotaccent
ENCODING 304
SWIDTH 375 0
DWIDTH 8 0
BBX 9 19 0 0
BITMAP
0300
0380
0300
0000
0F00
1F00
6600
4E00
CE00
CE00
CE00
1C00
1C00
1C00
1C00
1C00
3800
3800
3800
ENDCHAR
STARTCHAR dotlessi
ENCODING 305
SWIDTH 267 0
DWIDTH 5 0
BBX 6 10 0 0
BITMAP
70
70
70
60
E0
E0
E4
E4
F8
70
ENDCHAR
STARTCHAR IJ
ENCODING 306
SWIDTH 663 0
DWIDTH 13 0
BBX 13 19 0 -4
BITMAP
0F18
1F38
6638
4E38
CE38
CE70
CE70
1C70
1C70
1C60
1CE0
18E0
38E0
38E0
3DC0
33C0
31C0
3380
1F00
ENDCHAR
STARTCHAR ij
ENCODING 307
SWIDTH 507 0
DWIDTH 10 0
BBX 11 19 0 -5
BITMAP
39C0
39C0
39C0
0000
71C0
7380
7380
6380
E380
E300
E720
E720
F740
6780
1E00
2E00
4E00
7C00
3800
ENDCHAR
STARTCHAR Jcircumflex
ENCODING 308
SWIDTH 536 0
DWIDTH 11 0
BBX 13 24 0 -4
BITMAP
0010
0030
0070
0188
0000
00F0
03E0
06E0
0CE0
0CE0
0CC0
0DC0
01C0
01C0
01C0
0380
0380
0380
0380
7B80
C700
C700
4600
7C00
ENDCHAR
STARTCHAR jcircumflex
ENCODING 309
SWIDTH 240 0
DWIDTH 5 0
BBX 10 20 -4 -5
BITMAP
0180
0380
0680
0840
0000
0700
0700
0700
0700
0E00
0E00
0E40
0E80
0E80
1F00
3C00
7C00
9C00
B800
7000
ENDCHAR
STARTCHAR Kcommaaccent
ENCODING 310
SWIDTH 601 0
DWIDTH 12 0
BBX 13 20 0 -5
BITMAP
0F18
3730
6660
CEC0
CE80
CF00
4FC0
1CE0
1CE0
1CE0
1CE0
18C0
39C0
39C0
39E0
0000
0600
0600
0200
0400
ENDCHAR
STARTCHAR kcommaaccent
ENCODING 311
SWIDTH 518 0
DWIDTH 10 0
BBX 12 19 -1 -5
BITMAP
1C00
1C00
1C00
3800
38C0
3900
3E00
3F80
7B80
7380
7390
7390
63E0
E1C0
0000
0C00
0C00
0800
0800
ENDCHAR
STARTCHAR kgreenlandic
ENCODING 312
SWIDTH 518 0
DWIDTH 10 0
BBX 12 10 -1 0
BITMAP
38C0
3900
3E00
3F80
7B80
7380
7390
7390
63E0
E1C0
ENDCHAR
STARTCHAR Lacute
ENCODING 313
SWIDTH 379 0
DWIDTH 8 0
BBX 13 25 0 -5
BITMAP
00C0
0180
0180
0300
0000
0F00
3F00
6600
4E00
CE00
CE00
4E00
1C00
1C00
1C00
1C00
1800
3800
3800
3C00
0E00
0380
01F8
00F8
0030
ENDCHAR
STARTCHAR lacute
ENCODING 314
SWIDTH 267 0
DWIDTH 5 0
BBX 7 19 0 0
BITMAP
06
0C
0C
18
00
38
38
38
70
70
70
70
60
E0
E0
E4
E4
F8
70
ENDCHAR
STARTCHAR Lcommaaccent
ENCODING 315
SWIDTH 379 0
DWIDTH 8 0
BBX 13 20 0 -5
BITMAP
0F00
3F00
6600
4E00
CE00
CE00
4E00
1C00
1C00
1C00
1C00
1800
3800
3800
3C00
0E00
3380
31F8
20F8
2030
ENDCHAR
STARTCHAR lcommaaccent
ENCODING 316
SWIDTH 267 0
DWIDTH 5 0
BBX 6 19 0 -5
BITMAP
18
38
38
30
70
70
70
60
E0
E0
E4
E4
F8
70
00
C0
C0
40
80
ENDCHAR
STARTCHAR Lcaron
ENCODING 317
SWIDTH 379 0
DWIDTH 8 0
BBX 13 25 0 -5
BITMAP
0230
0240
0380
0100
0000
0F00
3F00
6600
4E00
CE00
CE00
4E00
1C00
1C00
1C00
1C00
1800
3800
3800
3C00
0E00
0380
01F8
00F8
0030
ENDCHAR
STARTCHAR lcaron
ENCODING 318
SWIDTH 267 0
DWIDTH 5 0
BBX 8 15 0 0
BITMAP
03
0B
3B
3A
30
70
70
70
70
E0
E0
E4
E4
F8
70
ENDCHAR
STARTCHAR Ldot
ENCODING 319
SWIDTH 605 0
DWIDTH 12 0
BBX 13 20 0 -5
BITMAP
0700
1F00
2600
6E00
CE00
CE00
CE00
5C00
1C00
1CE0
1CE0
18E0
3800
3800
3800
0E00
0380
01F8
00F8
0030
ENDCHAR
STARTCHAR ldot
ENCODING 320
SWIDTH 353 0
DWIDTH 7 0
BBX 7 14 0 0
BITMAP
38
38
38
70
70
70
76
6E
E4
E0
E0
E0
F0
60
ENDCHAR
STARTCHAR Lslash
ENCODING 321
SWIDTH 392 0
DWIDTH 8 0
BBX 13 20 0 -5
BITMAP
0F00
3F00
6600
4E00
CE80
CF00
4E00
1C00
3C00
5C00
1C00
1800
3800
3800
3C00
0E00
0380
01F8
00F8
0030
ENDCHAR
STARTCHAR lslash
ENCODING 322
SWIDTH 286 0
DWIDTH 6 0
BBX 7 14 -1 0
BITMAP
0C
1C
1C
18
3A
3C
38
78
F0
70
72
72
7C
38
ENDCHAR
STARTCHAR Nacute
ENCODING 323
SWIDTH 702 0
DWIDTH 14 0
BBX 14 20 0 0
BITMAP
000C
0018
0010
0030
0000
0F0C
370C
670C
CF8C
CF88
CF98
CF98
3998
19D8
19F0
19F0
18F0
30F0
30E0
30E0
ENDCHAR
STARTCHAR nacute
ENCODING 324
SWIDTH 505 0
DWIDTH 10 0
BBX 12 15 -1 0
BITMAP
00C0
0180
0180
0300
0000
3F80
3980
39C0
3180
7380
7380
7390
73A0
63E0
E1C0
ENDCHAR
STARTCHAR Ncommaaccent
ENCODING 325
SWIDTH 668 0
DWIDTH 13 0
BBX 14 20 0 -5
BITMAP
0F0C
370C
670C
CF8C
CF88
CF98
CF98
3998
19D8
19F0
19F0
18F0
30F0
30E0
30E0
0000
0600
0600
0200
0400
ENDCHAR
STARTCHAR ncommaaccent
ENCODING 326
SWIDTH 505 0
DWIDTH 10 0
BBX 12 15 -1 -5
BITMAP
3F80
3980
39C0
3180
7380
7380
7380
7390
63A0
E1C0
0000
1800
1800
0800
1000
ENDCHAR
STARTCHAR Ncaron
ENCODING 327
SWIDTH 668 0
DWIDTH 13 0
BBX 15 20 0 0
BITMAP
0042
004C
0070
0020
0000
0F0C
370C
670C
CF8C
CF88
CF98
CF98
3998
19D8
19F0
19F0
18F0
30F0
30E0
30E0
ENDCHAR
STARTCHAR ncaron
ENCODING 328
SWIDTH 505 0
DWIDTH 10 0
BBX 12 15 -1 0
BITMAP
0440
0580
0700
0200
0000
3F80
3980
39C0
3180
7380
7380
7380
7390
63A0
E1C0
ENDCHAR
STARTCHAR napostrophe
ENCODING 329
SWIDTH 505 0
DWIDTH 10 0
BBX 12 15 -1 0
BITMAP
3000
3000
1000
2000
0000
3F80
3980
39C0
3180
7380
7380
7380
7390
63A0
E1C0
ENDCHAR
STARTCHAR Eng
ENCODING 330
SWIDTH 723 0
DWIDTH 14 0
BBX 14 19 1 -4
BITMAP
0F0C
3F0C
670C
CF0C
CF98
CF98
CF98
3998
19D0
19F0
19F0
10F0
30F0
30E0
30E0
0CE0
0CC0
0CC0
0700
ENDCHAR
STARTCHAR eng
ENCODING 331
SWIDTH 505 0
DWIDTH 10 0
BBX 9 15 -1 -5
BITMAP
3B80
3F80
3980
3180
7380
7380
7380
7380
6300
E700
0F00
1700
2600
2E00
1C00
ENDCHAR
STARTCHAR Omacron
ENCODING 332
SWIDTH 665 0
DWIDTH 13 0
BBX 13 18 0 0
BITMAP
03F0
0400
0000
07E0
1C70
33B8
6638
CE38
DC38
5C38
1C38
3838
3830
3870
3860
38E0
1FC0
0F00
ENDCHAR
STARTCHAR omacron
ENCODING 333
SWIDTH 433 0
DWIDTH 9 0
BBX 11 14 0 0
BITMAP
3F80
0000
0000
0000
1E00
3A00
7320
E7C0
E300
E200
E600
E600
EC00
7800
ENDCHAR
STARTCHAR Obreve
ENCODING 334
SWIDTH 665 0
DWIDTH 13 0
BBX 13 19 0 0
BITMAP
0308
0318
01F0
0000
07E0
1C70
33B8
6638
CE38
DC38
5C38
1C38
3838
3830
3870
3860
38E0
1FC0
0F00
ENDCHAR
STARTCHAR obreve
ENCODING 335
SWIDTH 433 0
DWIDTH 9 0
BBX 11 15 0 0
BITMAP
3080
3180
1F00
0000
0000
1E00
3A00
7320
E7C0
E300
E200
E600
E600
EC00
7800
ENDCHAR
STARTCHAR Ohungarumlaut
ENCODING 336
SWIDTH 665 0
DWIDTH 13 0
BBX 15 20 0 0
BITMAP
006E
004C
00D8
0190
0000
07E0
1C70
33B8
6638
CE38
DC38
5C38
1C38
3838
3830
3870
3860
38E0
1FC0
0F00
ENDCHAR
STARTCHAR ohungarumlaut
ENCODING 337
SWIDTH 433 0
DWIDTH 9 0
BBX 11 15 0 0
BITMAP
0EC0
0D80
0900
1300
0000
1E00
3A00
7320
E7C0
E300
E200
E600
E600
EC00
7800
ENDCHAR
STARTCHAR OE
ENCODING 338
SWIDTH 846 0
DWIDTH 17 0
BBX 18 15 0 0
BITMAP
07FFC0
1CFFC0
373800
6E3800
CE3800
DC3800
DC3800
1C3F00
383800
383000
387000
386000
38E000
1DFE00
0FFE00
ENDCHAR
STARTCHAR oe
ENCODING 339
SWIDTH 663 0
DWIDTH 13 0
BBX 14 10 0 0
BITMAP
1E70
32E8
73C8
E788
E790
E3E0
E384
E784
E7D8
79E0
ENDCHAR
STARTCHAR Racute
ENCODING 340
SWIDTH 601 0
DWIDTH 12 0
BBX 12 20 0 0
BITMAP
0060
00C0
00C0
0180
0000
0FC0
3860
6730
6E30
CE60
CEC0
4FC0
0CE0
1CE0
1CE0
1CE0
18C0
39C0
39C0
39E0
ENDCHAR
STARTCHAR racute
ENCODING 341
SWIDTH 376 0
DWIDTH 8 0
BBX 9 15 -1 0
BITMAP
0180
0300
0200
0600
0000
3B00
3F80
3900
3000
7000
7000
7000
7000
6000
E000
ENDCHAR
STARTCHAR Rcommaaccent
ENCODING 342
SWIDTH 601 0
DWIDTH 12 0
BBX 12 20 0 -5
BITMAP
0FC0
3860
6730
6E30
CE60
CEC0
4FC0
0CE0
1CE0
1CE0
1CE0
18C0
39C0
39C0
39E0
0000
0600
0600
0400
0400
ENDCHAR
STARTCHAR rcommaaccent
ENCODING 343
SWIDTH 376 0
DWIDTH 8 0
BBX 9 15 -1 -5
BITMAP
3B00
3F80
3900
3000
7000
7000
7000
7000
6000
E000
0000
3000
3000
1000
2000
ENDCHAR
STARTCHAR Rcaron
ENCODING 344
SWIDTH 601 0
DWIDTH 12 0
BBX 13 20 0 0
BITMAP
0118
01E0
00C0
0080
0000
0FC0
3860
6730
6E30
CE60
CEC0
4FC0
0CE0
1CE0
1CE0
1CE0
18C0
39C0
39C0
39E0
ENDCHAR
STARTCHAR rcaron
ENCODING 345
SWIDTH 376 0
DWIDTH 8 0
BBX 9 15 -1 0
BITMAP
1980
0B00
0E00
0400
0000
3B00
3F80
3900
3000
7000
7000
7000
7000
6000
E000
ENDCHAR
STARTCHAR Sacute
ENCODING 346
SWIDTH 570 0
DWIDTH 11 0
BBX 10 20 1 0
BITMAP
00C0
0180
0100
0300
0000
0F80
1CC0
38C0
38C0
3980
1C00
1E00
0F00
0780
F380
C380
C380
C380
E700
3C00
ENDCHAR
STARTCHAR sacute
ENCODING 347
SWIDTH 382 0
DWIDTH 8 0
BBX 9 15 -1 0
BITMAP
0180
0300
0300
0600
0200
0E00
1E00
1E00
1E00
2E00
2E00
6E00
CF80
4E00
7C00
ENDCHAR
STARTCHAR Scircumflex
ENCODING 348
SWIDTH 570 0
DWIDTH 11 0
BBX 10 20 1 0
BITMAP
0080
0380
06C0
0840
0000
0F80
1CC0
38C0
38C0
3980
1C00
1E00
0F00
0780
F380
C380
C380
C380
E700
3C00
ENDCHAR
STARTCHAR scircumflex
ENCODING 349
SWIDTH 382 0
DWIDTH 8 0
BBX 9 15 -1 0
BITMAP
0200
0600
0D00
3100
0200
0E00
1E00
1E00
1E00
2E00
2E00
6E00
CF80
4E00
7C00
ENDCHAR
STARTCHAR Scedilla
ENCODING 350
SWIDTH 570 0
DWIDTH 11 0
BBX 10 20 1 -5
BITMAP
0F80
1CC0
38C0
38C0
3980
1C00
1E00
0F00
0780
7380
E380
C380
C380
E700
7E00
1000
1C00
0400
2C00
3800
ENDCHAR
STARTCHAR scedilla
ENCODING 351
SWIDTH 382 0
DWIDTH 8 0
BBX 9 15 -1 -5
BITMAP
0E00
0E00
1E00
1E00
2E00
2E00
6E00
EE80
4F00
7C00
2000
3000
3800
4800
7000
ENDCHAR
STARTCHAR Scaron
ENCODING 352
SWIDTH 570 0
DWIDTH 11 0
BBX 12 20 1 0
BITMAP
0230
03C0
0180
0100
0000
0F80
1CC0
38C0
38C0
3980
1C00
1E00
0F00
0780
F380
C380
C380
C380
E700
3C00
ENDCHAR
STARTCHAR scaron
ENCODING 353
SWIDTH 369 0
DWIDTH 7 0
BBX 10 15 -1 0
BITMAP
08C0
0F00
0600
0400
0200
0E00
1E00
1E00
2E00
2E00
4E00
6E80
8F00
7E00
7800
ENDCHAR
STARTCHAR uni0162
ENCODING 354
SWIDTH 481 0
DWIDTH 10 0
BBX 14 20 0 -5
BITMAP
0FC4
33FC
63FC
C380
C700
C700
C700
0700
0E00
0E00
0E00
0E00
0E00
1C00
1C00
0800
0E00
1600
2600
1C00
ENDCHAR
STARTCHAR uni0163
ENCODING 355
SWIDTH 267 0
DWIDTH 5 0
BBX 7 18 -1 -5
BITMAP
1C
1C
38
3C
38
38
38
70
70
72
72
7C
38
20
70
18
98
70
ENDCHAR
STARTCHAR Tcaron
ENCODING 356
SWIDTH 481 0
DWIDTH 10 0
BBX 14 20 0 0
BITMAP
0210
0160
01C0
0180
0000
0FC4
33FC
63FC
C380
C700
C700
C700
0700
0E00
0E00
0E00
0E00
0E00
1C00
1C00
ENDCHAR
STARTCHAR tcaron
ENCODING 357
SWIDTH 267 0
DWIDTH 5 0
BBX 8 15 0 0
BITMAP
03
03
39
3A
70
78
70
70
70
E0
E0
E4
E4
F8
F0
ENDCHAR
STARTCHAR Tbar
ENCODING 358
SWIDTH 481 0
DWIDTH 10 0
BBX 14 15 0 0
BITMAP
0FC4
33FC
63BC
C300
C700
C700
C700
4700
0700
3FE0
0E00
0E00
0E00
0C00
1C00
ENDCHAR
STARTCHAR tbar
ENCODING 359
SWIDTH 267 0
DWIDTH 5 0
BBX 6 13 0 0
BITMAP
38
38
70
78
70
F8
70
E0
E0
E4
E4
F8
70
ENDCHAR
STARTCHAR Utilde
ENCODING 360
SWIDTH 716 0
DWIDTH 14 0
BBX 15 19 0 0
BITMAP
0020
01FE
0238
0000
0F0E
370E
670E
C70C
CE1C
CE1C
CE1C
0C1C
1C38
1C38
1C38
1C70
1C70
1FE0
0FC0
ENDCHAR
STARTCHAR utilde
ENCODING 361
SWIDTH 505 0
DWIDTH 10 0
BBX 11 14 0 0
BITMAP
1E40
3F80
0000
0000
7380
7380
7380
6300
E700
E700
E720
EF20
FFC0
7380
ENDCHAR
STARTCHAR Umacron
ENCODING 362
SWIDTH 716 0
DWIDTH 14 0
BBX 15 18 0 0
BITMAP
01FC
0000
0000
0F0E
370E
670E
C70C
CE1C
CE1C
CE1C
0C1C
1C38
1C38
1C38
1C70
1C70
1FE0
0FC0
ENDCHAR
STARTCHAR umacron
ENCODING 363
SWIDTH 505 0
DWIDTH 10 0
BBX 11 14 0 0
BITMAP
3F80
0000
0000
0000
7380
7380
7380
6300
E700
E700
E720
EF20
FFC0
7380
ENDCHAR
STARTCHAR Ubreve
ENCODING 364
SWIDTH 716 0
DWIDTH 14 0
BBX 15 19 0 0
BITMAP
0186
00CC
00F8
0000
0F0E
370E
670E
C70C
CE1C
CE1C
CE1C
0C1C
1C38
1C38
1C38
1C70
1C70
1FE0
0FC0
ENDCHAR
STARTCHAR ubreve
ENCODING 365
SWIDTH 505 0
DWIDTH 10 0
BBX 11 15 0 0
BITMAP
30C0
1980
1F00
0000
0000
7380
7380
7380
6300
E700
E700
E720
EF20
FFC0
7380
ENDCHAR
STARTCHAR Uring
ENCODING 366
SWIDTH 716 0
DWIDTH 14 0
BBX 15 19 0 0
BITMAP
0030
0050
0070
0000
0F0E
370E
670E
C70C
CE1C
CE1C
CE1C
0C1C
1C38
1C38
1C38
1C70
1C70
1FE0
0FC0
ENDCHAR
STARTCHAR uring
ENCODING 367
SWIDTH 505 0
DWIDTH 10 0
BBX 11 14 0 0
BITMAP
0600
0A00
0E00
0000
7380
7380
7380
6300
E700
E700
E720
EF20
FFC0
7380
ENDCHAR
STARTCHAR Uhungarumlaut
ENCODING 368
SWIDTH 716 0
DWIDTH 14 0
BBX 16 20 0 0
BITMAP
0037
0026
006C
00C8
0000
0F0E
370E
670E
C70C
CE1C
CE1C
CE1C
0C1C
1C38
1C38
1C38
1C70
1C70
1FE0
0FC0
ENDCHAR
STARTCHAR uhungarumlaut
ENCODING 369
SWIDTH 505 0
DWIDTH 10 0
BBX 11 15 0 0
BITMAP
06C0
0D80
0900
1300
0000
7380
7380
7380
6300
E700
E700
E720
EF20
FFC0
7380
ENDCHAR
STARTCHAR Uogonek
ENCODING 370
SWIDTH 716 0
DWIDTH 14 0
BBX 15 24 0 -4
BITMAP
00C0
0040
0060
0060
0000
0F0E
370E
670E
C70C
CE1C
CE1C
CE1C
0C1C
1C38
1C38
1C38
1C70
1C70
1FE0
0FC0
0200
0600
0640
0780
ENDCHAR
STARTCHAR uogonek
ENCODING 371
SWIDTH 505 0
DWIDTH 10 0
BBX 11 14 0 -4
BITMAP
7380
7380
7380
6300
E700
E700
E720
EF20
FFC0
7380
0200
0600
0640
0780
ENDCHAR
STARTCHAR Wcircumflex
ENCODING 372
SWIDTH 962 0
DWIDTH 19 0
BBX 21 20 0 0
BITMAP
000100
000300
000700
001980
000000
0F0E18
1F0E10
671E30
471E20
C71E20
C73E60
C72E40
072E40
076E80
074E80
074E80
078F00
078F00
078F00
070E00
ENDCHAR
STARTCHAR wcircumflex
ENCODING 373
SWIDTH 661 0
DWIDTH 13 0
BBX 13 15 0 0
BITMAP
0080
0180
03C0
0440
0800
7398
73B8
7388
6308
E718
E710
E730
EF20
FFE0
7780
ENDCHAR
STARTCHAR Ycircumflex
ENCODING 374
SWIDTH 620 0
DWIDTH 12 0
BBX 14 20 0 0
BITMAP
0010
0030
0070
0188
0000
0F0C
1F08
6788
4390
C390
C3B0
C3E0
01E0
01C0
01C0
01C0
03C0
0380
0380
0380
ENDCHAR
STARTCHAR ycircumflex
ENCODING 375
SWIDTH 505 0
DWIDTH 10 0
BBX 11 20 0 -5
BITMAP
0200
0700
0D00
3100
0000
7380
7380
7380
6300
E700
E700
E720
EF40
FEC0
7F00
1E00
6E00
4C00
7C00
3800
ENDCHAR
STARTCHAR Ydieresis
ENCODING 376
SWIDTH 620 0
DWIDTH 12 0
BBX 14 18 0 0
BITMAP
00DC
00D8
0000
0F0C
1F08
6788
4390
C390
C3B0
C3E0
01E0
01C0
01C0
01C0
03C0
0380
0380
0380
ENDCHAR
STARTCHAR Zacute
ENCODING 377
SWIDTH 542 0
DWIDTH 11 0
BBX 11 20 0 0
BITMAP
0060
0040
00C0
0180
0000
1FE0
31C0
31C0
0380
0380
0700
0700
0E00
0E00
1C00
1C00
3800
78C0
70C0
FF80
ENDCHAR
STARTCHAR zacute
ENCODING 378
SWIDTH 428 0
DWIDTH 9 0
BBX 9 15 0 0
BITMAP
0380
0300
0600
0400
0000
3F80
6700
6E00
0E00
1C00
1800
3800
7300
7300
FE00
ENDCHAR
STARTCHAR Zdotaccent
ENCODING 379
SWIDTH 530 0
DWIDTH 11 0
BBX 11 18 0 0
BITMAP
0300
0300
0000
1FE0
31C0
31C0
0380
0380
0700
0700
0E00
0E00
1C00
1C00
3800
78C0
70C0
FF80
ENDCHAR
STARTCHAR zdotaccent
ENCODING 380
SWIDTH 428 0
DWIDTH 9 0
BBX 9 14 0 0
BITMAP
0600
0E00
0000
0000
3F80
6700
6E00
0E00
1C00
1800
3800
7300
7300
FE00
ENDCHAR
STARTCHAR Zcaron
ENCODING 381
SWIDTH 542 0
DWIDTH 11 0
BBX 12 20 0 0
BITMAP
0210
0360
01C0
0100
0000
1FE0
31C0
31C0
0380
0380
0700
0700
0E00
0E00
1C00
1C00
3800
78C0
70C0
FF80
ENDCHAR
STARTCHAR zcaron
ENCODING 382
SWIDTH 428 0
DWIDTH 9 0
BBX 10 15 0 0
BITMAP
08C0
0B00
0600
0400
0000
3F80
6700
6E00
0E00
1C00
1800
3800
7300
7300
FE00
ENDCHAR
STARTCHAR longs
ENCODING 383
SWIDTH 267 0
DWIDTH 5 0
BBX 12 20 -4 -5
BITMAP
01E0
0390
0390
0300
0700
0F00
0700
0700
0600
0E00
0E00
0E00
0E00
0C00
1C00
3C00
DC00
9C00
B800
7000
ENDCHAR
STARTCHAR uni018F
ENCODING 399
SWIDTH 544 0
DWIDTH 11 0
BBX 11 15 0 0
BITMAP
1F00
3FC0
31C0
21E0
00E0
01E0
07E0
1DE0
31C0
71C0
6380
E380
E700
6E00
3C00
ENDCHAR
STARTCHAR florin
ENCODING 402
SWIDTH 267 0
DWIDTH 5 0
BBX 14 20 -5 -5
BITMAP
0038
006C
00EC
01C8
01C0
07F0
0180
0380
0380
0380
0700
0700
0700
0E00
0E00
0E00
0C00
DC00
D800
F000
ENDCHAR
STARTCHAR Ohorn
ENCODING 416
SWIDTH 665 0
DWIDTH 13 0
BBX 14 18 0 0
BITMAP
000C
0004
0004
07EC
1C78
33B8
6638
CE38
DC38
5C38
1C38
3838
3830
3870
3860
38E0
1FC0
0F00
ENDCHAR
STARTCHAR ohorn
ENCODING 417
SWIDTH 439 0
DWIDTH 9 0
BBX 10 13 0 0
BITMAP
0040
00C0
00C0
1E80
3B00
7300
E300
E300
E300
E600
E600
FC00
7800
ENDCHAR
STARTCHAR Uhorn
ENCODING 431
SWIDTH 716 0
DWIDTH 14 0
BBX 17 19 0 0
BITMAP
000080
000180
000080
000180
0F0F00
370E00
670E00
C70C00
CE1C00
CE1C00
CE1C00
0C1C00
1C3800
1C3800
1C3800
1C7000
1C7000
1FE000
0FC000
ENDCHAR
STARTCHAR uhorn
ENCODING 432
SWIDTH 505 0
DWIDTH 10 0
BBX 11 13 0 0
BITMAP
0060
0060
0040
73C0
7380
7380
6300
E700
E700
E720
EF20
FFC0
7380
ENDCHAR
STARTCHAR uni01B7
ENCODING 439
SWIDTH 555 0
DWIDTH 11 0
BBX 12 15 0 0
BITMAP
1FF0
31C0
31C0
0380
0700
0E00
0F00
0380
01C0
01C0
01C0
61C0
C380
6700
3E00
ENDCHAR
STARTCHAR uni01CD
ENCODING 461
SWIDTH 668 0
DWIDTH 13 0
BBX 17 22 0 -2
BITMAP
001080
000B00
000E00
000800
000000
003C00
007C00
00D800
01B800
033800
033800
3F3800
EEF000
EC7000
5C7000
187000
186000
38E000
30E000
30E000
300000
300000
ENDCHAR
STARTCHAR uni01CE
ENCODING 462
SWIDTH 526 0
DWIDTH 11 0
BBX 11 15 0 0
BITMAP
0460
0580
0700
0200
0000
1DC0
3B80
7380
E380
E380
E300
E720
E720
FFC0
7380
ENDCHAR
STARTCHAR uni01CF
ENCODING 463
SWIDTH 375 0
DWIDTH 8 0
BBX 11 20 0 0
BITMAP
0420
02C0
0380
0300
0000
0F00
1F00
6600
4E00
CE00
CE00
CE00
1C00
1C00
1C00
1C00
1C00
3800
3800
3800
ENDCHAR
STARTCHAR uni01D0
ENCODING 464
SWIDTH 267 0
DWIDTH 5 0
BBX 7 15 0 0
BITMAP
22
2C
38
10
00
70
70
70
60
E0
E0
E4
E4
F8
70
ENDCHAR
STARTCHAR uni01D1
ENCODING 465
SWIDTH 665 0
DWIDTH 13 0
BBX 14 20 0 0
BITMAP
008C
0070
0060
0040
0000
07E0
1C70
33B8
6638
CE38
DC38
5C38
1C38
3838
3830
3870
3860
38E0
1FC0
0F00
ENDCHAR
STARTCHAR uni01D2
ENCODING 466
SWIDTH 433 0
DWIDTH 9 0
BBX 11 15 0 0
BITMAP
0880
0B00
0E00
0400
0000
1E00
3A00
7320
E7C0
E300
E200
E600
E600
FC00
7800
ENDCHAR
STARTCHAR uni01D3
ENCODING 467
SWIDTH 716 0
DWIDTH 14 0
BBX 15 20 0 0
BITMAP
0046
0038
0030
0020
0000
0F0E
370E
670E
C70C
CE1C
CE1C
CE1C
0C1C
1C38
1C38
1C38
1C70
1C70
1FE0
0FC0
ENDCHAR
STARTCHAR uni01D4
ENCODING 468
SWIDTH 505 0
DWIDTH 10 0
BBX 11 15 0 0
BITMAP
08C0
0F00
0600
0400
0000
7380
7380
7380
6300
E700
E700
E720
EF20
FFC0
7380
ENDCHAR
STARTCHAR uni01D5
ENCODING 469
SWIDTH 716 0
DWIDTH 14 0
BBX 15 20 0 0
BITMAP
00FE
0000
00CC
00CC
0000
0F0E
370E
670E
C70C
CE1C
CE1C
CE1C
0C1C
1C38
1C38
1C38
1C70
1C70
1FE0
0FC0
ENDCHAR
STARTCHAR uni01D6
ENCODING 470
SWIDTH 505 0
DWIDTH 10 0
BBX 11 17 0 0
BITMAP
1FC0
0000
0000
1980
1B80
0000
0000
7380
7380
7380
6300
E700
E700
E720
EF20
FFC0
7380
ENDCHAR
STARTCHAR uni01D7
ENCODING 471
SWIDTH 716 0
DWIDTH 14 0
BBX 15 20 0 0
BITMAP
0018
01B6
01A6
0040
0000
0F0E
370E
670E
C70C
CE1C
CE1C
CE1C
0C1C
1C38
1C38
1C38
1C70
1C70
1FE0
0FC0
ENDCHAR
STARTCHAR uni01D8
ENCODING 472
SWIDTH 505 0
DWIDTH 10 0
BBX 11 19 0 0
BITMAP
0180
0300
0300
0600
0000
1980
1B80
0000
0000
7380
7380
7380
6300
E700
E700
E720
EF20
FFC0
7380
ENDCHAR
STARTCHAR uni01D9
ENCODING 473
SWIDTH 716 0
DWIDTH 14 0
BBX 15 20 0 0
BITMAP
004C
01F6
01A6
0000
0000
0F0E
370E
670E
C70C
CE1C
CE1C
CE1C
0C1C
1C38
1C38
1C38
1C70
1C70
1FE0
0FC0
ENDCHAR
STARTCHAR uni01DA
ENCODING 474
SWIDTH 505 0
DWIDTH 10 0
BBX 11 18 0 0
BITMAP
0CC0
0700
0600
0400
1980
1B80
0000
0000
7380
7380
7380
6300
E700
E700
E720
EF20
FFC0
7380
ENDCHAR
STARTCHAR uni01DB
ENCODING 475
SWIDTH 716 0
DWIDTH 14 0
BBX 15 20 0 0
BITMAP
0070
01B6
01B6
0030
0000
0F0E
370E
670E
C70C
CE1C
CE1C
CE1C
0C1C
1C38
1C38
1C38
1C70
1C70
1FE0
0FC0
ENDCHAR
STARTCHAR uni01DC
ENCODING 476
SWIDTH 505 0
DWIDTH 10 0
BBX 11 19 0 0
BITMAP
0C00
0C00
0400
0400
0000
1980
1B80
0000
0000
7380
7380
7380
6300
E700
E700
E720
EF20
FFC0
7380
ENDCHAR
STARTCHAR uni01E4
ENCODING 484
SWIDTH 601 0
DWIDTH 12 0
BBX 12 19 0 -4
BITMAP
07C0
1E60
3C60
7860
7060
7000
F000
E0E0
E3F0
70C0
71C0
3FC0
01C0
0180
3D80
2380
6300
2700
3E00
ENDCHAR
STARTCHAR uni01E5
ENCODING 485
SWIDTH 507 0
DWIDTH 10 0
BBX 11 15 0 -5
BITMAP
1DC0
3B80
7380
E380
E380
E300
E720
E720
FF40
7780
0E00
3E00
FF00
6E00
3C00
ENDCHAR
STARTCHAR Gcaron
ENCODING 486
SWIDTH 578 0
DWIDTH 12 0
BBX 13 24 0 -4
BITMAP
0118
00E0
00C0
0080
0000
07C0
1E60
3C60
7860
7060
7000
F000
E0E0
E0E0
70C0
71C0
3FC0
01C0
0180
3D80
2380
6300
2700
3E00
ENDCHAR
STARTCHAR gcaron
ENCODING 487
SWIDTH 507 0
DWIDTH 10 0
BBX 11 20 0 -5
BITMAP
0460
0580
0700
0200
0000
1DC0
3B80
7380
E380
E380
E300
E720
E720
FF40
7780
1E00
3E00
6E00
6C00
3800
ENDCHAR
STARTCHAR uni01E8
ENCODING 488
SWIDTH 601 0
DWIDTH 12 0
BBX 14 20 0 0
BITMAP
0084
0058
0070
0060
0000
0F18
3730
6660
CEC0
CE80
CF00
4FC0
1CE0
1CE0
1CE0
1CE0
18C0
39C0
39C0
39E0
ENDCHAR
STARTCHAR uni01E9
ENCODING 489
SWIDTH 518 0
DWIDTH 10 0
BBX 12 19 -1 0
BITMAP
0210
0160
01C0
0100
0000
1C00
1C00
1C00
3800
38C0
3900
3E00
3F80
7B80
7380
7390
7390
63E0
E1C0
ENDCHAR
STARTCHAR uni01EA
ENCODING 490
SWIDTH 665 0
DWIDTH 13 0
BBX 13 24 0 -4
BITMAP
0300
0300
0100
0180
0000
07E0
1C70
33B8
6638
CE38
DC38
5C38
1C38
3838
3830
3870
3860
38E0
1FC0
0F00
0800
0800
1900
0E00
ENDCHAR
STARTCHAR uni01EB
ENCODING 491
SWIDTH 433 0
DWIDTH 9 0
BBX 11 14 0 -4
BITMAP
1E00
3A00
7320
E7C0
E300
E200
E600
E600
EC00
7800
4000
C000
C800
7000
ENDCHAR
STARTCHAR uni01EE
ENCODING 494
SWIDTH 525 0
DWIDTH 11 0
BBX 12 20 0 0
BITMAP
0230
0240
0380
0100
0000
1FF0
31C0
31C0
0380
0700
0E00
0F00
0380
01C0
01C0
01C0
61C0
C380
6700
3E00
ENDCHAR
STARTCHAR uni01EF
ENCODING 495
SWIDTH 600 0
DWIDTH 12 0
BBX 10 20 0 -5
BITMAP
08C0
0900
0E00
0400
0000
7F00
4600
6E00
1C00
1800
3800
3840
1880
1C80
1F00
1C00
7C00
9C00
B800
7000
ENDCHAR
STARTCHAR uni01F4
ENCODING 500
SWIDTH 578 0
DWIDTH 12 0
BBX 11 24 0 -4
BITMAP
0060
0040
00C0
0180
0000
07C0
1E60
3C60
7860
7000
7000
F060
E0E0
E0C0
71C0
71C0
3FC0
01C0
0180
3D80
2380
6300
2700
3E00
ENDCHAR
STARTCHAR uni01F5
ENCODING 501
SWIDTH 507 0
DWIDTH 10 0
BBX 11 20 0 -5
BITMAP
0380
0300
0200
0600
0000
1DC0
3B80
7380
E380
E380
E300
E720
E720
FF40
7780
1E00
3E00
6E00
6C00
3800
ENDCHAR
STARTCHAR Aringacute
ENCODING 506
SWIDTH 668 0
DWIDTH 13 0
BBX 16 22 0 -2
BITMAP
0003
0006
000C
0014
001C
001C
007C
00D8
01B8
0338
0338
3F38
EEF0
EC70
5C70
1870
1860
38E0
30E0
30E0
3000
3000
ENDCHAR
STARTCHAR aringacute
ENCODING 507
SWIDTH 526 0
DWIDTH 11 0
BBX 11 16 0 0
BITMAP
0180
0300
0700
0500
0700
0000
1DC0
3B80
7380
E380
E380
E300
E720
E720
FFC0
7380
ENDCHAR
STARTCHAR AEacute
ENCODING 508
SWIDTH 764 0
DWIDTH 15 0
BBX 18 22 0 -2
BITMAP
000180
000300
000600
000400
000000
003C40
007FC0
00D800
01B800
033800
023800
3F3800
ECFF00
EC7000
5C7000
187000
386000
38E000
30FF00
30FE00
300000
300000
ENDCHAR
STARTCHAR aeacute
ENCODING 509
SWIDTH 650 0
DWIDTH 13 0
BBX 14 15 0 0
BITMAP
0070
0060
00C0
0080
0000
1EF0
27D8
0398
0390
3F30
F7E0
E704
E708
FF10
73E0
ENDCHAR
STARTCHAR Oslashacute
ENCODING 510
SWIDTH 658 0
DWIDTH 13 0
BBX 13 21 0 -1
BITMAP
0038
0030
0060
0060
0000
0040
07C0
1BB0
76B0
6EB8
DCB8
DD38
1D30
3930
3970
3970
3AE0
3AC0
1F80
0E00
0400
ENDCHAR
STARTCHAR oslashacute
ENCODING 511
SWIDTH 428 0
DWIDTH 9 0
BBX 11 16 -1 -1
BITMAP
01C0
0180
0300
0300
0000
0F60
1D80
3980
7380
7780
7580
7B00
7300
7E00
7C00
8000
ENDCHAR
STARTCHAR uni0200
ENCODING 512
SWIDTH 668 0
DWIDTH 13 0
BBX 14 22 0 -2
BITMAP
01B8
00D8
0048
0064
0000
003C
007C
00D8
01B8
0338
0338
3F38
EEF0
EC70
5C70
1870
1860
38E0
30E0
30E0
3000
3000
ENDCHAR
STARTCHAR uni0201
ENCODING 513
SWIDTH 526 0
DWIDTH 11 0
BBX 11 15 0 0
BITMAP
7600
3200
1B00
0980
0000
1DC0
3B80
7380
E380
E380
E300
E720
E720
FFC0
7380
ENDCHAR
STARTCHAR uni0202
ENCODING 514
SWIDTH 668 0
DWIDTH 13 0
BBX 16 21 0 -2
BITMAP
001E
0073
0063
0000
003C
007C
00D8
01B8
0338
0338
3F38
EEF0
EC70
5C70
1870
1860
38E0
30E0
30E0
3000
3000
ENDCHAR
STARTCHAR uni0203
ENCODING 515
SWIDTH 526 0
DWIDTH 11 0
BBX 11 14 0 0
BITMAP
0F80
1980
30C0
0000
1DC0
3B80
7380
E380
E380
E300
E720
E720
FFC0
7380
ENDCHAR
STARTCHAR uni0204
ENCODING 516
SWIDTH 459 0
DWIDTH 9 0
BBX 10 20 0 0
BITMAP
3700
1B00
0980
0480
0000
0780
0CC0
1CC0
18C0
1980
1C00
0E00
3800
7800
7000
F000
F040
F080
7F00
3C00
ENDCHAR
STARTCHAR uni0205
ENCODING 517
SWIDTH 384 0
DWIDTH 8 0
BBX 8 15 0 0
BITMAP
FC
6C
26
12
00
1E
3A
72
E6
EC
F8
E0
E1
FE
78
ENDCHAR
STARTCHAR uni0206
ENCODING 518
SWIDTH 459 0
DWIDTH 9 0
BBX 11 19 0 0
BITMAP
03C0
0660
0C60
0000
0780
0CC0
1CC0
18C0
1980
1C00
0E00
3800
7800
7000
F000
F040
F080
7F00
3C00
ENDCHAR
STARTCHAR uni0207
ENCODING 519
SWIDTH 384 0
DWIDTH 8 0
BBX 8 14 0 0
BITMAP
1E
33
63
00
1E
3A
72
E6
EC
F8
E0
E1
E6
78
ENDCHAR
STARTCHAR uni0208
ENCODING 520
SWIDTH 375 0
DWIDTH 8 0
BBX 8 20 0 0
BITMAP
7E
32
13
09
00
0F
37
66
4E
CE
CE
4E
1C
1C
1C
1C
1C
38
38
38
ENDCHAR
STARTCHAR uni0209
ENCODING 521
SWIDTH 267 0
DWIDTH 5 0
BBX 8 15 -2 0
BITMAP
DC
6C
26
32
00
1C
1C
1C
18
38
38
39
39
3E
1C
ENDCHAR
STARTCHAR uni020A
ENCODING 522
SWIDTH 375 0
DWIDTH 8 0
BBX 10 19 0 0
BITMAP
0F80
18C0
10C0
0000
0F00
1F00
6600
4E00
CE00
CE00
CE00
1C00
1C00
1C00
1C00
1C00
3800
3800
3800
ENDCHAR
STARTCHAR uni020B
ENCODING 523
SWIDTH 267 0
DWIDTH 5 0
BBX 6 14 0 0
BITMAP
78
CC
8C
00
70
70
70
60
E0
E0
E4
E4
F8
70
ENDCHAR
STARTCHAR uni020C
ENCODING 524
SWIDTH 665 0
DWIDTH 13 0
BBX 13 20 0 0
BITMAP
0D80
06C0
0240
0360
0000
07E0
1C70
33B8
6638
CE38
DC38
5C38
1C38
3838
3830
3870
3860
38E0
1FC0
0F00
ENDCHAR
STARTCHAR uni020D
ENCODING 525
SWIDTH 433 0
DWIDTH 9 0
BBX 11 15 0 0
BITMAP
DC00
6C00
2600
1200
0000
1E00
3A00
7320
E7C0
E300
E200
E600
E600
FC00
7800
ENDCHAR
STARTCHAR uni020E
ENCODING 526
SWIDTH 665 0
DWIDTH 13 0
BBX 13 19 0 0
BITMAP
00F0
0318
0318
0000
07E0
1C70
33B8
6638
CE38
DC38
5C38
1C38
3838
3830
3870
3860
38E0
1FC0
0F00
ENDCHAR
STARTCHAR uni020F
ENCODING 527
SWIDTH 433 0
DWIDTH 9 0
BBX 11 14 0 0
BITMAP
1F00
3300
6180
0000
1E00
3A00
7320
E7C0
E300
E200
E600
E600
EC00
7800
ENDCHAR
STARTCHAR uni0210
ENCODING 528
SWIDTH 601 0
DWIDTH 12 0
BBX 12 20 0 0
BITMAP
3B00
1900
0D80
0480
0000
0FC0
3860
6730
6E30
CE60
CEC0
4FC0
0CE0
1CE0
1CE0
1CE0
18C0
39C0
39C0
39E0
ENDCHAR
STARTCHAR uni0211
ENCODING 529
SWIDTH 376 0
DWIDTH 8 0
BBX 9 15 -1 0
BITMAP
EC00
6400
3600
1200
0000
3B00
3F80
3900
3000
7000
7000
7000
7000
6000
E000
ENDCHAR
STARTCHAR uni0212
ENCODING 530
SWIDTH 601 0
DWIDTH 12 0
BBX 12 19 0 0
BITMAP
03C0
0660
0C20
0000
0FC0
3860
6730
6E30
CE60
CEC0
4FC0
0CE0
1CE0
1CE0
1CE0
18C0
39C0
39C0
39E0
ENDCHAR
STARTCHAR uni0213
ENCODING 531
SWIDTH 376 0
DWIDTH 8 0
BBX 9 14 -1 0
BITMAP
0F00
1980
3080
0000
3B00
3F80
3900
3000
7000
7000
7000
7000
6000
E000
ENDCHAR
STARTCHAR uni0214
ENCODING 532
SWIDTH 716 0
DWIDTH 14 0
BBX 15 20 0 0
BITMAP
0760
0120
01B0
0098
0000
0F0E
370E
670E
C70C
CE1C
CE1C
CE1C
0C1C
1C38
1C38
1C38
1C70
1C70
1FE0
0FC0
ENDCHAR
STARTCHAR uni0215
ENCODING 533
SWIDTH 505 0
DWIDTH 10 0
BBX 11 15 0 0
BITMAP
EC00
6400
3600
1300
0000
7380
7380
7380
6300
E700
E700
E720
EF20
FFC0
7380
ENDCHAR
STARTCHAR uni0216
ENCODING 534
SWIDTH 716 0
DWIDTH 14 0
BBX 15 19 0 0
BITMAP
0078
01CC
018C
0000
0F0E
370E
670E
C70C
CE1C
CE1C
CE1C
0C1C
1C38
1C38
1C38
1C70
1C70
1FE0
0FC0
ENDCHAR
STARTCHAR uni0217
ENCODING 535
SWIDTH 505 0
DWIDTH 10 0
BBX 11 14 0 0
BITMAP
0F00
3180
3180
0000
7380
7380
7380
6300
E700
E700
E720
EF20
FFC0
7380
ENDCHAR
STARTCHAR Scommaaccent
ENCODING 536
SWIDTH 570 0
DWIDTH 11 0
BBX 10 20 1 -5
BITMAP
0F80
1CC0
38C0
38C0
3980
1C00
1E00
0F00
0780
F380
C380
C380
C380
E700
3C00
0000
3000
3000
1000
2000
ENDCHAR
STARTCHAR scommaaccent
ENCODING 537
SWIDTH 382 0
DWIDTH 8 0
BBX 9 15 -1 -5
BITMAP
0E00
1E00
1E00
1E00
2E00
2E00
6E80
CF00
4E00
7C00
0000
3000
3000
1000
2000
ENDCHAR
STARTCHAR uni021A
ENCODING 538
SWIDTH 481 0
DWIDTH 10 0
BBX 14 20 0 -5
BITMAP
0FC4
33FC
63FC
C380
C700
C700
C700
0700
0E00
0E00
0E00
0E00
0E00
1C00
1C00
0000
1800
1800
0800
1000
ENDCHAR
STARTCHAR uni021B
ENCODING 539
SWIDTH 267 0
DWIDTH 5 0
BBX 6 18 0 -5
BITMAP
38
38
70
78
70
70
70
E0
E0
E4
E4
F8
F0
00
C0
C0
40
80
ENDCHAR
STARTCHAR uni021E
ENCODING 542
SWIDTH 665 0
DWIDTH 13 0
BBX 14 20 0 0
BITMAP
0084
0058
0070
0060
0000
071C
1F1C
6738
6E38
CE38
CE38
4FF8
0C70
1C70
1C70
1C70
1C60
18E0
38E0
38E0
ENDCHAR
STARTCHAR uni021F
ENCODING 543
SWIDTH 600 0
DWIDTH 12 0
BBX 12 19 -1 0
BITMAP
0210
0160
01C0
0080
0000
1C00
1C00
1C00
1800
3F80
3980
39C0
3180
7380
7380
7380
7390
63A0
E1C0
ENDCHAR
STARTCHAR uni0237
ENCODING 567
SWIDTH 240 0
DWIDTH 5 0
BBX 10 15 -4 -5
BITMAP
0700
0700
0700
0700
0E00
0E00
0E40
0E80
0E80
1F00
3C00
7C00
9C00
B800
7000
ENDCHAR
STARTCHAR uni0259
ENCODING 601
SWIDTH 404 0
DWIDTH 8 0
BBX 8 10 0 0
BITMAP
3C
4E
07
07
3F
6E
CE
CC
DC
70
ENDCHAR
STARTCHAR uni0292
ENCODING 658
SWIDTH 442 0
DWIDTH 9 0
BBX 10 15 0 -5
BITMAP
7F00
4600
6E00
1C00
1800
3800
3840
1880
1C80
1F00
1C00
7C00
9C00
B800
7000
ENDCHAR
STARTCHAR uni02BB
ENCODING 699
SWIDTH 241 0
DWIDTH 5 0
BBX 3 5 2 10
BITMAP
20
40
60
E0
60
ENDCHAR
STARTCHAR uni02BC
ENCODING 700
SWIDTH 228 0
DWIDTH 5 0
BBX 2 4 3 11
BITMAP
C0
C0
40
80
ENDCHAR
STARTCHAR circumflex
ENCODING 710
SWIDTH 293 0
DWIDTH 6 0
BBX 6 4 0 11
BITMAP
08
18
38
C4
ENDCHAR
STARTCHAR caron
ENCODING 711
SWIDTH 294 0
DWIDTH 6 0
BBX 6 4 2 11
BITMAP
84
98
60
40
ENDCHAR
STARTCHAR uni02C9
ENCODING 713
SWIDTH 421 0
DWIDTH 8 0
BBX 7 1 2 12
BITMAP
FE
ENDCHAR
STARTCHAR uni02CA
ENCODING 714
SWIDTH 256 0
DWIDTH 5 0
BBX 4 4 2 11
BITMAP
30
20
60
C0
ENDCHAR
STARTCHAR uni02CB
ENCODING 715
SWIDTH 274 0
DWIDTH 5 0
BBX 3 4 3 11
BITMAP
C0
40
60
20
ENDCHAR
STARTCHAR breve
ENCODING 728
SWIDTH 431 0
DWIDTH 9 0
BBX 8 2 1 11
BITMAP
C7
7C
ENDCHAR
STARTCHAR dotaccent
ENCODING 729
SWIDTH 250 0
DWIDTH 5 0
BBX 3 3 1 12
BITMAP
60
E0
60
ENDCHAR
STARTCHAR ring
ENCODING 730
SWIDTH 156 0
DWIDTH 3 0
BBX 3 3 0 11
BITMAP
60
A0
E0
ENDCHAR
STARTCHAR ogonek
ENCODING 731
SWIDTH 291 0
DWIDTH 6 0
BBX 4 4 1 -4
BITMAP
60
C0
D0
F0
ENDCHAR
STARTCHAR tilde
ENCODING 732
SWIDTH 403 0
DWIDTH 8 0
BBX 8 2 1 11
BITMAP
7F
FC
ENDCHAR
STARTCHAR hungarumlaut
ENCODING 733
SWIDTH 436 0
DWIDTH 9 0
BBX 7 4 2 11
BITMAP
76
6C
C8
90
ENDCHAR
STARTCHAR gravecomb
ENCODING 768
SWIDTH 0 0
DWIDTH 0 0
BBX 3 4 -4 11
BITMAP
E0
60
60
20
ENDCHAR
STARTCHAR acutecomb
ENCODING 769
SWIDTH 0 0
DWIDTH 0 0
BBX 4 4 -4 11
BITMAP
30
60
40
C0
ENDCHAR
STARTCHAR uni0302
ENCODING 770
SWIDTH 0 0
DWIDTH 0 0
BBX 6 4 -6 11
BITMAP
08
18
3C
C4
ENDCHAR
STARTCHAR tildecomb
ENCODING 771
SWIDTH 0 0
DWIDTH 0 0
BBX 8 2 -7 11
BITMAP
7F
FC
ENDCHAR
STARTCHAR uni0304
ENCODING 772
SWIDTH 0 0
DWIDTH 0 0
BBX 7 1 -6 12
BITMAP
FE
ENDCHAR
STARTCHAR uni0306
ENCODING 774
SWIDTH 0 0
DWIDTH 0 0
BBX 7 2 -6 11
BITMAP
C6
F8
ENDCHAR
STARTCHAR uni0307
ENCODING 775
SWIDTH 0 0
DWIDTH 0 0
BBX 3 3 -2 12
BITMAP
C0
E0
C0
ENDCHAR
STARTCHAR uni0308
ENCODING 776
SWIDTH 0 0
DWIDTH 0 0
BBX 6 2 -5 11
BITMAP
DC
D8
ENDCHAR
STARTCHAR hookabovecomb
ENCODING 777
SWIDTH 0 0
DWIDTH 0 0
BBX 4 4 -5 11
BITMAP
F0
50
10
60
ENDCHAR
STARTCHAR uni030A
ENCODING 778
SWIDTH 0 0
DWIDTH 0 0
BBX 4 3 -3 11
BITMAP
60
D0
60
ENDCHAR
STARTCHAR uni030B
ENCODING 779
SWIDTH 0 0
DWIDTH 0 0
BBX 7 4 -6 11
BITMAP
36
6C
48
98
ENDCHAR
STARTCHAR uni030C
ENCODING 780
SWIDTH 0 0
DWIDTH 0 0
BBX 6 4 -5 11
BITMAP
84
58
70
40
ENDCHAR
STARTCHAR uni030F
ENCODING 783
SWIDTH 0 0
DWIDTH 0 0
BBX 7 4 -7 11
BITMAP
FC
6C
26
12
ENDCHAR
STARTCHAR uni0311
ENCODING 785
SWIDTH 0 0
DWIDTH 0 0
BBX 7 3 -7 11
BITMAP
3C
66
C2
ENDCHAR
STARTCHAR uni031B
ENCODING 795
SWIDTH 0 0
DWIDTH 0 0
BBX 3 4 -2 9
BITMAP
60
40
40
80
ENDCHAR
STARTCHAR dotbelowcomb
ENCODING 803
SWIDTH 0 0
DWIDTH 0 0
BBX 4 3 -4 -5
BITMAP
60
F0
60
ENDCHAR
STARTCHAR uni0324
ENCODING 804
SWIDTH 0 0
DWIDTH 0 0
BBX 6 2 -9 -4
BITMAP
EC
EC
ENDCHAR
STARTCHAR uni0326
ENCODING 806
SWIDTH 0 0
DWIDTH 0 0
BBX 2 4 -5 -5
BITMAP
C0
C0
40
80
ENDCHAR
STARTCHAR uni0327
ENCODING 807
SWIDTH 0 0
DWIDTH 0 0
BBX 4 5 -7 -4
BITMAP
20
40
70
10
F0
ENDCHAR
STARTCHAR uni0328
ENCODING 808
SWIDTH 0 0
DWIDTH 0 0
BBX 4 4 -7 -4
BITMAP
60
C0
D0
F0
ENDCHAR
STARTCHAR uni032E
ENCODING 814
SWIDTH 0 0
DWIDTH 0 0
BBX 6 3 -8 -4
BITMAP
8C
98
F0
ENDCHAR
STARTCHAR uni0331
ENCODING 817
SWIDTH 0 0
DWIDTH 0 0
BBX 7 1 -9 -3
BITMAP
FE
ENDCHAR
STARTCHAR uni0335
ENCODING 821
SWIDTH 0 0
DWIDTH 0 0
BBX 7 1 -8 5
BITMAP
FE
ENDCHAR
STARTCHAR uni0394
ENCODING 916
SWIDTH 619 0
DWIDTH 12 0
BBX 12 15 0 0
BITMAP
00C0
01C0
0160
0360
0660
0660
0C60
0C60
1860
1070
3030
6030
6030
FFF0
FFF0
ENDCHAR
STARTCHAR uni03A9
ENCODING 937
SWIDTH 745 0
DWIDTH 15 0
BBX 13 15 1 0
BITMAP
03E0
0FF0
1C38
3018
3018
6018
6018
6018
6010
6030
6020
2060
30C0
F9F0
F3F0
ENDCHAR
STARTCHAR uni03BC
ENCODING 956
SWIDTH 505 0
DWIDTH 10 0
BBX 12 13 -1 -3
BITMAP
39C0
39C0
39C0
3180
7380
7380
7390
7790
7FE0
F9C0
E000
E000
E000
ENDCHAR
STARTCHAR pi
ENCODING 960
SWIDTH 530 0
DWIDTH 11 0
BBX 11 10 0 0
BITMAP
FFE0
FFC0
2100
6300
6300
4200
4200
C600
C600
C700
ENDCHAR
STARTCHAR uni0400
ENCODING 1024
SWIDTH 459 0
DWIDTH 9 0
BBX 10 20 0 0
BITMAP
0600
0300
0300
0100
0000
0780
0CC0
1CC0
18C0
1980
1C00
0E00
3800
7800
7000
F000
F040
F080
7F00
3C00
ENDCHAR
STARTCHAR uni0401
ENCODING 1025
SWIDTH 459 0
DWIDTH 9 0
BBX 11 18 0 0
BITMAP
06E0
06E0
0000
0780
0CC0
1CC0
18C0
1980
1C00
0E00
3800
7800
7000
F000
F040
F080
7F00
3C00
ENDCHAR
STARTCHAR uni0402
ENCODING 1026
SWIDTH 725 0
DWIDTH 15 0
BBX 15 19 0 -4
BITMAP
0FFE
33FC
6380
C380
C700
C700
47F0
0738
0638
0E38
0E38
0E38
0E30
0C70
1C70
0060
00E0
07C0
0380
ENDCHAR
STARTCHAR uni0403
ENCODING 1027
SWIDTH 400 0
DWIDTH 8 0
BBX 13 20 0 0
BITMAP
0030
0030
0060
00C0
0000
0FF8
37F0
6700
CE00
CE00
CE00
6E00
0C00
1C00
1C00
1C00
1C00
1800
3800
3800
ENDCHAR
STARTCHAR uni0404
ENCODING 1028
SWIDTH 497 0
DWIDTH 10 0
BBX 11 15 0 0
BITMAP
07C0
0E40
1C60
3860
38C0
7000
7F00
7000
F000
F000
F000
F020
70C0
7F80
3E00
ENDCHAR
STARTCHAR uni0405
ENCODING 1029
SWIDTH 570 0
DWIDTH 11 0
BBX 10 15 1 0
BITMAP
0F80
1CC0
38C0
38C0
3980
1C00
1E00
0F00
0780
F380
C380
C380
C380
E700
3C00
ENDCHAR
STARTCHAR uni0406
ENCODING 1030
SWIDTH 374 0
DWIDTH 7 0
BBX 8 15 0 0
BITMAP
07
1F
67
6E
CE
CE
4E
0C
1C
1C
1C
1C
18
38
38
ENDCHAR
STARTCHAR uni0407
ENCODING 1031
SWIDTH 375 0
DWIDTH 8 0
BBX 10 18 0 0
BITMAP
0DC0
0CC0
0000
0F00
1F00
6600
4E00
CE00
CE00
CE00
1C00
1C00
1C00
1C00
1C00
3800
3800
3800
ENDCHAR
STARTCHAR uni0408
ENCODING 1032
SWIDTH 536 0
DWIDTH 11 0
BBX 12 19 0 -4
BITMAP
00F0
03E0
06E0
0CE0
0CE0
0CC0
0DC0
01C0
01C0
01C0
0380
0380
0380
0380
7B80
C700
C700
4600
7C00
ENDCHAR
STARTCHAR uni0409
ENCODING 1033
SWIDTH 817 0
DWIDTH 16 0
BBX 17 17 -1 -2
BITMAP
007800
00F000
017000
027000
067000
0C6000
0CFE00
18E700
38E380
30E380
31C380
71C300
61E700
61FE00
E1DC00
E00000
600000
ENDCHAR
STARTCHAR uni040A
ENCODING 1034
SWIDTH 931 0
DWIDTH 19 0
BBX 18 15 0 0
BITMAP
071C00
1F1C00
673800
6E3800
CE3800
CE3800
4FFF80
0C7380
1C71C0
1C71C0
1C71C0
1C61C0
18F380
38EF80
38EF00
ENDCHAR
STARTCHAR uni040B
ENCODING 1035
SWIDTH 745 0
DWIDTH 15 0
BBX 15 15 0 0
BITMAP
0FFE
33FC
6380
C380
C700
C700
47F0
0738
0638
0E38
0E38
0E38
0E30
0C70
1C38
ENDCHAR
STARTCHAR uni040C
ENCODING 1036
SWIDTH 635 0
DWIDTH 13 0
BBX 14 20 0 0
BITMAP
0030
0030
0060
00C0
0000
0F38
1F7C
67D8
6E80
CF80
CF00
4FC0
0CE0
1CE0
1CE0
1CE0
1CC0
19C0
39C0
38E0
ENDCHAR
STARTCHAR uni040D
ENCODING 1037
SWIDTH 705 0
DWIDTH 14 0
BBX 15 20 0 0
BITMAP
00C0
0040
0040
0060
0000
070E
1F1C
673C
6E3C
CE7C
CE5C
4EF8
0CB8
1DB8
1F38
1E30
1E70
1C70
3C70
3870
ENDCHAR
STARTCHAR uni040E
ENCODING 1038
SWIDTH 644 0
DWIDTH 13 0
BBX 14 19 0 0
BITMAP
00C4
01C8
00F0
0000
0704
1F0C
6788
6398
C390
C390
43F0
01E0
01E0
01C0
00C0
0080
0480
0F00
0E00
ENDCHAR
STARTCHAR uni040F
ENCODING 1039
SWIDTH 665 0
DWIDTH 13 0
BBX 14 22 0 -7
BITMAP
071C
1F1C
6738
6E38
CE38
CE38
4E38
0C70
1C70
1C70
1C70
1C60
18E0
38E0
3FE0
0600
0C00
0E00
0700
0700
0200
0400
ENDCHAR
STARTCHAR uni0410
ENCODING 1040
SWIDTH 668 0
DWIDTH 13 0
BBX 14 17 0 -2
BITMAP
003C
007C
00D8
01B8
0338
0338
3F38
EEF0
EC70
5C70
1870
1860
38E0
30E0
30E0
3000
3000
ENDCHAR
STARTCHAR uni0411
ENCODING 1041
SWIDTH 638 0
DWIDTH 13 0
BBX 13 15 0 0
BITMAP
0FF8
37F0
6E00
CE00
CE00
CE00
4FC0
1CE0
1C70
1C70
1C70
3870
3CE0
3FC0
3B80
ENDCHAR
STARTCHAR uni0412
ENCODING 1042
SWIDTH 641 0
DWIDTH 13 0
BBX 12 15 0 0
BITMAP
07C0
1860
7730
6630
CE60
CEE0
4FE0
0C70
1C70
1C70
1C70
1C70
1A60
3BE0
3BC0
ENDCHAR
STARTCHAR uni0413
ENCODING 1043
SWIDTH 400 0
DWIDTH 8 0
BBX 13 15 0 0
BITMAP
0FF8
37F0
6700
CE00
CE00
CE00
6E00
0C00
1C00
1C00
1C00
1C00
1800
3800
3800
ENDCHAR
STARTCHAR uni0414
ENCODING 1044
SWIDTH 669 0
DWIDTH 13 0
BBX 14 15 -1 0
BITMAP
03E0
1C38
3398
371C
671C
671C
271C
0F1C
0E1C
0E18
3E38
4E38
DC70
5CE0
7BC0
ENDCHAR
STARTCHAR uni0415
ENCODING 1045
SWIDTH 459 0
DWIDTH 9 0
BBX 10 15 0 0
BITMAP
0780
0CC0
1CC0
18C0
1980
1C00
0E00
3800
7800
7000
F000
F040
F080
7F00
3C00
ENDCHAR
STARTCHAR uni0416
ENCODING 1046
SWIDTH 777 0
DWIDTH 16 0
BBX 18 15 -1 0
BITMAP
1C3380
1E77C0
1A7580
02EC00
02E800
02F800
02F000
0FFC00
1DCE00
39CE00
39CE00
39CC00
319C00
739C00
F39E00
ENDCHAR
STARTCHAR uni0417
ENCODING 1047
SWIDTH 525 0
DWIDTH 11 0
BBX 10 15 0 0
BITMAP
0F80
13C0
21C0
21C0
03C0
0380
1E00
0780
0380
0380
0380
E380
C380
C700
7C00
ENDCHAR
STARTCHAR uni0418
ENCODING 1048
SWIDTH 705 0
DWIDTH 14 0
BBX 15 15 0 0
BITMAP
070E
1F1C
673C
6E3C
CE7C
CE5C
4EF8
0CB8
1DB8
1F38
1E30
1E70
1C70
3C70
3870
ENDCHAR
STARTCHAR uni0419
ENCODING 1049
SWIDTH 705 0
DWIDTH 14 0
BBX 15 19 0 0
BITMAP
0184
01C8
01F0
0000
070E
1F1C
673C
6E3C
CE7C
CE5C
4EF8
0CB8
1DB8
1F38
1E30
1E70
1C70
3C70
3870
ENDCHAR
STARTCHAR uni041A
ENCODING 1050
SWIDTH 635 0
DWIDTH 13 0
BBX 14 15 0 0
BITMAP
0F38
1F7C
67D8
6E80
CF80
CF00
4FC0
0CE0
1CE0
1CE0
1CE0
1CC0
19C0
39C0
38E0
ENDCHAR
STARTCHAR uni041B
ENCODING 1051
SWIDTH 549 0
DWIDTH 11 0
BBX 13 17 -1 -2
BITMAP
0078
00F0
0170
0270
0670
0C60
0CE0
18E0
38E0
30E0
30C0
71C0
61C0
61C0
E1C0
E000
6000
ENDCHAR
STARTCHAR uni041C
ENCODING 1052
SWIDTH 787 0
DWIDTH 16 0
BBX 15 15 1 0
BITMAP
0F0E
1F0E
271E
671E
CF3C
CF3C
7F3C
1F7C
175C
37DC
379C
2798
67B8
4738
C738
ENDCHAR
STARTCHAR uni041D
ENCODING 1053
SWIDTH 665 0
DWIDTH 13 0
BBX 14 15 0 0
BITMAP
071C
1F1C
6738
6E38
CE38
CE38
4FF8
0C70
1C70
1C70
1C70
1C60
18E0
38E0
38E0
ENDCHAR
STARTCHAR uni041E
ENCODING 1054
SWIDTH 665 0
DWIDTH 13 0
BBX 13 15 0 0
BITMAP
07E0
1C70
33B8
6638
CE38
DC38
5C38
1C38
3838
3830
3870
3860
38E0
1FC0
0F00
ENDCHAR
STARTCHAR uni041F
ENCODING 1055
SWIDTH 688 0
DWIDTH 14 0
BBX 16 15 0 0
BITMAP
0FC1
3FFF
777E
6638
CE38
CE38
CE38
0E70
1C70
1C70
1C70
1C60
18E0
38E0
38E0
ENDCHAR
STARTCHAR uni0420
ENCODING 1056
SWIDTH 573 0
DWIDTH 11 0
BBX 12 15 0 0
BITMAP
0FC0
18E0
6770
6E30
CE30
CE70
CE60
0CC0
1D80
1E00
1C00
1C00
3800
3800
3800
ENDCHAR
STARTCHAR uni0421
ENCODING 1057
SWIDTH 497 0
DWIDTH 10 0
BBX 11 15 0 0
BITMAP
07C0
0E40
1C60
3860
38C0
7000
7000
7000
F000
F000
F000
F020
7040
7F80
3E00
ENDCHAR
STARTCHAR uni0422
ENCODING 1058
SWIDTH 481 0
DWIDTH 10 0
BBX 14 15 0 0
BITMAP
0FC4
33FC
63FC
C380
C700
C700
C700
0700
0E00
0E00
0E00
0E00
0E00
1C00
1C00
ENDCHAR
STARTCHAR uni0423
ENCODING 1059
SWIDTH 644 0
DWIDTH 13 0
BBX 14 15 0 0
BITMAP
0704
1F0C
6788
6398
C390
C390
43F0
01E0
01E0
01C0
00C0
0080
0480
0F00
0E00
ENDCHAR
STARTCHAR uni0424
ENCODING 1060
SWIDTH 786 0
DWIDTH 16 0
BBX 15 16 0 0
BITMAP
0FE0
18E0
30E0
10C0
07F0
19DC
31CE
618E
638E
E38E
E38E
639C
7738
3FF0
0700
0700
ENDCHAR
STARTCHAR uni0425
ENCODING 1061
SWIDTH 620 0
DWIDTH 12 0
BBX 13 15 0 0
BITMAP
0F18
1F30
6720
47E0
C3C0
C380
C380
0380
03C0
03C0
07C0
05C0
09E0
08E0
10E0
ENDCHAR
STARTCHAR uni0426
ENCODING 1062
SWIDTH 692 0
DWIDTH 14 0
BBX 14 19 0 -4
BITMAP
071C
1F1C
6738
6E38
CE38
CE38
4E30
0C70
1C70
1C70
1C70
1C60
18E0
38E0
3FE0
03E0
00FC
007C
0010
ENDCHAR
STARTCHAR uni0427
ENCODING 1063
SWIDTH 695 0
DWIDTH 14 0
BBX 14 15 0 0
BITMAP
071C
1F1C
271C
6E1C
CE1C
CE18
CE38
2E38
07F8
0030
0070
0070
0070
0070
00E0
ENDCHAR
STARTCHAR uni0428
ENCODING 1064
SWIDTH 906 0
DWIDTH 18 0
BBX 19 15 0 0
BITMAP
0738E0
1F39C0
6739C0
6E39C0
CE71C0
CE71C0
4E7380
0C7380
1C6380
1CE380
1CE300
1CE700
18E700
38C700
3FFF00
ENDCHAR
STARTCHAR uni0429
ENCODING 1065
SWIDTH 934 0
DWIDTH 19 0
BBX 19 19 0 -4
BITMAP
0738E0
1F39C0
6739C0
6E39C0
CE71C0
CE71C0
4E7380
0C7380
1C6380
1CE380
1CE300
1CE700
18E700
38C700
3FE700
01FE00
003FE0
0007E0
000080
ENDCHAR
STARTCHAR uni042A
ENCODING 1066
SWIDTH 714 0
DWIDTH 14 0
BBX 14 15 0 0
BITMAP
0FC0
3380
6380
4380
C380
C700
67F0
0738
0718
061C
0E1C
0E18
0F38
0FF0
1CE0
ENDCHAR
STARTCHAR uni042B
ENCODING 1067
SWIDTH 909 0
DWIDTH 18 0
BBX 19 15 0 0
BITMAP
0700E0
1F00C0
6701C0
6E01C0
CE01C0
CE01C0
4FE180
0C7380
1C7380
1C7380
1C7380
1C7700
1A6700
3BE700
3BC700
ENDCHAR
STARTCHAR uni042C
ENCODING 1068
SWIDTH 640 0
DWIDTH 13 0
BBX 12 15 0 0
BITMAP
0700
1F00
6700
6E00
CE00
CE00
4FE0
0C70
1C70
1C70
1C70
1C70
1A60
3BE0
3BC0
ENDCHAR
STARTCHAR uni042D
ENCODING 1069
SWIDTH 544 0
DWIDTH 11 0
BBX 11 15 0 0
BITMAP
0F80
13C0
21C0
41E0
01E0
01E0
1FE0
01C0
01C0
01C0
4380
C380
C700
CE00
7C00
ENDCHAR
STARTCHAR uni042E
ENCODING 1070
SWIDTH 946 0
DWIDTH 19 0
BBX 19 15 0 0
BITMAP
070F00
1F11C0
673CC0
6E38E0
CE70E0
CE70E0
4FF0E0
0CE0C0
1CE0C0
1CE1C0
1CE1C0
1CE380
18E300
38FE00
387C00
ENDCHAR
STARTCHAR uni042F
ENCODING 1071
SWIDTH 630 0
DWIDTH 13 0
BBX 15 15 -1 0
BITMAP
01F8
070C
0C76
18E6
18E4
18E0
0CE0
0FC0
1DC0
39C0
39C0
31C0
3380
7380
F380
ENDCHAR
STARTCHAR uni0430
ENCODING 1072
SWIDTH 526 0
DWIDTH 11 0
BBX 11 10 0 0
BITMAP
1DC0
3B80
7380
E380
E380
E300
E720
E720
FFC0
7380
ENDCHAR
STARTCHAR uni0431
ENCODING 1073
SWIDTH 430 0
DWIDTH 9 0
BBX 11 15 0 0
BITMAP
0020
1FE0
1FC0
1FC0
0C00
0600
1E00
7300
7300
E300
E300
E200
E600
E400
7800
ENDCHAR
STARTCHAR uni0432
ENCODING 1074
SWIDTH 449 0
DWIDTH 9 0
BBX 11 15 0 0
BITMAP
0E00
1D00
1900
3900
3300
7200
7200
EE60
EF80
E300
E300
E300
E200
E400
7800
ENDCHAR
STARTCHAR uni0433
ENCODING 1075
SWIDTH 375 0
DWIDTH 8 0
BBX 8 10 0 0
BITMAP
3C
4E
8E
9E
3C
78
E0
E1
E6
78
ENDCHAR
STARTCHAR uni0434
ENCODING 1076
SWIDTH 507 0
DWIDTH 10 0
BBX 11 15 0 -5
BITMAP
1DC0
3B80
7380
E380
E380
E300
E720
E720
FF40
7780
1E00
3E00
6E00
6C00
3800
ENDCHAR
STARTCHAR uni0435
ENCODING 1077
SWIDTH 384 0
DWIDTH 8 0
BBX 8 10 0 0
BITMAP
1E
3A
72
E6
EC
F8
E0
E1
E6
78
ENDCHAR
STARTCHAR uni0436
ENCODING 1078
SWIDTH 882 0
DWIDTH 18 0
BBX 19 10 -1 0
BITMAP
3C73C0
2E7740
466640
06EE00
07FC00
06EC00
4EEC20
CCCC20
DDCE40
71C780
ENDCHAR
STARTCHAR uni0437
ENCODING 1079
SWIDTH 498 0
DWIDTH 10 0
BBX 11 15 0 -5
BITMAP
1E00
2700
4700
4780
8700
8700
8E00
3C20
0E40
0F80
0E00
3E00
4E00
5C00
3800
ENDCHAR
STARTCHAR uni0438
ENCODING 1080
SWIDTH 505 0
DWIDTH 10 0
BBX 11 10 0 0
BITMAP
7380
7380
7380
6300
E700
E700
E720
EF20
FFC0
7380
ENDCHAR
STARTCHAR uni0439
ENCODING 1081
SWIDTH 505 0
DWIDTH 10 0
BBX 11 14 0 0
BITMAP
1880
3980
1E00
0000
7380
7380
7380
6300
E700
E700
E720
EF20
FFC0
7380
ENDCHAR
STARTCHAR uni043A
ENCODING 1082
SWIDTH 501 0
DWIDTH 10 0
BBX 12 10 -1 0
BITMAP
38C0
39E0
3A00
3600
7F80
7380
7390
73A0
63E0
E3C0
ENDCHAR
STARTCHAR uni043B
ENCODING 1083
SWIDTH 558 0
DWIDTH 11 0
BBX 13 10 -1 0
BITMAP
03E0
02E0
04E0
04C0
04C0
0DC0
49C8
E9C8
D9F0
70E0
ENDCHAR
STARTCHAR uni043C
ENCODING 1084
SWIDTH 827 0
DWIDTH 17 0
BBX 18 10 -1 0
BITMAP
018780
038700
058F00
058F00
059700
099600
49EE40
E9EE40
D9CF80
71C700
ENDCHAR
STARTCHAR uni043D
ENCODING 1085
SWIDTH 507 0
DWIDTH 10 0
BBX 12 10 -1 0
BITMAP
39C0
39C0
39C0
31C0
7F80
7380
7380
7390
63A0
E1C0
ENDCHAR
STARTCHAR uni043E
ENCODING 1086
SWIDTH 439 0
DWIDTH 9 0
BBX 11 10 0 0
BITMAP
1E00
3A00
7320
E7C0
E300
E300
E200
E600
EC00
7800
ENDCHAR
STARTCHAR uni043F
ENCODING 1087
SWIDTH 505 0
DWIDTH 10 0
BBX 12 10 -1 0
BITMAP
3F80
3980
39C0
3180
7380
7380
7380
7390
63A0
E1C0
ENDCHAR
STARTCHAR uni0440
ENCODING 1088
SWIDTH 468 0
DWIDTH 9 0
BBX 11 16 -2 -5
BITMAP
0C00
1FC0
1CE0
1CE0
18E0
38E0
38E0
39C0
39C0
3F80
7F00
7000
7000
7000
E000
C000
ENDCHAR
STARTCHAR uni0441
ENCODING 1089
SWIDTH 384 0
DWIDTH 8 0
BBX 8 10 0 0
BITMAP
1E
3A
72
E0
E0
E0
E0
E1
E6
78
ENDCHAR
STARTCHAR uni0442
ENCODING 1090
SWIDTH 752 0
DWIDTH 15 0
BBX 17 10 -1 0
BITMAP
3FBC00
39CC00
39CE00
338C00
739C00
739C00
739C00
739C80
671D00
E70E00
ENDCHAR
STARTCHAR uni0443
ENCODING 1091
SWIDTH 486 0
DWIDTH 10 0
BBX 11 15 0 -5
BITMAP
7380
7380
7380
6300
E700
E700
E720
EF40
FEC0
7F00
1E00
6E00
4C00
7C00
3800
ENDCHAR
STARTCHAR uni0444
ENCODING 1092
SWIDTH 738 0
DWIDTH 15 0
BBX 14 19 0 -5
BITMAP
00C0
01C0
01C0
0180
1DB8
3BDC
739C
E39C
E31C
E71C
E738
E738
FFF0
77E0
0E00
0E00
0E00
0C00
1800
ENDCHAR
STARTCHAR uni0445
ENCODING 1093
SWIDTH 522 0
DWIDTH 10 0
BBX 11 11 0 0
BITMAP
00C0
1CC0
2E40
4E80
4F80
8F00
8600
8E00
1720
2740
4380
ENDCHAR
STARTCHAR uni0446
ENCODING 1094
SWIDTH 535 0
DWIDTH 11 0
BBX 10 15 0 -5
BITMAP
7380
7380
7380
6300
E700
E700
E700
EF00
FFC0
7380
0080
0F80
3F00
3E00
2000
ENDCHAR
STARTCHAR uni0447
ENCODING 1095
SWIDTH 505 0
DWIDTH 10 0
BBX 11 10 0 0
BITMAP
7380
7380
7380
6300
E700
7F00
7720
0720
07C0
0780
ENDCHAR
STARTCHAR uni0448
ENCODING 1096
SWIDTH 752 0
DWIDTH 15 0
BBX 16 10 0 0
BITMAP
739C
739C
739C
6338
E738
E738
E739
EF7A
FFFE
73BC
ENDCHAR
STARTCHAR uni0449
ENCODING 1097
SWIDTH 782 0
DWIDTH 16 0
BBX 14 15 0 -5
BITMAP
739C
739C
739C
6338
E738
E738
E738
EF78
FFFC
73BC
0004
00FC
01F8
01F0
0200
ENDCHAR
STARTCHAR uni044A
ENCODING 1098
SWIDTH 448 0
DWIDTH 9 0
BBX 8 10 0 0
BITMAP
7C
D8
D0
3E
67
E3
E7
E7
EE
78
ENDCHAR
STARTCHAR uni044B
ENCODING 1099
SWIDTH 655 0
DWIDTH 13 0
BBX 14 10 0 0
BITMAP
7030
7070
71F0
6E60
E260
E2E0
E6E4
E6E8
FCF8
7870
ENDCHAR
STARTCHAR uni044C
ENCODING 1100
SWIDTH 448 0
DWIDTH 9 0
BBX 8 10 0 0
BITMAP
70
70
70
7E
F7
E3
E7
E7
FE
78
ENDCHAR
STARTCHAR uni044D
ENCODING 1101
SWIDTH 413 0
DWIDTH 8 0
BBX 8 10 -1 0
BITMAP
1E
27
47
07
1F
07
C7
CE
CC
78
ENDCHAR
STARTCHAR uni044E
ENCODING 1102
SWIDTH 675 0
DWIDTH 14 0
BBX 17 10 -1 0
BITMAP
387800
39C800
39C880
3B9F00
7F8800
738800
771800
771000
63B000
E1E000
ENDCHAR
STARTCHAR uni044F
ENCODING 1103
SWIDTH 527 0
DWIDTH 11 0
BBX 12 10 -1 0
BITMAP
0FE0
1CC0
39C0
39C0
39C0
1F80
0980
EB90
DBE0
71C0
ENDCHAR
STARTCHAR uni0450
ENCODING 1104
SWIDTH 384 0
DWIDTH 8 0
BBX 8 15 0 0
BITMAP
18
08
0C
0C
00
1E
3A
72
E6
EC
F8
E0
E1
E6
78
ENDCHAR
STARTCHAR uni0451
ENCODING 1105
SWIDTH 384 0
DWIDTH 8 0
BBX 8 13 0 0
BITMAP
3B
1B
00
1E
3A
72
E6
EC
F8
E0
E1
E6
78
ENDCHAR
STARTCHAR uni0452
ENCODING 1106
SWIDTH 491 0
DWIDTH 10 0
BBX 12 19 -1 -5
BITMAP
1C00
1C00
1C00
7F00
3800
3800
3F80
3B80
7380
7380
7390
73A0
6320
E7C0
0F00
1700
2600
2E00
1C00
ENDCHAR
STARTCHAR uni0453
ENCODING 1107
SWIDTH 375 0
DWIDTH 8 0
BBX 8 15 0 0
BITMAP
03
02
06
0C
00
3C
4E
8E
9E
3C
78
E0
E1
E6
78
ENDCHAR
STARTCHAR uni0454
ENCODING 1108
SWIDTH 384 0
DWIDTH 8 0
BBX 8 10 0 0
BITMAP
1E
3A
72
E0
FC
E0
E0
E1
E6
78
ENDCHAR
STARTCHAR uni0455
ENCODING 1109
SWIDTH 382 0
DWIDTH 8 0
BBX 9 10 -1 0
BITMAP
0E00
1E00
1E00
1E00
2E00
2E00
6E80
CF00
4E00
7C00
ENDCHAR
STARTCHAR uni0456
ENCODING 1110
SWIDTH 267 0
DWIDTH 5 0
BBX 6 14 0 0
BITMAP
38
38
38
00
70
70
70
60
E0
E0
E4
E4
F8
70
ENDCHAR
STARTCHAR uni0457
ENCODING 1111
SWIDTH 267 0
DWIDTH 5 0
BBX 6 14 0 0
BITMAP
6C
EC
00
00
70
70
70
60
E0
E0
E4
E4
F8
70
ENDCHAR
STARTCHAR uni0458
ENCODING 1112
SWIDTH 240 0
DWIDTH 5 0
BBX 10 19 -4 -5
BITMAP
0300
0380
0300
0000
0700
0700
0700
0700
0E00
0E00
0E40
0E80
0E80
1F00
3C00
7C00
9C00
B800
7000
ENDCHAR
STARTCHAR uni0459
ENCODING 1113
SWIDTH 745 0
DWIDTH 15 0
BBX 15 10 -1 0
BITMAP
03E0
02E0
04E0
04FC
04EE
0DCE
09CE
E9CE
D9DC
70F0
ENDCHAR
STARTCHAR uni045A
ENCODING 1114
SWIDTH 694 0
DWIDTH 14 0
BBX 14 10 -1 0
BITMAP
39C0
39C0
39C0
31F8
7FDC
739C
739C
739C
63B8
E1E0
ENDCHAR
STARTCHAR uni045B
ENCODING 1115
SWIDTH 505 0
DWIDTH 10 0
BBX 12 14 -1 0
BITMAP
1C00
1C00
1C00
7F00
3800
3800
3F80
3B80
7380
7380
7380
7390
63A0
E1C0
ENDCHAR
STARTCHAR uni045C
ENCODING 1116
SWIDTH 501 0
DWIDTH 10 0
BBX 12 15 -1 0
BITMAP
00C0
0180
0100
0300
0000
38C0
39E0
3A00
3600
7F80
7380
7390
73A0
63E0
E3C0
ENDCHAR
STARTCHAR uni045D
ENCODING 1117
SWIDTH 505 0
DWIDTH 10 0
BBX 11 15 0 0
BITMAP
1C00
0C00
0C00
0400
0000
7380
7380
7380
6300
E700
E700
E720
EF20
FFC0
7380
ENDCHAR
STARTCHAR uni045E
ENCODING 1118
SWIDTH 486 0
DWIDTH 10 0
BBX 11 19 0 -5
BITMAP
1880
3980
1E00
0000
7380
7380
7380
6300
E700
E700
E720
EF40
FEC0
7F00
1E00
6E00
4C00
7C00
3800
ENDCHAR
STARTCHAR uni045F
ENCODING 1119
SWIDTH 505 0
DWIDTH 10 0
BBX 11 15 0 -5
BITMAP
7380
7380
7380
6300
E700
E700
E720
EF20
FFC0
7380
0800
1800
1C00
0C00
0800
ENDCHAR
STARTCHAR uni0462
ENCODING 1122
SWIDTH 659 0
DWIDTH 13 0
BBX 12 15 0 0
BITMAP
0700
0700
0600
3FF0
EFF0
CE00
CFC0
1CE0
1C70
1C70
1C70
1870
3CE0
3BE0
3B80
ENDCHAR
STARTCHAR uni0463
ENCODING 1123
SWIDTH 692 0
DWIDTH 14 0
BBX 14 10 -1 0
BITMAP
3F80
3980
39C0
31F8
739C
739C
739C
7398
63B8
E1E0
ENDCHAR
STARTCHAR uni046A
ENCODING 1130
SWIDTH 834 0
DWIDTH 17 0
BBX 15 15 1 0
BITMAP
0FFE
3F04
6788
C390
C3B0
C1E0
0FFC
39CC
39CE
318C
339C
739C
739C
739C
E71C
ENDCHAR
STARTCHAR uni046B
ENCODING 1131
SWIDTH 750 0
DWIDTH 15 0
BBX 12 10 1 0
BITMAP
3FF0
6E20
C640
4780
3FE0
3770
7770
7770
6660
EE70
ENDCHAR
STARTCHAR uni0472
ENCODING 1138
SWIDTH 665 0
DWIDTH 13 0
BBX 13 15 0 0
BITMAP
07E0
1C70
33B8
6638
CE38
DC38
5C38
1FF8
3C38
3830
3870
3860
38E0
1DC0
0F00
ENDCHAR
STARTCHAR uni0473
ENCODING 1139
SWIDTH 439 0
DWIDTH 9 0
BBX 11 10 0 0
BITMAP
1E00
3B00
7320
E7C0
EB00
FE00
E600
E600
FC00
7800
ENDCHAR
STARTCHAR uni0474
ENCODING 1140
SWIDTH 668 0
DWIDTH 13 0
BBX 15 15 0 0
BITMAP
0F0E
1F1C
6718
4730
C730
C720
C760
0760
0740
0740
07C0
0780
0780
0780
0700
ENDCHAR
STARTCHAR uni0475
ENCODING 1141
SWIDTH 414 0
DWIDTH 8 0
BBX 8 10 0 0
BITMAP
73
77
71
61
E3
E2
E6
E4
FC
70
ENDCHAR
STARTCHAR uni0490
ENCODING 1168
SWIDTH 431 0
DWIDTH 9 0
BBX 13 17 0 0
BITMAP
0008
0018
0FF8
3FF0
6E00
CE00
CE00
CE00
4C00
1C00
1C00
1C00
1C00
1800
3800
3800
3800
ENDCHAR
STARTCHAR uni0491
ENCODING 1169
SWIDTH 342 0
DWIDTH 7 0
BBX 9 12 -1 0
BITMAP
0100
0180
3F00
3800
3800
3000
7000
7000
7000
7000
6000
E000
ENDCHAR
STARTCHAR uni0492
ENCODING 1170
SWIDTH 400 0
DWIDTH 8 0
BBX 13 15 0 0
BITMAP
0FF8
37F0
6700
EE00
CE00
CE00
4E00
2E00
3F80
1C00
1C00
1C00
1800
3800
3800
ENDCHAR
STARTCHAR uni0493
ENCODING 1171
SWIDTH 375 0
DWIDTH 8 0
BBX 8 10 0 0
BITMAP
3C
4E
8E
1C
FE
70
E1
E2
E4
78
ENDCHAR
STARTCHAR uni0494
ENCODING 1172
SWIDTH 665 0
DWIDTH 13 0
BBX 13 16 0 -1
BITMAP
0FF8
37F0
6700
6E00
CE00
CE00
4FE0
2E70
1C70
1C30
1C30
1C70
1870
3860
3BE0
0380
ENDCHAR
STARTCHAR uni0495
ENCODING 1173
SWIDTH 486 0
DWIDTH 10 0
BBX 12 15 -1 -5
BITMAP
3FC0
3F80
3800
3700
7F80
7380
7390
7320
6340
E780
0F00
1700
2600
2E00
3C00
ENDCHAR
STARTCHAR uni0496
ENCODING 1174
SWIDTH 777 0
DWIDTH 16 0
BBX 18 21 -1 -6
BITMAP
1C3380
1E77C0
1A7580
02EC00
02E800
02F800
02F000
0FFC00
1DCE00
39CE00
39CE00
39CC00
319C00
739C00
F39E00
001800
001800
001C00
000C00
000C00
000800
ENDCHAR
STARTCHAR uni0497
ENCODING 1175
SWIDTH 882 0
DWIDTH 18 0
BBX 19 15 -1 -5
BITMAP
3C73C0
2E7740
466640
06EE00
07FC00
06EC00
4EEC20
CCCC20
DDCEC0
71C780
000200
000700
000700
000300
000200
ENDCHAR
STARTCHAR uni0498
ENCODING 1176
SWIDTH 525 0
DWIDTH 11 0
BBX 10 21 0 -6
BITMAP
0F80
13C0
21C0
21C0
03C0
0380
1E00
0780
0380
0380
0380
E380
C380
C700
7C00
1800
1800
1C00
1C00
0C00
0800
ENDCHAR
STARTCHAR uni0499
ENCODING 1177
SWIDTH 498 0
DWIDTH 10 0
BBX 11 20 0 -10
BITMAP
1E00
2700
4700
4780
8700
8700
8E00
3C20
0E40
0F80
0E00
3E00
4E00
7C00
3800
2000
3000
3000
3000
2000
ENDCHAR
STARTCHAR uni049A
ENCODING 1178
SWIDTH 635 0
DWIDTH 13 0
BBX 14 21 0 -6
BITMAP
0718
1F7C
2778
6EC0
CE80
CF00
CF00
4FC0
1CE0
1CE0
1CE0
1CE0
18C0
39C0
39E0
0080
01C0
01C0
00E0
0040
00C0
ENDCHAR
STARTCHAR uni049B
ENCODING 1179
SWIDTH 501 0
DWIDTH 10 0
BBX 12 15 -1 -5
BITMAP
38C0
39E0
3A00
3600
7F80
7380
7390
73A0
63E0
E3C0
0100
0180
0180
0180
0100
ENDCHAR
STARTCHAR uni049C
ENCODING 1180
SWIDTH 721 0
DWIDTH 14 0
BBX 15 15 0 0
BITMAP
070E
1F1E
6736
6E20
CEC0
CF40
4FE0
0D70
1D70
1C70
1C70
1C60
18E0
38E0
38F0
ENDCHAR
STARTCHAR uni049D
ENCODING 1181
SWIDTH 551 0
DWIDTH 11 0
BBX 13 10 -1 0
BITMAP
3870
38F0
3D00
3F80
77C0
79C0
79C0
79D8
61F0
E1E0
ENDCHAR
STARTCHAR uni04A0
ENCODING 1184
SWIDTH 691 0
DWIDTH 14 0
BBX 15 15 0 0
BITMAP
0F8C
33BE
63A4
C340
C7C0
C780
47E0
0770
0E70
0E70
0E70
0E70
0E60
1CE0
1C70
ENDCHAR
STARTCHAR uni04A1
ENCODING 1185
SWIDTH 676 0
DWIDTH 14 0
BBX 14 10 0 0
BITMAP
3F38
6678
CED8
CE80
CFE0
0EE0
1C64
1CE4
1CF8
1C70
ENDCHAR
STARTCHAR uni04A2
ENCODING 1186
SWIDTH 665 0
DWIDTH 13 0
BBX 14 18 0 -3
BITMAP
071C
1F1C
6738
6E38
CE38
CE38
4FF0
0C70
1C70
1C70
1C70
1C60
18E0
38E0
38F0
003C
003C
0018
ENDCHAR
STARTCHAR uni04A3
ENCODING 1187
SWIDTH 507 0
DWIDTH 10 0
BBX 12 15 -1 -5
BITMAP
39C0
39C0
39C0
3180
7F80
7380
7390
7390
63E0
E1C0
0100
0180
0180
0180
0100
ENDCHAR
STARTCHAR uni04A4
ENCODING 1188
SWIDTH 689 0
DWIDTH 14 0
BBX 19 15 0 0
BITMAP
0F1FE0
171FC0
673800
4E3800
CE3800
CE3800
4FF000
0C7000
1C7000
1C7000
1C7000
1C6000
18E000
38E000
38E000
ENDCHAR
STARTCHAR uni04A5
ENCODING 1189
SWIDTH 681 0
DWIDTH 14 0
BBX 15 10 -1 0
BITMAP
39FE
39FE
39C0
3180
7F80
7380
7390
7390
63E0
E1C0
ENDCHAR
STARTCHAR uni04AA
ENCODING 1194
SWIDTH 497 0
DWIDTH 10 0
BBX 11 21 0 -6
BITMAP
07C0
0E40
1C60
3860
38C0
7000
7000
7000
F000
F000
F000
F020
7040
7F80
3E00
0800
1C00
0E00
0E00
0400
0800
ENDCHAR
STARTCHAR uni04AB
ENCODING 1195
SWIDTH 384 0
DWIDTH 8 0
BBX 8 15 0 -5
BITMAP
1E
3A
72
E0
E0
E0
E1
E1
FE
78
20
30
30
30
20
ENDCHAR
STARTCHAR uni04AE
ENCODING 1198
SWIDTH 620 0
DWIDTH 12 0
BBX 14 15 0 0
BITMAP
0F0C
1F08
6788
4390
C390
C3B0
C3E0
01E0
01C0
01C0
01C0
03C0
0380
0380
0380
ENDCHAR
STARTCHAR uni04AF
ENCODING 1199
SWIDTH 480 0
DWIDTH 10 0
BBX 8 15 1 -5
BITMAP
E3
E7
E1
E1
E2
62
74
74
78
70
70
70
60
E0
C0
ENDCHAR
STARTCHAR uni04B0
ENCODING 1200
SWIDTH 620 0
DWIDTH 12 0
BBX 14 15 0 0
BITMAP
0F0C
1F08
6788
4390
C390
C3B0
C3E0
01E0
01C0
07F0
01C0
03C0
0380
0380
0380
ENDCHAR
STARTCHAR uni04B1
ENCODING 1201
SWIDTH 480 0
DWIDTH 10 0
BBX 9 15 0 -5
BITMAP
7180
7380
7080
7080
7100
3100
3A00
3A00
3C00
FE00
3800
3800
3000
7000
6000
ENDCHAR
STARTCHAR uni04B6
ENCODING 1206
SWIDTH 695 0
DWIDTH 14 0
BBX 15 18 0 -3
BITMAP
071C
1F1C
271C
6E1C
CE1C
CE18
CE38
2E38
07F8
0030
0070
0070
0070
0070
00F0
003E
001E
001C
ENDCHAR
STARTCHAR uni04B7
ENCODING 1207
SWIDTH 505 0
DWIDTH 10 0
BBX 11 15 0 -5
BITMAP
7380
7380
7380
6300
E700
7F00
7720
0720
07C0
0780
0200
0300
0300
0300
0200
ENDCHAR
STARTCHAR uni04B8
ENCODING 1208
SWIDTH 715 0
DWIDTH 14 0
BBX 15 15 0 0
BITMAP
070E
1F0E
271C
6E1C
CE1C
CE1C
4E9C
0FF8
07F8
00B8
0138
0030
0070
0070
0070
ENDCHAR
STARTCHAR uni04B9
ENCODING 1209
SWIDTH 545 0
DWIDTH 11 0
BBX 12 10 0 0
BITMAP
71C0
71C0
7180
6F80
EB80
7F80
7B90
0B20
13E0
0380
ENDCHAR
STARTCHAR uni04BA
ENCODING 1210
SWIDTH 679 0
DWIDTH 14 0
BBX 12 15 0 0
BITMAP
0700
1F00
6700
6E00
CE00
CE00
4FE0
0E70
1C30
1C30
1C70
1C70
1870
3870
38E0
ENDCHAR
STARTCHAR uni04BB
ENCODING 1211
SWIDTH 505 0
DWIDTH 10 0
BBX 12 14 -1 0
BITMAP
1C00
1C00
1C00
1800
3F80
3980
39C0
3180
7380
7380
7380
7390
63A0
E1C0
ENDCHAR
STARTCHAR uni04C0
ENCODING 1216
SWIDTH 375 0
DWIDTH 8 0
BBX 8 15 0 0
BITMAP
0F
1F
66
4E
CE
CE
CE
1C
1C
1C
1C
1C
38
38
38
ENDCHAR
STARTCHAR uni04C1
ENCODING 1217
SWIDTH 777 0
DWIDTH 16 0
BBX 18 19 -1 0
BITMAP
00C600
00CC00
00F800
000000
1C3380
1E77C0
1A7580
02EC00
02E800
02F800
02F000
0FFC00
1DCE00
39CE00
39CE00
39CC00
319C00
739C00
F39E00
ENDCHAR
STARTCHAR uni04C2
ENCODING 1218
SWIDTH 882 0
DWIDTH 18 0
BBX 19 14 -1 0
BITMAP
00C400
00CC00
00F800
000000
3C73C0
2E7740
466640
06EE00
07FC00
06EC00
4EEC20
CCCC20
DDCE40
71C780
ENDCHAR
STARTCHAR uni04CB
ENCODING 1227
SWIDTH 695 0
DWIDTH 14 0
BBX 14 17 0 -2
BITMAP
071C
1F1C
671C
6E1C
CE1C
CE38
4E38
0FF8
07B8
0030
0070
0070
0070
0070
11E0
0F80
0E00
ENDCHAR
STARTCHAR uni04CC
ENCODING 1228
SWIDTH 516 0
DWIDTH 10 0
BBX 11 15 0 -5
BITMAP
7380
7380
7380
7380
7700
7F00
7F20
0720
07C0
0780
0200
1E00
7E00
7C00
C000
ENDCHAR
STARTCHAR uni04CF
ENCODING 1231
SWIDTH 267 0
DWIDTH 5 0
BBX 6 14 0 0
BITMAP
18
38
38
30
70
70
70
60
E0
E0
E4
E4
F8
70
ENDCHAR
STARTCHAR uni04D0
ENCODING 1232
SWIDTH 668 0
DWIDTH 13 0
BBX 16 21 0 -2
BITMAP
0031
0073
003C
0000
003C
007C
00D8
01B8
0338
0338
3F38
EEF0
EC70
5C70
1870
1860
38E0
30E0
30E0
3000
3000
ENDCHAR
STARTCHAR uni04D1
ENCODING 1233
SWIDTH 526 0
DWIDTH 11 0
BBX 11 14 0 0
BITMAP
0C40
1CC0
0F00
0000
1DC0
3B80
7380
E380
E380
E300
E720
E720
FFC0
7380
ENDCHAR
STARTCHAR uni04D2
ENCODING 1234
SWIDTH 668 0
DWIDTH 13 0
BBX 16 20 0 -2
BITMAP
0037
0033
0000
003C
007C
00D8
01B8
0338
0338
3F38
EEF0
EC70
5C70
1870
1860
38E0
30E0
30E0
3000
3000
ENDCHAR
STARTCHAR uni04D3
ENCODING 1235
SWIDTH 526 0
DWIDTH 11 0
BBX 11 13 0 0
BITMAP
0DC0
0CC0
0000
1DC0
3B80
7380
E380
E380
E300
E720
E720
FFC0
7380
ENDCHAR
STARTCHAR uni04D4
ENCODING 1236
SWIDTH 764 0
DWIDTH 15 0
BBX 18 17 0 -2
BITMAP
003C40
007FC0
00D800
01B800
033800
023800
3F3800
ECFF00
EC7000
5C7000
187000
386000
38E000
30FF00
30FE00
300000
300000
ENDCHAR
STARTCHAR uni04D5
ENCODING 1237
SWIDTH 650 0
DWIDTH 13 0
BBX 14 10 0 0
BITMAP
1EF0
27D8
0398
0390
3F30
F7E0
E704
E708
FF10
73E0
ENDCHAR
STARTCHAR uni04D6
ENCODING 1238
SWIDTH 459 0
DWIDTH 9 0
BBX 11 19 0 0
BITMAP
0620
0E40
0780
0000
0780
0CC0
1CC0
18C0
1980
1C00
0E00
3800
7800
7000
F000
F040
F080
7F00
3C00
ENDCHAR
STARTCHAR uni04D7
ENCODING 1239
SWIDTH 384 0
DWIDTH 8 0
BBX 9 14 0 0
BITMAP
3080
3900
1E00
0000
1E00
3A00
7200
E600
EC00
F800
E000
E100
E600
7800
ENDCHAR
STARTCHAR uni04D8
ENCODING 1240
SWIDTH 544 0
DWIDTH 11 0
BBX 11 15 0 0
BITMAP
1F00
3FC0
31C0
21E0
00E0
01E0
07E0
1DE0
31C0
71C0
6380
E380
E700
6E00
3C00
ENDCHAR
STARTCHAR uni04D9
ENCODING 1241
SWIDTH 404 0
DWIDTH 8 0
BBX 8 10 0 0
BITMAP
3C
4E
07
07
3F
6E
CE
CC
DC
70
ENDCHAR
STARTCHAR uni04DC
ENCODING 1244
SWIDTH 777 0
DWIDTH 16 0
BBX 18 18 -1 0
BITMAP
00CC00
00CC00
000000
1C3380
1E77C0
1A7580
02EC00
02E800
02F800
02F000
0FFC00
1DCE00
39CE00
39CE00
39CC00
319C00
739C00
F39E00
ENDCHAR
STARTCHAR uni04DD
ENCODING 1245
SWIDTH 882 0
DWIDTH 18 0
BBX 19 13 -1 0
BITMAP
00CC00
00CC00
000000
3C73C0
2E7740
466640
06EE00
07FC00
06EC00
4EEC20
CCCC20
DDCE40
71C780
ENDCHAR
STARTCHAR uni04DE
ENCODING 1246
SWIDTH 525 0
DWIDTH 11 0
BBX 10 18 0 0
BITMAP
0EC0
06C0
0000
0F80
13C0
21C0
21C0
03C0
0380
1E00
0780
0380
0380
0380
E380
C380
C700
7C00
ENDCHAR
STARTCHAR uni04DF
ENCODING 1247
SWIDTH 498 0
DWIDTH 10 0
BBX 11 18 0 -5
BITMAP
1980
1980
0000
1E00
2700
4700
4780
8700
8700
8E00
3C20
0E40
0F80
0E00
3E00
4E00
5C00
3800
ENDCHAR
STARTCHAR uni04E2
ENCODING 1250
SWIDTH 705 0
DWIDTH 14 0
BBX 15 18 0 0
BITMAP
01FC
0000
0000
070E
1F1C
673C
6E3C
CE7C
CE5C
4EF8
0CB8
1DB8
1F38
1E30
1E70
1C70
3C70
3870
ENDCHAR
STARTCHAR uni04E3
ENCODING 1251
SWIDTH 505 0
DWIDTH 10 0
BBX 11 13 0 0
BITMAP
1F80
2000
0000
7380
7380
7380
6300
E700
E700
E720
EF20
FFC0
7380
ENDCHAR
STARTCHAR uni04E4
ENCODING 1252
SWIDTH 705 0
DWIDTH 14 0
BBX 15 18 0 0
BITMAP
01D8
00D8
0000
070E
1F1C
673C
6E3C
CE7C
CE5C
4EF8
0CB8
1DB8
1F38
1E30
1E70
1C70
3C70
3870
ENDCHAR
STARTCHAR uni04E5
ENCODING 1253
SWIDTH 505 0
DWIDTH 10 0
BBX 11 13 0 0
BITMAP
1B80
1980
0000
7380
7380
7380
6300
E700
E700
E720
EF20
FFC0
7380
ENDCHAR
STARTCHAR uni04E6
ENCODING 1254
SWIDTH 665 0
DWIDTH 13 0
BBX 13 18 0 0
BITMAP
0198
0198
0000
07E0
1C70
33B8
6638
CE38
DC38
5C38
1C38
3838
3830
3870
3860
38E0
1FC0
0F00
ENDCHAR
STARTCHAR uni04E7
ENCODING 1255
SWIDTH 439 0
DWIDTH 9 0
BBX 11 13 0 0
BITMAP
1980
1980
0000
1E00
3A00
7320
E7C0
E300
E300
E200
E600
EC00
7800
ENDCHAR
STARTCHAR uni04E8
ENCODING 1256
SWIDTH 665 0
DWIDTH 13 0
BBX 13 15 0 0
BITMAP
07E0
1C70
33B8
6638
CE38
DC38
5C38
1FF8
3838
3830
3870
3860
38E0
1DC0
0F00
ENDCHAR
STARTCHAR uni04E9
ENCODING 1257
SWIDTH 439 0
DWIDTH 9 0
BBX 11 10 0 0
BITMAP
1E00
3A00
7320
E3C0
FF00
E300
E200
E600
EC00
7800
ENDCHAR
STARTCHAR uni04EE
ENCODING 1262
SWIDTH 644 0
DWIDTH 13 0
BBX 14 18 0 0
BITMAP
01FC
0000
0000
0704
1F0C
6788
6398
C390
C390
43F0
01E0
01E0
01C0
00C0
0080
0480
0F00
0E00
ENDCHAR
STARTCHAR uni04EF
ENCODING 1263
SWIDTH 486 0
DWIDTH 10 0
BBX 11 18 0 -5
BITMAP
1F80
2000
0000
7380
7380
7380
6300
E700
E700
E720
EF40
FEC0
7F00
1E00
6E00
4C00
7C00
3800
ENDCHAR
STARTCHAR uni04F0
ENCODING 1264
SWIDTH 644 0
DWIDTH 13 0
BBX 14 18 0 0
BITMAP
00DC
00D8
0000
0704
1F0C
6788
6398
C390
C390
43F0
01E0
01E0
01C0
00C0
0080
0480
0F00
0E00
ENDCHAR
STARTCHAR uni04F1
ENCODING 1265
SWIDTH 486 0
DWIDTH 10 0
BBX 11 18 0 -5
BITMAP
1B80
1980
0000
7380
7380
7380
6300
E700
E700
E720
EF40
FEC0
7F00
1E00
6E00
4C00
7C00
3800
ENDCHAR
STARTCHAR uni04F2
ENCODING 1266
SWIDTH 644 0
DWIDTH 13 0
BBX 15 20 0 0
BITMAP
0076
006C
00C8
0090
0000
0704
1F0C
6788
6398
C390
C390
43F0
01E0
01E0
01C0
00C0
0080
0480
0F00
0E00
ENDCHAR
STARTCHAR uni04F3
ENCODING 1267
SWIDTH 486 0
DWIDTH 10 0
BBX 11 20 0 -5
BITMAP
06C0
0D80
0900
1300
0000
7380
7380
7380
6300
E700
E700
E720
EF40
FEC0
7F00
1E00
6E00
4C00
7C00
3800
ENDCHAR
STARTCHAR uni04F4
ENCODING 1268
SWIDTH 695 0
DWIDTH 14 0
BBX 14 18 0 0
BITMAP
01D8
00D8
0000
071C
1F1C
271C
6E1C
CE1C
CE18
CE38
2E38
07F8
0030
0070
0070
0070
0070
00E0
ENDCHAR
STARTCHAR uni04F5
ENCODING 1269
SWIDTH 505 0
DWIDTH 10 0
BBX 11 13 0 0
BITMAP
1B80
1980
0000
7380
7380
7380
6300
E700
7F00
7720
0720
07C0
0780
ENDCHAR
STARTCHAR uni04F6
ENCODING 1270
SWIDTH 442 0
DWIDTH 9 0
BBX 13 18 0 -3
BITMAP
0FF8
37F0
6700
CE00
CE00
CE00
6E00
0C00
1C00
1C00
1C00
1C00
1800
3800
3800
0F80
0F00
0700
ENDCHAR
STARTCHAR uni04F7
ENCODING 1271
SWIDTH 375 0
DWIDTH 8 0
BBX 8 15 0 -5
BITMAP
3C
4E
8E
1E
3C
70
E1
E2
FC
F8
20
70
70
30
20
ENDCHAR
STARTCHAR uni04F8
ENCODING 1272
SWIDTH 909 0
DWIDTH 18 0
BBX 19 18 0 0
BITMAP
003700
003600
000000
0700E0
1F00C0
6701C0
6E01C0
CE01C0
CE01C0
4FE180
0C7380
1C7380
1C7380
1C7380
1C7700
1A6700
3BE700
3BC700
ENDCHAR
STARTCHAR uni04F9
ENCODING 1273
SWIDTH 642 0
DWIDTH 13 0
BBX 14 13 0 0
BITMAP
04C0
0EC0
0000
7030
7070
71E0
6E60
E6E0
E6E0
E6E4
E6C8
FCF8
78F0
ENDCHAR
STARTCHAR uni051A
ENCODING 1306
SWIDTH 665 0
DWIDTH 13 0
BBX 13 17 0 -2
BITMAP
07E0
1C70
33B8
6638
4E38
DC38
DC38
1C38
3838
3830
3870
3870
3FE0
1DC0
0FC0
00F0
0070
ENDCHAR
STARTCHAR uni051B
ENCODING 1307
SWIDTH 486 0
DWIDTH 10 0
BBX 10 15 0 -5
BITMAP
1DC0
3B80
7380
E380
E380
E300
E700
E700
FF00
7700
0E00
0E00
0E00
0E00
0800
ENDCHAR
STARTCHAR uni051C
ENCODING 1308
SWIDTH 962 0
DWIDTH 19 0
BBX 21 15 0 0
BITMAP
0F0E18
1F0E10
671E30
471E20
C71E20
C73E60
C72E40
072E40
076E80
074E80
074E80
078F00
078F00
078F00
070E00
ENDCHAR
STARTCHAR uni051D
ENCODING 1309
SWIDTH 661 0
DWIDTH 13 0
BBX 13 10 0 0
BITMAP
7398
73B8
7388
6308
E718
E710
E730
EF20
FFE0
7780
ENDCHAR
STARTCHAR uni0524
ENCODING 1316
SWIDTH 742 0
DWIDTH 15 0
BBX 16 18 0 -3
BITMAP
0FC1
3FFF
777E
6638
CE38
CE38
CE38
0E70
1C70
1C70
1C70
1C60
18E0
38E0
38E0
003C
003C
0018
ENDCHAR
STARTCHAR uni0525
ENCODING 1317
SWIDTH 505 0
DWIDTH 10 0
BBX 12 15 -1 -5
BITMAP
3F80
39C0
39C0
3180
7380
7380
7390
73A0
63E0
E1C0
0100
0180
0180
0180
0100
ENDCHAR
STARTCHAR uni1E0C
ENCODING 7692
SWIDTH 663 0
DWIDTH 13 0
BBX 13 20 0 -5
BITMAP
07C0
1870
6730
6E38
CE38
CE38
CE38
0C38
1C38
1C30
1C70
1C70
38E0
39C0
3F80
0000
0000
0C00
0E00
0C00
ENDCHAR
STARTCHAR uni1E0D
ENCODING 7693
SWIDTH 525 0
DWIDTH 11 0
BBX 11 19 0 -5
BITMAP
00C0
01C0
01C0
01C0
1DC0
3B80
7380
E380
E380
E380
E700
E720
EF20
73C0
0000
0000
3800
3800
3800
ENDCHAR
STARTCHAR uni1E20
ENCODING 7712
SWIDTH 578 0
DWIDTH 12 0
BBX 11 22 0 -4
BITMAP
07E0
0000
0000
07C0
1E60
3C60
7860
7060
7000
F000
E0E0
E0E0
70C0
71C0
3FC0
01C0
0180
3D80
2380
6300
2700
3E00
ENDCHAR
STARTCHAR uni1E21
ENCODING 7713
SWIDTH 507 0
DWIDTH 10 0
BBX 11 19 0 -5
BITMAP
1FC0
0000
0000
0000
1DC0
3B80
7380
E380
E380
E300
E720
E720
FF40
7780
1E00
3E00
6E00
6C00
3800
ENDCHAR
STARTCHAR uni1E24
ENCODING 7716
SWIDTH 665 0
DWIDTH 13 0
BBX 14 20 0 -5
BITMAP
071C
1F1C
3718
6638
EE38
CE38
CE38
4FF0
1C70
1C70
1C70
1C60
18E0
38E0
38E0
0000
0000
0600
0E00
0600
ENDCHAR
STARTCHAR uni1E25
ENCODING 7717
SWIDTH 505 0
DWIDTH 10 0
BBX 12 19 -1 -5
BITMAP
1C00
1C00
1C00
1800
3F80
3980
39C0
3180
7380
7380
7380
7390
63A0
E1C0
0000
0000
1800
1C00
1800
ENDCHAR
STARTCHAR uni1E2A
ENCODING 7722
SWIDTH 665 0
DWIDTH 13 0
BBX 14 19 0 -4
BITMAP
071C
1F1C
6738
6E38
CE38
CE38
4FF8
0C70
1C70
1C70
1C70
1C60
18E0
38E0
38E0
0000
1080
1980
1F00
ENDCHAR
STARTCHAR uni1E2B
ENCODING 7723
SWIDTH 505 0
DWIDTH 10 0
BBX 12 18 -1 -4
BITMAP
1C00
1C00
1C00
1800
3F80
3980
39C0
3180
7380
7380
7380
7390
63A0
E1C0
0000
6300
6200
3C00
ENDCHAR
STARTCHAR uni1E36
ENCODING 7734
SWIDTH 379 0
DWIDTH 8 0
BBX 13 20 0 -5
BITMAP
0F00
3F00
6600
4E00
CE00
CE00
4E00
1C00
1C00
1C00
1C00
1800
3800
3800
3C00
0E00
0380
31F8
78F8
3030
ENDCHAR
STARTCHAR uni1E37
ENCODING 7735
SWIDTH 293 0
DWIDTH 6 0
BBX 7 18 0 -5
BITMAP
1C
38
38
38
38
70
70
70
70
60
E2
FC
78
00
00
E0
E0
E0
ENDCHAR
STARTCHAR uni1E42
ENCODING 7746
SWIDTH 787 0
DWIDTH 16 0
BBX 15 20 1 -5
BITMAP
0F0E
1F0E
271E
671E
CF3C
CF3C
7F3C
1F7C
175C
37DC
379C
2798
67B8
4738
C738
0000
0000
0E00
0E00
0E00
ENDCHAR
STARTCHAR uni1E43
ENCODING 7747
SWIDTH 752 0
DWIDTH 15 0
BBX 17 15 -1 -5
BITMAP
3FBC00
39CC00
39CE00
338C00
739C00
739C00
739C00
739C80
671D00
E70E00
000000
000000
060000
070000
060000
ENDCHAR
STARTCHAR uni1E44
ENCODING 7748
SWIDTH 668 0
DWIDTH 13 0
BBX 14 19 0 0
BITMAP
0070
0070
0070
0000
0F0C
370C
670C
CF8C
CF88
CF98
CF98
3998
19D8
19F0
19F0
18F0
30F0
30E0
30E0
ENDCHAR
STARTCHAR uni1E45
ENCODING 7749
SWIDTH 505 0
DWIDTH 10 0
BBX 12 15 -1 0
BITMAP
0300
0380
0300
0000
0000
3F80
3980
39C0
3180
7380
7380
7380
7390
63A0
E1C0
ENDCHAR
STARTCHAR uni1E46
ENCODING 7750
SWIDTH 668 0
DWIDTH 13 0
BBX 14 20 0 -5
BITMAP
0F0C
370C
670C
CF8C
CF88
CF98
CF98
3998
19D8
19F0
19F0
18F0
30F0
30E0
30E0
0000
0000
0600
0F00
0600
ENDCHAR
STARTCHAR uni1E47
ENCODING 7751
SWIDTH 505 0
DWIDTH 10 0
BBX 12 15 -1 -5
BITMAP
3F80
3980
39C0
3180
7380
7380
7380
7390
63A0
E1C0
0000
0000
1C00
1C00
1C00
ENDCHAR
STARTCHAR uni1E5A
ENCODING 7770
SWIDTH 601 0
DWIDTH 12 0
BBX 12 20 0 -5
BITMAP
07C0
1860
3770
6E30
CE70
CE60
CEC0
4FC0
1CE0
1CE0
1CE0
1CC0
39C0
39C0
39E0
0000
0000
0600
0E00
0600
ENDCHAR
STARTCHAR uni1E5B
ENCODING 7771
SWIDTH 376 0
DWIDTH 8 0
BBX 9 15 -1 -5
BITMAP
3B00
3F80
3900
3000
7000
7000
7000
7000
6000
E000
0000
0000
E000
E000
E000
ENDCHAR
STARTCHAR uni1E60
ENCODING 7776
SWIDTH 570 0
DWIDTH 11 0
BBX 10 20 1 0
BITMAP
0380
0380
0380
0000
0000
0F80
1CC0
38C0
38C0
3980
1C00
1E00
0F00
0780
F380
C380
C380
C380
E700
3C00
ENDCHAR
STARTCHAR uni1E61
ENCODING 7777
SWIDTH 382 0
DWIDTH 8 0
BBX 9 15 -1 0
BITMAP
0600
0F00
0600
0000
0200
0E00
1E00
1E00
2E00
2E00
6E00
6E00
CF80
4E00
7C00
ENDCHAR
STARTCHAR uni1E62
ENCODING 7778
SWIDTH 570 0
DWIDTH 11 0
BBX 10 20 1 -5
BITMAP
0F80
1CC0
38C0
38C0
3980
1C00
1E00
0F00
0780
F380
C380
C380
C380
E700
3C00
0000
0000
3000
7800
3000
ENDCHAR
STARTCHAR uni1E63
ENCODING 7779
SWIDTH 382 0
DWIDTH 8 0
BBX 9 15 -1 -5
BITMAP
0E00
0E00
1E00
1E00
2E00
2E00
6E00
EE80
4F00
7C00
0000
0000
7000
7000
7000
ENDCHAR
STARTCHAR uni1E6C
ENCODING 7788
SWIDTH 481 0
DWIDTH 10 0
BBX 14 20 0 -5
BITMAP
0FC4
33FC
63FC
C380
C700
C700
C700
0700
0E00
0E00
0E00
0E00
0E00
1C00
1C00
0000
0000
1800
1C00
1800
ENDCHAR
STARTCHAR uni1E6D
ENCODING 7789
SWIDTH 267 0
DWIDTH 5 0
BBX 7 18 -1 -5
BITMAP
1C
1C
38
3C
38
38
38
70
70
72
72
7C
78
00
00
E0
E0
E0
ENDCHAR
STARTCHAR Wgrave
ENCODING 7808
SWIDTH 962 0
DWIDTH 19 0
BBX 21 20 0 0
BITMAP
000C00
000C00
000C00
000400
000000
0F0E18
1F0E10
671E30
471E20
C71E20
C73E60
C72E40
072E40
076E80
074E80
074E80
078F00
078F00
078F00
070E00
ENDCHAR
STARTCHAR wgrave
ENCODING 7809
SWIDTH 661 0
DWIDTH 13 0
BBX 13 15 0 0
BITMAP
0600
0300
0300
0300
0000
7398
73B8
7388
6308
E718
E710
E730
EF20
FFE0
7780
ENDCHAR
STARTCHAR Wacute
ENCODING 7810
SWIDTH 962 0
DWIDTH 19 0
BBX 21 20 0 0
BITMAP
000180
000300
000300
000600
000000
0F0E18
1F0E10
671E30
471E20
C71E20
C73E60
C72E40
072E40
076E80
074E80
074E80
078F00
078F00
078F00
070E00
ENDCHAR
STARTCHAR wacute
ENCODING 7811
SWIDTH 661 0
DWIDTH 13 0
BBX 13 15 0 0
BITMAP
00E0
00C0
0180
0180
0000
7398
73B8
7388
6308
E718
E710
E730
EF20
FFE0
7780
ENDCHAR
STARTCHAR Wdieresis
ENCODING 7812
SWIDTH 962 0
DWIDTH 19 0
BBX 21 18 0 0
BITMAP
001B80
001B80
000000
0F0E18
1F0E10
671E30
471E20
C71E20
C73E60
C72E40
072E40
076E80
074E80
074E80
078F00
078F00
078F00
070E00
ENDCHAR
STARTCHAR wdieresis
ENCODING 7813
SWIDTH 661 0
DWIDTH 13 0
BBX 13 14 0 0
BITMAP
06C0
0EC0
0000
0000
7398
73B8
7388
6308
E718
E710
E730
EF20
FFE0
7780
ENDCHAR
STARTCHAR uni1E8E
ENCODING 7822
SWIDTH 620 0
DWIDTH 12 0
BBX 14 19 0 0
BITMAP
0070
0070
0070
0000
0F0C
1F08
6788
4390
C390
C3B0
C3E0
01E0
01C0
01C0
01C0
03C0
0380
0380
0380
ENDCHAR
STARTCHAR uni1E8F
ENCODING 7823
SWIDTH 505 0
DWIDTH 10 0
BBX 11 20 0 -5
BITMAP
0600
0E00
0600
0000
0000
7380
7380
7380
6300
E700
E700
E720
EF40
FEC0
7F00
1E00
6E00
4C00
7C00
3800
ENDCHAR
STARTCHAR uni1E92
ENCODING 7826
SWIDTH 542 0
DWIDTH 11 0
BBX 11 24 0 -5
BITMAP
0060
00C0
0080
0180
1FE0
31C0
31C0
0380
0380
0700
0700
0E00
0E00
1C00
1C00
3800
78C0
70C0
FF80
0000
0000
1800
1C00
1800
ENDCHAR
STARTCHAR uni1E93
ENCODING 7827
SWIDTH 428 0
DWIDTH 9 0
BBX 9 15 0 -5
BITMAP
3F80
6700
6E00
0E00
1C00
1800
3800
7300
7300
FE00
0000
0000
7000
7000
7000
ENDCHAR
STARTCHAR uni1E97
ENCODING 7831
SWIDTH 267 0
DWIDTH 5 0
BBX 7 16 0 0
BITMAP
66
76
00
38
38
70
78
70
70
70
E0
E0
E4
E4
F8
F0
ENDCHAR
STARTCHAR uni1E9E
ENCODING 7838
SWIDTH 559 0
DWIDTH 11 0
BBX 13 20 -1 -5
BITMAP
07F8
0E70
0E70
1CE0
1CE0
1DC0
19C0
3B80
38C0
38E0
38E0
30E0
70E0
79C0
7780
6000
E000
E000
E000
8000
ENDCHAR
STARTCHAR uni1EA0
ENCODING 7840
SWIDTH 668 0
DWIDTH 13 0
BBX 14 20 0 -5
BITMAP
003C
007C
00D8
01B8
0338
0338
3F38
EEF0
EC70
5C70
1870
1860
38E0
38E0
30E0
3000
3000
1380
0380
0380
ENDCHAR
STARTCHAR uni1EA1
ENCODING 7841
SWIDTH 526 0
DWIDTH 11 0
BBX 11 15 0 -5
BITMAP
1DC0
3B80
7380
E380
E380
E300
E720
E720
FFC0
7380
0000
0000
3800
3800
3800
ENDCHAR
STARTCHAR uni1EA2
ENCODING 7842
SWIDTH 668 0
DWIDTH 13 0
BBX 15 22 0 -2
BITMAP
001C
0016
0006
0008
0000
003C
007C
00D8
01B8
0338
0338
3F38
EEF0
EC70
5C70
1870
1860
38E0
30E0
30E0
3000
3000
ENDCHAR
STARTCHAR uni1EA3
ENCODING 7843
SWIDTH 526 0
DWIDTH 11 0
BBX 11 15 0 0
BITMAP
0780
0080
0300
0000
0000
1DC0
3B80
7380
E380
E380
E300
E720
E720
FFC0
7380
ENDCHAR
STARTCHAR uni1EA4
ENCODING 7844
SWIDTH 668 0
DWIDTH 13 0
BBX 17 22 0 -2
BITMAP
000080
000580
000D00
003200
000000
003C00
007C00
00D800
01B800
033800
033800
3F3800
EEF000
EC7000
5C7000
187000
186000
38E000
30E000
30E000
300000
300000
ENDCHAR
STARTCHAR uni1EA5
ENCODING 7845
SWIDTH 526 0
DWIDTH 11 0
BBX 12 18 0 0
BITMAP
0030
0020
0060
0140
0300
0500
0880
0000
1DC0
3B80
7380
E380
E380
E300
E720
E720
FFC0
7380
ENDCHAR
STARTCHAR uni1EA6
ENCODING 7846
SWIDTH 668 0
DWIDTH 13 0
BBX 16 22 0 -2
BITMAP
0001
0005
000D
0032
0000
003C
007C
00D8
01B8
0338
0338
3F38
EEF0
EC70
5C70
1870
1860
38E0
30E0
30E0
3000
3000
ENDCHAR
STARTCHAR uni1EA7
ENCODING 7847
SWIDTH 526 0
DWIDTH 11 0
BBX 11 17 0 0
BITMAP
0040
0040
0160
0300
0D00
0080
0000
1DC0
3B80
7380
E380
E380
E300
E720
E720
FFC0
7380
ENDCHAR
STARTCHAR uni1EA8
ENCODING 7848
SWIDTH 668 0
DWIDTH 13 0
BBX 17 22 0 -2
BITMAP
000380
000480
000D80
003700
000000
003C00
007C00
00D800
01B800
033800
033800
3F3800
EEF000
EC7000
5C7000
187000
186000
38E000
30E000
30E000
300000
300000
ENDCHAR
STARTCHAR uni1EA9
ENCODING 7849
SWIDTH 526 0
DWIDTH 11 0
BBX 11 17 0 0
BITMAP
00E0
0020
0140
0300
0500
1880
0000
1DC0
3B80
7380
E380
E380
E300
E720
E720
FFC0
7380
ENDCHAR
STARTCHAR uni1EAA
ENCODING 7850
SWIDTH 668 0
DWIDTH 13 0
BBX 16 22 0 -2
BITMAP
0004
001F
000C
0032
0000
003C
007C
00D8
01B8
0338
0338
3F38
EEF0
EC70
5C70
1870
1860
38E0
30E0
30E0
3000
3000
ENDCHAR
STARTCHAR uni1EAB
ENCODING 7851
SWIDTH 526 0
DWIDTH 11 0
BBX 11 17 0 0
BITMAP
07C0
0000
0100
0300
0500
0880
0000
1DC0
3B80
7380
E380
E380
E300
E720
E720
FFC0
7380
ENDCHAR
STARTCHAR uni1EAC
ENCODING 7852
SWIDTH 668 0
DWIDTH 13 0
BBX 15 24 0 -5
BITMAP
0004
000E
0012
0062
003C
007C
00D8
01B8
0338
0338
3F38
EEF0
EC70
5C70
1870
1860
38E0
38E0
30E0
3000
3000
1380
0380
0380
ENDCHAR
STARTCHAR uni1EAD
ENCODING 7853
SWIDTH 526 0
DWIDTH 11 0
BBX 11 20 0 -5
BITMAP
0100
0300
0780
1880
0000
1DC0
3B80
7380
E380
E380
E300
E720
E720
FFC0
7380
0000
0000
3800
3800
3800
ENDCHAR
STARTCHAR uni1EAE
ENCODING 7854
SWIDTH 668 0
DWIDTH 13 0
BBX 16 22 0 -2
BITMAP
0006
0004
002D
0033
001C
003C
007C
00D8
01B8
0338
0338
3F38
EEF0
EC70
5C70
1870
1860
38E0
30E0
30E0
3000
3000
ENDCHAR
STARTCHAR uni1EAF
ENCODING 7855
SWIDTH 526 0
DWIDTH 11 0
BBX 11 17 0 0
BITMAP
0180
0100
0300
18C0
0F00
0000
0000
1DC0
3B80
7380
E380
E380
E300
E720
E720
FFC0
7380
ENDCHAR
STARTCHAR uni1EB0
ENCODING 7856
SWIDTH 668 0
DWIDTH 13 0
BBX 16 22 0 -2
BITMAP
0008
0008
002D
0033
001C
003C
007C
00D8
01B8
0338
0338
3F38
EEF0
EC70
5C70
1870
1860
38E0
30E0
30E0
3000
3000
ENDCHAR
STARTCHAR uni1EB1
ENCODING 7857
SWIDTH 526 0
DWIDTH 11 0
BBX 11 17 0 0
BITMAP
0600
0200
0200
18C0
0F00
0000
0000
1DC0
3B80
7380
E380
E380
E300
E720
E720
FFC0
7380
ENDCHAR
STARTCHAR uni1EB2
ENCODING 7858
SWIDTH 668 0
DWIDTH 13 0
BBX 16 22 0 -2
BITMAP
000C
0004
000C
002B
001E
003C
007C
00D8
01B8
0338
0338
3F38
EEF0
EC70
5C70
1870
1860
38E0
30E0
30E0
3000
3000
ENDCHAR
STARTCHAR uni1EB3
ENCODING 7859
SWIDTH 526 0
DWIDTH 11 0
BBX 11 17 0 0
BITMAP
0700
0100
0300
1AC0
0F00
0000
0000
1DC0
3B80
7380
E380
E380
E300
E720
E720
FFC0
7380
ENDCHAR
STARTCHAR uni1EB4
ENCODING 7860
SWIDTH 668 0
DWIDTH 13 0
BBX 16 22 0 -2
BITMAP
0008
001F
0021
0033
001C
003C
007C
00D8
01B8
0338
0338
3F38
EEF0
EC70
5C70
1870
1860
38E0
30E0
30E0
3000
3000
ENDCHAR
STARTCHAR uni1EB5
ENCODING 7861
SWIDTH 526 0
DWIDTH 11 0
BBX 11 17 0 0
BITMAP
07C0
0000
0000
08C0
0F80
0000
0000
1DC0
3B80
7380
E380
E380
E300
E720
E720
FFC0
7380
ENDCHAR
STARTCHAR uni1EB6
ENCODING 7862
SWIDTH 668 0
DWIDTH 13 0
BBX 17 24 0 -5
BITMAP
006180
006300
003E00
000000
003C00
007C00
00D800
01B800
033800
033800
3F3800
EEF000
EC7000
5C7000
187000
186000
38E000
38E000
30E000
300000
300000
138000
038000
038000
ENDCHAR
STARTCHAR uni1EB7
ENCODING 7863
SWIDTH 526 0
DWIDTH 11 0
BBX 11 20 0 -5
BITMAP
18C0
18C0
1880
0F00
0000
1DC0
3B80
7380
E380
E380
E300
E720
E720
FFC0
7380
0000
0000
3800
3800
3800
ENDCHAR
STARTCHAR uni1EB8
ENCODING 7864
SWIDTH 459 0
DWIDTH 9 0
BBX 10 20 0 -5
BITMAP
0780
0CC0
1CC0
18C0
1980
1C00
0E00
3800
7800
7000
F000
F040
F080
7F00
3C00
0000
0000
3000
7800
3000
ENDCHAR
STARTCHAR uni1EB9
ENCODING 7865
SWIDTH 384 0
DWIDTH 8 0
BBX 8 15 0 -5
BITMAP
1E
3A
72
E6
EC
F8
E0
E1
E6
78
00
00
60
F0
60
ENDCHAR
STARTCHAR uni1EBA
ENCODING 7866
SWIDTH 459 0
DWIDTH 9 0
BBX 10 20 0 0
BITMAP
0380
02C0
00C0
0100
0000
0780
0CC0
1CC0
18C0
1980
1C00
0E00
3800
7800
7000
F000
F040
F080
7F00
3C00
ENDCHAR
STARTCHAR uni1EBB
ENCODING 7867
SWIDTH 384 0
DWIDTH 8 0
BBX 8 15 0 0
BITMAP
0E
03
0C
00
00
1E
3A
72
E6
EC
F8
E0
E1
E6
78
ENDCHAR
STARTCHAR uni1EBC
ENCODING 7868
SWIDTH 459 0
DWIDTH 9 0
BBX 12 19 0 0
BITMAP
0100
0FF0
0080
0000
0780
0CC0
1CC0
18C0
1980
1C00
0E00
3800
7800
7000
F000
F040
F080
7F00
3C00
ENDCHAR
STARTCHAR uni1EBD
ENCODING 7869
SWIDTH 384 0
DWIDTH 8 0
BBX 9 14 0 0
BITMAP
3C80
7F00
0600
0000
1E00
3A00
7200
E600
EC00
F800
E000
E100
E600
7800
ENDCHAR
STARTCHAR uni1EBE
ENCODING 7870
SWIDTH 459 0
DWIDTH 9 0
BBX 12 20 0 0
BITMAP
0010
00A0
03A0
0440
0000
0780
0CC0
1CC0
18C0
1980
1C00
0E00
3800
7800
7000
F000
F040
F080
7F00
3C00
ENDCHAR
STARTCHAR uni1EBF
ENCODING 7871
SWIDTH 384 0
DWIDTH 8 0
BBX 11 18 0 0
BITMAP
0060
0060
00C0
0280
0600
0A00
1100
0000
1E00
3A00
7200
E600
EC00
F800
E000
E100
E600
7800
ENDCHAR
STARTCHAR uni1EC0
ENCODING 7872
SWIDTH 459 0
DWIDTH 9 0
BBX 11 20 0 0
BITMAP
0020
00A0
01A0
0640
0000
0780
0CC0
1CC0
18C0
1980
1C00
0E00
3800
7800
7000
F000
F040
F080
7F00
3C00
ENDCHAR
STARTCHAR uni1EC1
ENCODING 7873
SWIDTH 384 0
DWIDTH 8 0
BBX 10 17 0 0
BITMAP
0080
0080
02C0
0600
0A00
1100
0000
1E00
3A00
7200
E600
EC00
F800
E000
E100
E600
7800
ENDCHAR
STARTCHAR uni1EC2
ENCODING 7874
SWIDTH 459 0
DWIDTH 9 0
BBX 13 20 0 0
BITMAP
0030
00B8
03A0
0440
0000
0780
0CC0
1CC0
18C0
1980
1C00
0E00
3800
7800
7000
F000
F040
F080
7F00
3C00
ENDCHAR
STARTCHAR uni1EC3
ENCODING 7875
SWIDTH 384 0
DWIDTH 8 0
BBX 10 17 0 0
BITMAP
01C0
0040
0280
0600
0A00
1100
0000
1E00
3A00
7200
E600
EC00
F800
E000
E100
E600
7800
ENDCHAR
STARTCHAR uni1EC4
ENCODING 7876
SWIDTH 459 0
DWIDTH 9 0
BBX 11 20 0 0
BITMAP
03E0
0080
0380
0440
0000
0780
0CC0
1CC0
18C0
1980
1C00
0E00
3800
7800
7000
F000
F040
F080
7F00
3C00
ENDCHAR
STARTCHAR uni1EC5
ENCODING 7877
SWIDTH 384 0
DWIDTH 8 0
BBX 9 17 0 0
BITMAP
0F80
0000
0200
0600
0A00
1100
0000
1E00
3A00
7200
E600
EC00
F800
E000
E100
E600
7800
ENDCHAR
STARTCHAR uni1EC6
ENCODING 7878
SWIDTH 459 0
DWIDTH 9 0
BBX 10 24 0 -5
BITMAP
0080
0380
06C0
0840
0780
0CC0
1CC0
18C0
1980
1C00
0E00
3800
7800
7000
F000
F040
F080
7F00
3C00
0000
0000
3000
7800
3000
ENDCHAR
STARTCHAR uni1EC7
ENCODING 7879
SWIDTH 384 0
DWIDTH 8 0
BBX 8 20 0 -5
BITMAP
02
06
0F
31
00
1E
3A
72
E6
EC
F8
E0
E1
E6
78
00
00
60
F0
60
ENDCHAR
STARTCHAR uni1EC8
ENCODING 7880
SWIDTH 375 0
DWIDTH 8 0
BBX 9 20 0 0
BITMAP
0780
0480
0080
0300
0000
0F00
1F00
6600
4E00
CE00
CE00
CE00
1C00
1C00
1C00
1C00
1C00
3800
3800
3800
ENDCHAR
STARTCHAR uni1EC9
ENCODING 7881
SWIDTH 267 0
DWIDTH 5 0
BBX 6 15 0 0
BITMAP
38
0C
30
00
00
70
70
70
60
E0
E0
E4
E4
F8
70
ENDCHAR
STARTCHAR uni1ECA
ENCODING 7882
SWIDTH 375 0
DWIDTH 8 0
BBX 8 20 0 -5
BITMAP
0F
1F
66
4E
CE
CE
CE
1C
1C
1C
1C
1C
38
38
38
00
00
30
70
30
ENDCHAR
STARTCHAR uni1ECB
ENCODING 7883
SWIDTH 267 0
DWIDTH 5 0
BBX 7 19 -1 -5
BITMAP
1C
1C
1C
00
38
38
38
30
70
70
72
72
7C
38
00
00
E0
E0
E0
ENDCHAR
STARTCHAR uni1ECC
ENCODING 7884
SWIDTH 665 0
DWIDTH 13 0
BBX 13 20 0 -5
BITMAP
07E0
1C70
33B8
6638
CE38
DC38
5C38
1C38
3838
3830
3870
3860
38E0
1FC0
0F00
0000
0000
0C00
0E00
0C00
ENDCHAR
STARTCHAR uni1ECD
ENCODING 7885
SWIDTH 433 0
DWIDTH 9 0
BBX 11 15 0 -5
BITMAP
1E00
3A00
7320
E7C0
E300
E200
E600
E600
EC00
7800
0000
0000
6000
F000
6000
ENDCHAR
STARTCHAR uni1ECE
ENCODING 7886
SWIDTH 665 0
DWIDTH 13 0
BBX 13 20 0 0
BITMAP
00E0
00B0
0020
0040
0000
07E0
1C70
33B8
6638
CE38
DC38
5C38
1C38
3838
3830
3870
3860
38E0
1FC0
0F00
ENDCHAR
STARTCHAR uni1ECF
ENCODING 7887
SWIDTH 433 0
DWIDTH 9 0
BBX 11 15 0 0
BITMAP
0F00
0100
0600
0000
0000
1E00
3A00
7320
E7C0
E300
E200
E600
E600
EC00
7800
ENDCHAR
STARTCHAR uni1ED0
ENCODING 7888
SWIDTH 665 0
DWIDTH 13 0
BBX 14 20 0 0
BITMAP
000C
0068
00F0
0320
0000
07E0
1C70
33B8
6638
CE38
DC38
5C38
1C38
3838
3830
3870
3860
38E0
1FC0
0F00
ENDCHAR
STARTCHAR uni1ED1
ENCODING 7889
SWIDTH 433 0
DWIDTH 9 0
BBX 11 18 0 0
BITMAP
0060
0060
00C0
0280
0600
0A00
1100
0000
1E00
3A00
7320
E7C0
E300
E200
E600
E600
EC00
7800
ENDCHAR
STARTCHAR uni1ED2
ENCODING 7890
SWIDTH 665 0
DWIDTH 13 0
BBX 13 20 0 0
BITMAP
0018
0028
00E8
01A0
0200
07E0
1C70
33B8
6638
CE38
DC38
5C38
1C38
3838
3830
3870
3860
38E0
1FC0
0F00
ENDCHAR
STARTCHAR uni1ED3
ENCODING 7891
SWIDTH 433 0
DWIDTH 9 0
BBX 11 17 0 0
BITMAP
0080
0080
02C0
0600
0A00
1100
0000
1E00
3A00
7320
E7C0
E300
E200
E600
E600
EC00
7800
ENDCHAR
STARTCHAR uni1ED4
ENCODING 7892
SWIDTH 665 0
DWIDTH 13 0
BBX 14 20 0 0
BITMAP
001C
0024
006C
01A8
0200
07E0
1C70
33B8
6638
CE38
DC38
5C38
1C38
3838
3830
3870
3860
38E0
1FC0
0F00
ENDCHAR
STARTCHAR uni1ED5
ENCODING 7893
SWIDTH 433 0
DWIDTH 9 0
BBX 11 17 0 0
BITMAP
01C0
0040
02C0
0680
0E00
1100
0000
1E00
3A00
7320
E7C0
E300
E200
E600
E600
EC00
7800
ENDCHAR
STARTCHAR uni1ED6
ENCODING 7894
SWIDTH 665 0
DWIDTH 13 0
BBX 13 20 0 0
BITMAP
00F8
01F0
0060
03A0
0000
07E0
1C70
33B8
6638
CE38
DC38
5C38
1C38
3838
3830
3870
3860
38E0
1FC0
0F00
ENDCHAR
STARTCHAR uni1ED7
ENCODING 7895
SWIDTH 433 0
DWIDTH 9 0
BBX 11 17 0 0
BITMAP
0F80
0100
0200
0600
0A00
1100
0000
1E00
3A00
7320
E7C0
E300
E200
E600
E600
EC00
7800
ENDCHAR
STARTCHAR uni1ED8
ENCODING 7896
SWIDTH 665 0
DWIDTH 13 0
BBX 13 24 0 -5
BITMAP
0040
00E0
0120
0620
07E0
1C70
33B8
6638
CE38
DC38
5C38
1C38
3838
3830
3870
3860
38E0
1FC0
0F00
0000
0000
0C00
0E00
0C00
ENDCHAR
STARTCHAR uni1ED9
ENCODING 7897
SWIDTH 433 0
DWIDTH 9 0
BBX 11 20 0 -5
BITMAP
0200
0600
1E00
3100
0000
1E00
3A00
7320
E7C0
E300
E200
E600
E600
EC00
7800
0000
0000
6000
F000
6000
ENDCHAR
STARTCHAR uni1EDA
ENCODING 7898
SWIDTH 665 0
DWIDTH 13 0
BBX 14 20 0 0
BITMAP
0030
0060
004C
00C4
0004
07EC
1C78
33B8
6638
CE38
DC38
5C38
1C38
3838
3830
3870
3860
38E0
1FC0
0F00
ENDCHAR
STARTCHAR uni1EDB
ENCODING 7899
SWIDTH 439 0
DWIDTH 9 0
BBX 10 15 0 0
BITMAP
0300
0200
06C0
0CC0
00C0
1F80
3B00
7300
E300
E300
E300
E600
E600
FC00
7800
ENDCHAR
STARTCHAR uni1EDC
ENCODING 7900
SWIDTH 665 0
DWIDTH 13 0
BBX 14 20 0 0
BITMAP
0300
0300
018C
0184
0004
07EC
1C78
33B8
6638
CE38
DC38
5C38
1C38
3838
3830
3870
3860
38E0
1FC0
0F00
ENDCHAR
STARTCHAR uni1EDD
ENCODING 7901
SWIDTH 439 0
DWIDTH 9 0
BBX 10 15 0 0
BITMAP
0C00
0C00
0CC0
04C0
00C0
1F80
3B00
7300
E300
E300
E300
E600
E600
FC00
7800
ENDCHAR
STARTCHAR uni1EDE
ENCODING 7902
SWIDTH 665 0
DWIDTH 13 0
BBX 14 20 0 0
BITMAP
00E0
00B0
0020
004C
0004
07EC
1C78
33B8
6638
CE38
DC38
5C38
1C38
3838
3830
3870
3860
38E0
1FC0
0F00
ENDCHAR
STARTCHAR uni1EDF
ENCODING 7903
SWIDTH 439 0
DWIDTH 9 0
BBX 10 15 0 0
BITMAP
0F00
0100
06C0
00C0
0080
1F80
3B00
7300
E300
E300
E300
E600
E600
FC00
7800
ENDCHAR
STARTCHAR uni1EE0
ENCODING 7904
SWIDTH 665 0
DWIDTH 13 0
BBX 14 19 0 0
BITMAP
0100
07FC
09E4
0004
07EC
1C78
33B8
6638
CE38
DC38
5C38
1C38
3838
3830
3870
3860
38E0
1FC0
0F00
ENDCHAR
STARTCHAR uni1EE1
ENCODING 7905
SWIDTH 439 0
DWIDTH 9 0
BBX 10 14 0 0
BITMAP
1D00
3EC0
0CC0
0080
1F80
3B00
7300
E300
E300
E300
E600
E600
FC00
7800
ENDCHAR
STARTCHAR uni1EE2
ENCODING 7906
SWIDTH 665 0
DWIDTH 13 0
BBX 14 22 0 -5
BITMAP
000C
0004
07EC
1C78
33B8
6638
CE38
DC38
5C38
1C38
3838
3830
3870
3860
38E0
1FC0
0F00
0000
0000
0C00
0E00
0C00
ENDCHAR
STARTCHAR uni1EE3
ENCODING 7907
SWIDTH 439 0
DWIDTH 9 0
BBX 10 17 0 -5
BITMAP
00C0
00C0
1E80
3B00
7300
E300
E300
E300
E600
E600
FC00
7800
0000
0000
6000
F000
6000
ENDCHAR
STARTCHAR uni1EE4
ENCODING 7908
SWIDTH 716 0
DWIDTH 14 0
BBX 15 20 0 -5
BITMAP
0F0E
370E
670E
C70C
CE1C
CE1C
CE1C
0C1C
1C38
1C38
1C38
1C70
1C70
1FE0
0FC0
0000
0000
0600
0700
0600
ENDCHAR
STARTCHAR uni1EE5
ENCODING 7909
SWIDTH 505 0
DWIDTH 10 0
BBX 11 15 0 -5
BITMAP
7380
7380
7380
6300
E700
E700
E720
EF20
FFC0
7380
0000
0000
3000
3800
3000
ENDCHAR
STARTCHAR uni1EE6
ENCODING 7910
SWIDTH 716 0
DWIDTH 14 0
BBX 15 20 0 0
BITMAP
0078
0048
0008
0030
0000
0F0E
370E
670E
C70C
CE1C
CE1C
CE1C
0C1C
1C38
1C38
1C38
1C70
1C70
1FE0
0FC0
ENDCHAR
STARTCHAR uni1EE7
ENCODING 7911
SWIDTH 505 0
DWIDTH 10 0
BBX 11 15 0 0
BITMAP
0E00
0300
0400
0000
0000
7380
7380
7380
6300
E700
E700
E720
EF20
FFC0
7380
ENDCHAR
STARTCHAR uni1EE8
ENCODING 7912
SWIDTH 716 0
DWIDTH 14 0
BBX 17 20 0 0
BITMAP
001C00
001880
001180
003080
000180
0F0F00
370E00
670E00
C70C00
CE1C00
CE1C00
CE1C00
0C1C00
1C3800
1C3800
1C3800
1C7000
1C7000
1FE000
0FC000
ENDCHAR
STARTCHAR uni1EE9
ENCODING 7913
SWIDTH 505 0
DWIDTH 10 0
BBX 11 15 0 0
BITMAP
0380
0300
0660
0460
0040
7380
7380
7380
6300
E700
E700
E720
EF20
FFC0
7380
ENDCHAR
STARTCHAR uni1EEA
ENCODING 7914
SWIDTH 716 0
DWIDTH 14 0
BBX 17 20 0 0
BITMAP
00C000
004080
006180
006080
000180
0F0F00
370E00
670E00
C70C00
CE1C00
CE1C00
CE1C00
0C1C00
1C3800
1C3800
1C3800
1C7000
1C7000
1FE000
0FC000
ENDCHAR
STARTCHAR uni1EEB
ENCODING 7915
SWIDTH 505 0
DWIDTH 10 0
BBX 11 15 0 0
BITMAP
0C00
0C00
0C60
0460
0040
73C0
7380
7380
6300
E700
E700
E720
EF20
FFC0
7380
ENDCHAR
STARTCHAR uni1EEC
ENCODING 7916
SWIDTH 716 0
DWIDTH 14 0
BBX 17 20 0 0
BITMAP
007800
004800
000980
003080
000180
0F0F00
370E00
670E00
C70C00
CE1C00
CE1C00
CE1C00
0C1C00
1C3800
1C3800
1C3800
1C7000
1C7000
1FE000
0FC000
ENDCHAR
STARTCHAR uni1EED
ENCODING 7917
SWIDTH 505 0
DWIDTH 10 0
BBX 11 15 0 0
BITMAP
0E00
0300
0460
0060
0040
73C0
7380
7380
6300
E700
E700
E720
EF20
FFC0
7380
ENDCHAR
STARTCHAR uni1EEE
ENCODING 7918
SWIDTH 716 0
DWIDTH 14 0
BBX 17 19 0 0
BITMAP
002180
01FE80
023880
000180
0F0F00
370E00
670E00
C70C00
CE1C00
CE1C00
CE1C00
0C1C00
1C3800
1C3800
1C3800
1C7000
1C7000
1FE000
0FC000
ENDCHAR
STARTCHAR uni1EEF
ENCODING 7919
SWIDTH 505 0
DWIDTH 10 0
BBX 11 14 0 0
BITMAP
0CE0
1F60
2060
0040
7380
7380
7380
6300
E700
E700
E720
EF20
FFC0
7380
ENDCHAR
STARTCHAR uni1EF0
ENCODING 7920
SWIDTH 716 0
DWIDTH 14 0
BBX 17 23 0 -5
BITMAP
000180
000080
000180
0F0F00
370E00
670E00
C70C00
CE1C00
CE1C00
CE1C00
0C1C00
1C3800
1C3800
1C3800
1C7000
1C7000
1FE000
0FC000
000000
000000
060000
070000
060000
ENDCHAR
STARTCHAR uni1EF1
ENCODING 7921
SWIDTH 505 0
DWIDTH 10 0
BBX 11 18 0 -5
BITMAP
0020
0060
0060
73C0
7380
7380
6380
E700
E700
E720
EF20
FFC0
7380
0000
0000
3000
3800
3000
ENDCHAR
STARTCHAR Ygrave
ENCODING 7922
SWIDTH 620 0
DWIDTH 12 0
BBX 14 20 0 0
BITMAP
00E0
0060
0060
0060
0000
0F0C
1F08
6788
4390
C390
C3B0
C3E0
01E0
01C0
01C0
01C0
03C0
0380
0380
0380
ENDCHAR
STARTCHAR ygrave
ENCODING 7923
SWIDTH 505 0
DWIDTH 10 0
BBX 11 20 0 -5
BITMAP
0C00
0C00
0C00
0400
0000
7380
7380
7380
6300
E700
E700
E720
EF40
FEC0
7F00
1E00
6E00
4C00
7C00
3800
ENDCHAR
STARTCHAR uni1EF4
ENCODING 7924
SWIDTH 620 0
DWIDTH 12 0
BBX 14 20 0 -5
BITMAP
0F0C
1F08
6788
4390
C390
C3B0
C3E0
01E0
01C0
01C0
01C0
03C0
0380
0380
0380
0000
0000
0700
0700
0700
ENDCHAR
STARTCHAR uni1EF5
ENCODING 7925
SWIDTH 505 0
DWIDTH 10 0
BBX 11 15 0 -5
BITMAP
7380
7380
7380
6300
E700
E700
E720
EF40
FEC0
7F00
1E00
6E00
4C80
7DC0
3980
ENDCHAR
STARTCHAR uni1EF6
ENCODING 7926
SWIDTH 620 0
DWIDTH 12 0
BBX 14 20 0 0
BITMAP
0078
0048
0008
0030
0000
0F0C
1F08
6788
4390
C390
C3B0
C3E0
01E0
01C0
01C0
01C0
03C0
0380
0380
0380
ENDCHAR
STARTCHAR uni1EF7
ENCODING 7927
SWIDTH 505 0
DWIDTH 10 0
BBX 11 20 0 -5
BITMAP
0E00
0B00
0300
0400
0000
7380
7380
7380
6300
E700
E700
E720
EF40
FEC0
7F00
1E00
6E00
4C00
7C00
3800
ENDCHAR
STARTCHAR uni1EF8
ENCODING 7928
SWIDTH 620 0
DWIDTH 12 0
BBX 14 19 0 0
BITMAP
0040
01FC
0278
0000
0F0C
1F08
6788
4390
C390
C3B0
C3E0
01E0
01C0
01C0
01C0
03C0
0380
0380
0380
ENDCHAR
STARTCHAR uni1EF9
ENCODING 7929
SWIDTH 505 0
DWIDTH 10 0
BBX 11 19 0 -5
BITMAP
1E40
3F80
0000
0000
7380
7380
7380
6300
E700
E700
E720
EF40
FEC0
7F00
1E00
6E00
4C00
7C00
3800
ENDCHAR
STARTCHAR uni2010
ENCODING 8208
SWIDTH 290 0
DWIDTH 6 0
BBX 5 1 0 5
BITMAP
F8
ENDCHAR
STARTCHAR endash
ENCODING 8211
SWIDTH 352 0
DWIDTH 7 0
BBX 6 1 0 5
BITMAP
FC
ENDCHAR
STARTCHAR emdash
ENCODING 8212
SWIDTH 444 0
DWIDTH 9 0
BBX 8 1 0 5
BITMAP
FF
ENDCHAR
STARTCHAR quoteleft
ENCODING 8216
SWIDTH 209 0
DWIDTH 4 0
BBX 3 5 2 10
BITMAP
20
40
C0
E0
C0
ENDCHAR
STARTCHAR quoteright
ENCODING 8217
SWIDTH 238 0
DWIDTH 5 0
BBX 3 5 2 10
BITMAP
C0
E0
40
40
80
ENDCHAR
STARTCHAR quotesinglbase
ENCODING 8218
SWIDTH 220 0
DWIDTH 4 0
BBX 3 5 0 -2
BITMAP
C0
E0
C0
40
80
ENDCHAR
STARTCHAR quotedblleft
ENCODING 8220
SWIDTH 429 0
DWIDTH 9 0
BBX 6 5 2 10
BITMAP
24
44
CC
EC
CC
ENDCHAR
STARTCHAR quotedblright
ENCODING 8221
SWIDTH 426 0
DWIDTH 9 0
BBX 7 5 2 10
BITMAP
EE
EE
64
44
88
ENDCHAR
STARTCHAR quotedblbase
ENCODING 8222
SWIDTH 440 0
DWIDTH 9 0
BBX 6 5 0 -2
BITMAP
CC
EC
CC
48
88
ENDCHAR
STARTCHAR dagger
ENCODING 8224
SWIDTH 495 0
DWIDTH 10 0
BBX 8 20 1 -5
BITMAP
06
04
04
0C
0C
08
08
7F
FF
18
10
10
10
30
30
20
20
60
60
40
ENDCHAR
STARTCHAR daggerdbl
ENCODING 8225
SWIDTH 495 0
DWIDTH 10 0
BBX 9 20 0 -5
BITMAP
0300
0200
0200
0600
0600
0400
0400
3F80
7F80
0C00
0800
7F00
7F00
9800
1800
1000
1000
3000
3000
2000
ENDCHAR
STARTCHAR bullet
ENCODING 8226
SWIDTH 434 0
DWIDTH 9 0
BBX 4 4 2 3
BITMAP
70
F0
F0
70
ENDCHAR
STARTCHAR ellipsis
ENCODING 8230
SWIDTH 702 0
DWIDTH 14 0
BBX 12 3 1 0
BITMAP
C630
EF70
C630
ENDCHAR
STARTCHAR perthousand
ENCODING 8240
SWIDTH 1175 0
DWIDTH 24 0
BBX 22 15 1 0
BITMAP
3C3000
6C2000
646000
C44000
CCC000
CC8000
CD8000
D91C3C
72366C
0666CC
0446CC
0CC6CC
08CCCC
184CD8
307070
ENDCHAR
STARTCHAR minute
ENCODING 8242
SWIDTH 196 0
DWIDTH 4 0
BBX 4 5 1 10
BITMAP
30
60
60
40
C0
ENDCHAR
STARTCHAR second
ENCODING 8243
SWIDTH 341 0
DWIDTH 7 0
BBX 7 5 1 10
BITMAP
36
6C
6C
48
D8
ENDCHAR
STARTCHAR guilsinglleft
ENCODING 8249
SWIDTH 359 0
DWIDTH 7 0
BBX 7 7 0 2
BITMAP
02
0C
30
40
E0
30
0C
ENDCHAR
STARTCHAR guilsinglright
ENCODING 8250
SWIDTH 344 0
DWIDTH 7 0
BBX 7 7 0 2
BITMAP
40
30
18
06
0C
30
C0
ENDCHAR
STARTCHAR fraction
ENCODING 8260
SWIDTH 248 0
DWIDTH 5 0
BBX 10 15 -2 0
BITMAP
00C0
0180
0100
0300
0200
0600
0400
0C00
0800
1000
3000
2000
6000
4000
C000
ENDCHAR
STARTCHAR uni2052
ENCODING 8274
SWIDTH 796 0
DWIDTH 16 0
BBX 10 15 3 0
BITMAP
E0C0
E080
E180
0100
0300
0200
0600
0400
0800
1800
1000
3000
21C0
61C0
C1C0
ENDCHAR
STARTCHAR uni2070
ENCODING 8304
SWIDTH 379 0
DWIDTH 8 0
BBX 6 9 1 6
BITMAP
3C
6C
64
C4
CC
CC
CC
D8
70
ENDCHAR
STARTCHAR uni2074
ENCODING 8308
SWIDTH 352 0
DWIDTH 7 0
BBX 6 8 1 7
BITMAP
6C
2C
68
58
FC
18
10
30
ENDCHAR
STARTCHAR uni2075
ENCODING 8309
SWIDTH 335 0
DWIDTH 7 0
BBX 6 9 1 6
BITMAP
3C
40
40
78
98
D8
98
98
70
ENDCHAR
STARTCHAR uni2076
ENCODING 8310
SWIDTH 351 0
DWIDTH 7 0
BBX 6 9 1 6
BITMAP
38
64
6C
C0
D8
EC
C8
D8
70
ENDCHAR
STARTCHAR uni2077
ENCODING 8311
SWIDTH 329 0
DWIDTH 7 0
BBX 5 8 1 7
BITMAP
F8
98
10
20
60
C0
C0
C0
ENDCHAR
STARTCHAR uni2078
ENCODING 8312
SWIDTH 354 0
DWIDTH 7 0
BBX 6 9 1 6
BITMAP
38
6C
64
38
38
58
CC
C8
78
ENDCHAR
STARTCHAR uni2079
ENCODING 8313
SWIDTH 345 0
DWIDTH 7 0
BBX 6 9 1 6
BITMAP
38
48
CC
DC
6C
08
18
90
60
ENDCHAR
STARTCHAR uni2080
ENCODING 8320
SWIDTH 379 0
DWIDTH 8 0
BBX 6 8 1 0
BITMAP
3C
6C
64
CC
CC
CC
D8
70
ENDCHAR
STARTCHAR uni2081
ENCODING 8321
SWIDTH 229 0
DWIDTH 5 0
BBX 3 9 1 0
BITMAP
20
E0
60
60
60
40
C0
C0
C0
ENDCHAR
STARTCHAR uni2082
ENCODING 8322
SWIDTH 328 0
DWIDTH 7 0
BBX 5 8 1 0
BITMAP
38
58
48
18
30
40
80
F8
ENDCHAR
STARTCHAR uni2083
ENCODING 8323
SWIDTH 336 0
DWIDTH 7 0
BBX 6 8 1 0
BITMAP
38
4C
48
38
18
D8
98
70
ENDCHAR
STARTCHAR uni2084
ENCODING 8324
SWIDTH 352 0
DWIDTH 7 0
BBX 6 8 1 0
BITMAP
6C
2C
68
58
FC
18
10
30
ENDCHAR
STARTCHAR uni2085
ENCODING 8325
SWIDTH 335 0
DWIDTH 7 0
BBX 6 8 1 0
BITMAP
7C
40
40
78
D8
98
98
70
ENDCHAR
STARTCHAR uni2086
ENCODING 8326
SWIDTH 351 0
DWIDTH 7 0
BBX 6 8 1 0
BITMAP
3C
64
68
D8
EC
C8
D8
70
ENDCHAR
STARTCHAR uni2087
ENCODING 8327
SWIDTH 329 0
DWIDTH 7 0
BBX 5 8 1 0
BITMAP
F8
98
10
20
60
C0
C0
C0
ENDCHAR
STARTCHAR uni2088
ENCODING 8328
SWIDTH 354 0
DWIDTH 7 0
BBX 6 8 1 0
BITMAP
38
64
6C
30
58
CC
D8
70
ENDCHAR
STARTCHAR uni2089
ENCODING 8329
SWIDTH 345 0
DWIDTH 7 0
BBX 6 8 1 0
BITMAP
38
48
CC
DC
6C
18
98
E0
ENDCHAR
STARTCHAR colonmonetary
ENCODING 8353
SWIDTH 384 0
DWIDTH 8 0
BBX 8 15 0 -1
BITMAP
0D
0A
0F
3B
71
63
E0
E0
E0
E0
62
7E
28
48
50
ENDCHAR
STARTCHAR franc
ENCODING 8355
SWIDTH 529 0
DWIDTH 11 0
BBX 12 15 0 0
BITMAP
0FF0
0F00
0600
0E00
0E00
0E00
0F80
1C00
1C00
1C00
1C00
FF00
3800
3800
3800
ENDCHAR
STARTCHAR lira
ENCODING 8356
SWIDTH 455 0
DWIDTH 9 0
BBX 10 15 0 0
BITMAP
03C0
06C0
0EC0
0CC0
1C00
1C00
7F80
1800
FF00
3800
3800
3000
7C40
7FC0
8780
ENDCHAR
STARTCHAR uni20A6
ENCODING 8358
SWIDTH 723 0
DWIDTH 14 0
BBX 16 15 0 0
BITMAP
070C
070C
070C
0F0C
0F88
0F98
0F98
7FFF
1998
FFFE
19F0
19F0
30F0
30E0
30E0
ENDCHAR
STARTCHAR uni20A9
ENCODING 8361
SWIDTH 841 0
DWIDTH 17 0
BBX 18 15 0 0
BITMAP
1C3840
1C38C0
1C7880
1C7880
1C7980
1CB900
1CB900
7FFFC0
1D3A00
FFFFC0
1F3C00
1E3C00
1E3C00
1C3800
1C3800
ENDCHAR
STARTCHAR Euro
ENCODING 8364
SWIDTH 507 0
DWIDTH 10 0
BBX 12 15 0 0
BITMAP
01E0
0730
0E30
0C70
1C20
1C00
7FC0
3800
FF80
3800
3800
3800
3C40
1FC0
0F00
ENDCHAR
STARTCHAR uni20AE
ENCODING 8366
SWIDTH 481 0
DWIDTH 10 0
BBX 14 15 0 0
BITMAP
0FC4
33FC
63BC
C380
C700
C700
C700
07E0
7E00
4FE0
3E00
CE00
0E00
1C00
1C00
ENDCHAR
STARTCHAR uni20B3
ENCODING 8371
SWIDTH 573 0
DWIDTH 11 0
BBX 12 15 0 0
BITMAP
0FC0
3860
6770
4E30
CE30
CE70
4E60
1CC0
3F80
1C00
1C00
7F80
1800
3800
3800
ENDCHAR
STARTCHAR uni20B4
ENCODING 8372
SWIDTH 570 0
DWIDTH 11 0
BBX 10 15 1 0
BITMAP
1F80
31C0
61C0
6180
0380
FFC0
0C00
FF80
7000
6380
E780
E180
E180
F300
7E00
ENDCHAR
STARTCHAR uni20B8
ENCODING 8376
SWIDTH 522 0
DWIDTH 10 0
BBX 15 15 0 0
BITMAP
3FFE
0000
0FC2
3BFE
63FC
6380
C380
C700
4700
2700
0700
0700
0E00
0E00
0E00
ENDCHAR
STARTCHAR uni20B9
ENCODING 8377
SWIDTH 544 0
DWIDTH 11 0
BBX 11 15 1 0
BITMAP
7FE0
0600
FFC0
0300
0700
0600
0C00
F800
1E00
0E00
0E00
0E00
1C00
1C00
1E00
ENDCHAR
STARTCHAR uni20BA
ENCODING 8378
SWIDTH 455 0
DWIDTH 9 0
BBX 10 15 1 0
BITMAP
1C00
1C00
1C00
1D00
1E00
7800
BF00
3800
F980
70C0
70C0
7180
7380
7E00
F800
ENDCHAR
STARTCHAR uni20BD
ENCODING 8381
SWIDTH 573 0
DWIDTH 11 0
BBX 12 15 0 0
BITMAP
0FC0
3860
6770
4E30
CE30
CE70
4E60
1CC0
7F80
1C00
1C00
7F00
9800
3800
3800
ENDCHAR
STARTCHAR uni2116
ENCODING 8470
SWIDTH 996 0
DWIDTH 20 0
BBX 20 15 0 0
BITMAP
0F0C00
370C00
670CE0
CF8DB0
CF89A0
CF9920
CF9B20
2D99C0
19D800
19D3E0
19F7E0
18F000
30F000
30E000
30E000
ENDCHAR
STARTCHAR uni2120
ENCODING 8480
SWIDTH 585 0
DWIDTH 12 0
BBX 9 6 2 8
BITMAP
2000
5580
6580
6D00
9F00
7500
ENDCHAR
STARTCHAR trademark
ENCODING 8482
SWIDTH 379 0
DWIDTH 8 0
BBX 7 5 0 9
BITMAP
FA
CA
4A
5E
9A
ENDCHAR
STARTCHAR uni2126
ENCODING 8486
SWIDTH 745 0
DWIDTH 15 0
BBX 13 15 1 0
BITMAP
03E0
0FF0
1C38
3018
3018
6018
6018
6018
6010
6030
6020
2060
30C0
F9F0
F3F0
ENDCHAR
STARTCHAR uni212A
ENCODING 8490
SWIDTH 601 0
DWIDTH 12 0
BBX 13 15 0 0
BITMAP
0F18
3730
6660
CEC0
CE80
CF00
4FC0
1CE0
1CE0
1CE0
1CE0
18C0
39C0
39C0
39E0
ENDCHAR
STARTCHAR uni212B
ENCODING 8491
SWIDTH 668 0
DWIDTH 13 0
BBX 14 20 0 -2
BITMAP
000C
0014
0014
001C
007C
00D8
01B8
0338
0338
3F38
EEF0
EC70
5C70
1870
1860
38E0
30E0
30E0
3000
3000
ENDCHAR
STARTCHAR estimated
ENCODING 8494
SWIDTH 786 0
DWIDTH 16 0
BBX 14 14 1 0
BITMAP
0FC0
3860
7030
7038
F03C
F03C
FFFC
F000
F000
F000
7000
7010
3070
0FC0
ENDCHAR
STARTCHAR uni2153
ENCODING 8531
SWIDTH 733 0
DWIDTH 15 0
BBX 13 15 1 0
BITMAP
2060
E040
60C0
6080
4100
4300
C200
C638
C448
0C48
0830
1818
10D8
2098
6070
ENDCHAR
STARTCHAR uni2154
ENCODING 8532
SWIDTH 852 0
DWIDTH 17 0
BBX 16 15 1 0
BITMAP
3808
5810
4830
1820
1060
2040
40C0
E88E
B99B
011B
020E
0206
043B
0C32
081C
ENDCHAR
STARTCHAR oneeighth
ENCODING 8539
SWIDTH 741 0
DWIDTH 15 0
BBX 14 15 1 0
BITMAP
2060
E040
60C0
6080
4100
4300
C200
C638
C46C
0C68
0830
1858
1098
20D8
6070
ENDCHAR
STARTCHAR threeeighths
ENCODING 8540
SWIDTH 828 0
DWIDTH 17 0
BBX 15 15 1 0
BITMAP
3818
6C30
6820
1860
3840
D8C0
9880
999E
711A
021A
061C
043E
0C26
0866
183C
ENDCHAR
STARTCHAR fiveeighths
ENCODING 8541
SWIDTH 827 0
DWIDTH 17 0
BBX 15 15 1 0
BITMAP
3C18
4030
4020
7860
9840
D8C0
9880
999E
711A
021A
061C
043E
0C26
0866
183C
ENDCHAR
STARTCHAR seveneighths
ENCODING 8542
SWIDTH 761 0
DWIDTH 15 0
BBX 14 15 1 0
BITMAP
F820
9860
1040
2080
6180
C100
C300
C238
0664
0464
0C38
0858
10CC
30CC
2078
ENDCHAR
STARTCHAR partialdiff
ENCODING 8706
SWIDTH 597 0
DWIDTH 12 0
BBX 11 16 1 0
BITMAP
0300
0FC0
08C0
0060
0060
0060
0060
1F60
3FC0
6040
C0C0
C080
C180
C300
FE00
7800
ENDCHAR
STARTCHAR uni2206
ENCODING 8710
SWIDTH 619 0
DWIDTH 12 0
BBX 12 15 0 0
BITMAP
00C0
01C0
0160
0360
0660
0660
0C60
0C60
1860
1070
3030
6030
6030
FFF0
FFF0
ENDCHAR
STARTCHAR product
ENCODING 8719
SWIDTH 661 0
DWIDTH 13 0
BBX 13 15 0 0
BITMAP
7FF8
7FF8
18C0
10C0
10C0
3080
3080
3180
2180
2180
6100
6100
6300
4300
C300
ENDCHAR
STARTCHAR summation
ENCODING 8721
SWIDTH 605 0
DWIDTH 12 0
BBX 12 15 0 0
BITMAP
1FF0
1FF0
0C00
0C00
0600
0600
0300
0300
0600
0E00
0C00
1800
3000
7FC0
FFC0
ENDCHAR
STARTCHAR minus
ENCODING 8722
SWIDTH 471 0
DWIDTH 9 0
BBX 7 2 1 6
BITMAP
FE
FE
ENDCHAR
STARTCHAR uni2215
ENCODING 8725
SWIDTH 488 0
DWIDTH 10 0
BBX 10 15 0 0
BITMAP
00C0
0180
0100
0300
0200
0600
0400
0C00
0800
1000
3000
2000
6000
4000
C000
ENDCHAR
STARTCHAR uni2219
ENCODING 8729
SWIDTH 434 0
DWIDTH 9 0
BBX 4 4 2 3
BITMAP
60
F0
F0
70
ENDCHAR
STARTCHAR radical
ENCODING 8730
SWIDTH 660 0
DWIDTH 13 0
BBX 13 15 0 0
BITMAP
00F8
00F8
0080
0180
0100
0100
0300
0200
0600
6600
6400
AC00
3800
3800
3800
ENDCHAR
STARTCHAR infinity
ENCODING 8734
SWIDTH 833 0
DWIDTH 17 0
BBX 14 7 1 2
BITMAP
1010
7C78
C78C
C30C
8708
FDF8
70E0
ENDCHAR
STARTCHAR integral
ENCODING 8747
SWIDTH 305 0
DWIDTH 6 0
BBX 10 19 -2 -3
BITMAP
01C0
0300
0600
0600
0600
0400
0400
0C00
0C00
0C00
0800
1800
1800
1800
1800
1000
3000
3000
E000
ENDCHAR
STARTCHAR approxequal
ENCODING 8776
SWIDTH 441 0
DWIDTH 9 0
BBX 8 6 1 2
BITMAP
7F
FF
00
00
FE
FE
ENDCHAR
STARTCHAR notequal
ENCODING 8800
SWIDTH 500 0
DWIDTH 10 0
BBX 8 10 1 1
BITMAP
0C
08
08
7F
7F
10
10
FE
FE
20
ENDCHAR
STARTCHAR lessequal
ENCODING 8804
SWIDTH 405 0
DWIDTH 8 0
BBX 8 10 0 2
BITMAP
01
07
1C
70
70
1C
06
00
FE
FE
ENDCHAR
STARTCHAR greaterequal
ENCODING 8805
SWIDTH 405 0
DWIDTH 8 0
BBX 8 10 0 2
BITMAP
20
38
0E
03
0E
38
60
00
FE
FE
ENDCHAR
STARTCHAR lozenge
ENCODING 9674
SWIDTH 619 0
DWIDTH 12 0
BBX 11 15 1 0
BITMAP
0700
0700
0D80
1980
3080
60C0
60C0
C060
C0C0
4180
6300
6200
2600
3C00
1800
ENDCHAR
STARTCHAR uni27E8
ENCODING 10216
SWIDTH 456 0
DWIDTH 9 0
BBX 8 20 1 -3
BITMAP
01
02
06
04
08
10
30
20
40
80
80
40
20
20
10
18
08
04
06
02
ENDCHAR
STARTCHAR uni27E9
ENCODING 10217
SWIDTH 456 0
DWIDTH 9 0
BBX 8 20 0 -2
BITMAP
40
60
20
10
18
08
04
06
02
01
01
02
06
04
08
10
30
20
40
80
ENDCHAR
STARTCHAR ff
ENCODING 64256
SWIDTH 508 0
DWIDTH 10 0
BBX 17 20 -4 -5
BITMAP
01EF00
039D80
039C80
03B800
073800
07FE00
073800
073800
073000
0E7000
0E7000
0E7000
0E7000
0E6000
1DE000
7EE000
DCE000
9CC000
BDC000
778000
ENDCHAR
STARTCHAR fi
ENCODING 64257
SWIDTH 534 0
DWIDTH 11 0
BBX 16 20 -4 -5
BITMAP
00F8
01CC
039C
0398
0300
07DC
0738
0738
0738
0E38
0E30
0E71
0E72
0E7C
1C38
3C00
DC00
9C00
B800
7000
ENDCHAR
STARTCHAR fl
ENCODING 64258
SWIDTH 548 0
DWIDTH 11 0
BBX 16 20 -4 -5
BITMAP
01F0
038E
038C
039C
071C
07DC
071C
0738
0738
0E38
0E38
0E31
0E72
0E3E
1C38
7C00
DC00
9C00
B800
7000
ENDCHAR
STARTCHAR ffi
ENCODING 64259
SWIDTH 764 0
DWIDTH 15 0
BBX 20 20 -4 -5
BITMAP
01E780
039CC0
039CC0
03B8C0
073800
07FFC0
0739C0
0731C0
077180
0E7380
0E7380
0E7390
0EE390
0CE3E0
1FE3C0
7CE000
DCC000
9DC000
B9C000
778000
ENDCHAR
STARTCHAR ffl
ENCODING 64260
SWIDTH 780 0
DWIDTH 16 0
BBX 20 20 -4 -5
BITMAP
01EF80
039CE0
0398E0
03B8E0
0738E0
07FEC0
0739C0
0731C0
0771C0
0E71C0
0E7380
0E7390
0EE390
0CE3E0
1FE1C0
7CE000
DCC000
9DC000
B9C000
778000
ENDCHAR
STARTCHAR .notdef
ENCODING -1
SWIDTH 810 0
DWIDTH 16 0
BBX 16 25 0 -5
BITMAP
07FF
0401
0401
0401
0802
0802
0802
09C2
1364
1364
1164
10C4
1104
2108
2008
2108
2308
4008
4010
4010
4010
4010
8020
8020
FFE0
ENDCHAR
STARTCHAR A.salt
ENCODING -1
SWIDTH 590 0
DWIDTH 12 0
BBX 12 17 0 -2
BITMAP
0070
01F0
0370
0670
0460
0CE0
18E0
1FE0
38E0
30C0
71C0
61C0
61C0
E1C0
E380
E000
6000
ENDCHAR
STARTCHAR B.salt
ENCODING -1
SWIDTH 633 0
DWIDTH 13 0
BBX 12 15 0 0
BITMAP
0FC0
1860
6730
6E30
CE60
CEC0
CFE0
0CF0
1C70
1C70
1C70
1C60
38E0
39C0
3F80
ENDCHAR
STARTCHAR E.salt
ENCODING -1
SWIDTH 554 0
DWIDTH 11 0
BBX 12 15 0 0
BITMAP
0FF0
37E0
6E00
4E00
CE00
CE00
CE40
1F80
1C00
1C00
1C00
1800
3800
3FC0
3F80
ENDCHAR
STARTCHAR N.salt
ENCODING -1
SWIDTH 669 0
DWIDTH 13 0
BBX 14 15 0 0
BITMAP
0FF0
1F38
6E38
4E38
CE38
CE38
5C70
1C70
1C70
1C70
1CE0
38E0
38E4
38E8
3870
ENDCHAR
STARTCHAR i.loclTRK
ENCODING -1
SWIDTH 267 0
DWIDTH 5 0
BBX 6 14 0 0
BITMAP
38
38
38
00
70
70
70
60
E0
E0
E4
E4
F8
70
ENDCHAR
STARTCHAR a.end
ENCODING -1
SWIDTH 467 0
DWIDTH 9 0
BBX 10 10 0 0
BITMAP
1DC0
3B80
7380
E380
E380
E300
E700
E700
FF80
7380
ENDCHAR
STARTCHAR aacute.end
ENCODING -1
SWIDTH 461 0
DWIDTH 9 0
BBX 9 15 0 0
BITMAP
0180
0300
0200
0600
0000
1F80
3B80
7380
E380
E380
E700
E700
E700
FF80
7300
ENDCHAR
STARTCHAR c.end
ENCODING -1
SWIDTH 341 0
DWIDTH 7 0
BBX 7 10 0 0
BITMAP
1E
32
72
E4
E0
E0
E0
E4
FC
78
ENDCHAR
STARTCHAR d.end
ENCODING -1
SWIDTH 476 0
DWIDTH 10 0
BBX 10 14 0 0
BITMAP
00C0
01C0
01C0
01C0
1D80
3B80
7380
E380
E380
E300
E700
E700
FFC0
7380
ENDCHAR
STARTCHAR e.end
ENCODING -1
SWIDTH 366 0
DWIDTH 7 0
BBX 7 10 0 0
BITMAP
1E
3A
72
E6
EC
F8
E0
E2
FC
78
ENDCHAR
STARTCHAR eacute.end
ENCODING -1
SWIDTH 367 0
DWIDTH 7 0
BBX 8 15 0 0
BITMAP
03
06
06
0C
00
1E
3A
72
E6
EC
F8
E0
E2
FC
78
ENDCHAR
STARTCHAR uni0292.end
ENCODING -1
SWIDTH 391 0
DWIDTH 8 0
BBX 8 15 0 -5
BITMAP
7F
CE
CC
1C
38
38
70
38
1C
1C
3C
5C
9C
98
70
ENDCHAR
STARTCHAR g.end
ENCODING -1
SWIDTH 480 0
DWIDTH 10 0
BBX 10 15 0 -5
BITMAP
1DC0
3B80
7380
E380
E380
E300
E700
E700
FF00
7700
1E00
6E00
4E00
4C00
3800
ENDCHAR
STARTCHAR uni01E5.end
ENCODING -1
SWIDTH 507 0
DWIDTH 10 0
BBX 10 15 0 -5
BITMAP
1DC0
3B80
7380
E380
E380
E300
E700
E700
FF00
7700
1E00
2E00
FF00
4E00
3C00
ENDCHAR
STARTCHAR h.end
ENCODING -1
SWIDTH 453 0
DWIDTH 9 0
BBX 10 14 -1 0
BITMAP
1C00
1C00
1C00
3800
3F80
3980
39C0
3180
7380
7380
7380
7380
63C0
E380
ENDCHAR
STARTCHAR i.end
ENCODING -1
SWIDTH 209 0
DWIDTH 4 0
BBX 5 14 0 0
BITMAP
38
38
38
00
70
70
70
60
E0
E0
E0
E0
F0
60
ENDCHAR
STARTCHAR iacute.end
ENCODING -1
SWIDTH 209 0
DWIDTH 4 0
BBX 6 15 0 0
BITMAP
0C
18
18
30
00
70
70
70
60
E0
E0
E0
E0
F0
60
ENDCHAR
STARTCHAR ij.end
ENCODING -1
SWIDTH 480 0
DWIDTH 10 0
BBX 10 19 0 -5
BITMAP
39C0
39C0
39C0
0000
71C0
7380
7380
6380
E380
E300
E700
E700
F700
6700
1E00
2E00
4E00
7C00
3800
ENDCHAR
STARTCHAR j.end
ENCODING -1
SWIDTH 213 0
DWIDTH 4 0
BBX 9 19 -4 -5
BITMAP
0300
0380
0300
0000
0700
0700
0700
0700
0E00
0E00
0E00
0E00
0C00
1C00
7C00
DC00
9C00
B800
7000
ENDCHAR
STARTCHAR k.end
ENCODING -1
SWIDTH 472 0
DWIDTH 9 0
BBX 10 14 -1 0
BITMAP
1C00
1C00
1C00
3800
38C0
3900
3A00
3F80
7F80
7380
7380
7380
63C0
E1C0
ENDCHAR
STARTCHAR l.end
ENCODING -1
SWIDTH 207 0
DWIDTH 4 0
BBX 5 14 0 0
BITMAP
38
38
38
70
70
70
70
60
E0
E0
E0
E0
F0
E0
ENDCHAR
STARTCHAR m.end
ENCODING -1
SWIDTH 701 0
DWIDTH 14 0
BBX 15 10 -1 0
BITMAP
3FBC
39CC
39CE
338C
739C
739C
739C
739C
671E
E71C
ENDCHAR
STARTCHAR n.end
ENCODING -1
SWIDTH 454 0
DWIDTH 9 0
BBX 10 10 -1 0
BITMAP
3F80
39C0
39C0
3180
7380
7380
7380
7380
63C0
E380
ENDCHAR
STARTCHAR o.end
ENCODING -1
SWIDTH 487 0
DWIDTH 10 0
BBX 10 10 0 0
BITMAP
1E00
3A40
7380
E700
E300
E200
E200
E600
EC00
7800
ENDCHAR
STARTCHAR oacute.end
ENCODING -1
SWIDTH 487 0
DWIDTH 10 0
BBX 10 15 0 0
BITMAP
0300
0200
0600
0C00
0000
1E00
3A40
7380
E300
E300
E300
E200
E600
EC00
7800
ENDCHAR
STARTCHAR s.end
ENCODING -1
SWIDTH 316 0
DWIDTH 6 0
BBX 7 10 -1 0
BITMAP
0E
1E
1E
1E
2E
2E
6E
CE
4E
7C
ENDCHAR
STARTCHAR t.end
ENCODING -1
SWIDTH 276 0
DWIDTH 6 0
BBX 6 13 0 0
BITMAP
38
38
30
7C
70
70
70
60
E0
E0
E0
F0
E0
ENDCHAR
STARTCHAR u.end
ENCODING -1
SWIDTH 459 0
DWIDTH 9 0
BBX 9 10 0 0
BITMAP
7380
7380
7380
6300
E700
E700
E700
EF00
FF80
7300
ENDCHAR
STARTCHAR uacute.end
ENCODING -1
SWIDTH 459 0
DWIDTH 9 0
BBX 9 15 0 0
BITMAP
0300
0600
0600
0C00
0000
7380
7380
7380
6300
E700
E700
E700
EF00
FF80
7300
ENDCHAR
STARTCHAR x.end
ENCODING -1
SWIDTH 500 0
DWIDTH 10 0
BBX 10 11 0 0
BITMAP
00C0
1CC0
2E40
4E80
4F00
8F00
8E00
0F00
1700
2780
4380
ENDCHAR
STARTCHAR y.end
ENCODING -1
SWIDTH 460 0
DWIDTH 9 0
BBX 9 15 0 -5
BITMAP
7380
7380
7380
6300
E700
E700
E700
EF00
FE00
7E00
3E00
4E00
4E00
5C00
3800
ENDCHAR
STARTCHAR k.salt
ENCODING -1
SWIDTH 518 0
DWIDTH 10 0
BBX 12 14 -1 0
BITMAP
0C00
1C00
1C00
1800
38C0
3BC0
3C00
3F80
7B80
7380
7390
7390
63E0
E1C0
ENDCHAR
STARTCHAR p.salt
ENCODING -1
SWIDTH 482 0
DWIDTH 10 0
BBX 13 16 -2 -5
BITMAP
0C00
1DC0
1FC0
1CE0
1CE0
38E8
38F0
3BC0
3EC0
3780
7700
7000
7000
7000
E000
C000
ENDCHAR
STARTCHAR E_x
ENCODING -1
SWIDTH 797 0
DWIDTH 16 0
BBX 17 15 0 0
BITMAP
078000
0CC000
1CC000
18C000
198600
1C0700
0E7300
3C7200
783400
703C00
F03800
F03880
F07900
719F00
3E1C00
ENDCHAR
STARTCHAR F_i
ENCODING -1
SWIDTH 726 0
DWIDTH 15 0
BBX 15 15 0 0
BITMAP
0FFE
37FC
6738
C600
CE00
CE78
4FB8
0E38
0C38
1C30
1C70
1C72
1C72
387C
3838
ENDCHAR
STARTCHAR T_h
ENCODING -1
SWIDTH 971 0
DWIDTH 19 0
BBX 20 15 0 0
BITMAP
0FFE00
33FC00
639C00
C31C00
C71C00
C71B80
471DC0
0739C0
0E39C0
0E39C0
0E3380
0E7380
0E7390
1C73A0
1C71C0
ENDCHAR
STARTCHAR T_i
ENCODING -1
SWIDTH 744 0
DWIDTH 15 0
BBX 16 15 0 0
BITMAP
0FFE
33FE
63BC
C300
C700
C71C
C718
0738
0638
0E38
0E38
0E31
0E72
1C7E
1C38
ENDCHAR
STARTCHAR a_x
ENCODING -1
SWIDTH 899 0
DWIDTH 18 0
BBX 19 11 0 0
BITMAP
000180
1DDDC0
3B9CC0
739C80
E38D80
E38F00
E30E00
E70E20
E71E40
FFE7C0
73C780
ENDCHAR
STARTCHAR a_z
ENCODING -1
SWIDTH 906 0
DWIDTH 18 0
BBX 18 10 0 0
BITMAP
1DCFC0
3B9380
739B80
E38700
E38700
E30E00
E70C00
E71D80
FFB880
73BF00
ENDCHAR
STARTCHAR b_s
ENCODING -1
SWIDTH 799 0
DWIDTH 16 0
BBX 17 14 0 0
BITMAP
380000
380000
380000
700200
7E1C00
7F3C00
735C00
739C00
E30C00
E30E00
E76E80
E68F00
FCDC00
787800
ENDCHAR
STARTCHAR b_s_x
ENCODING -1
SWIDTH 1144 0
DWIDTH 23 0
BBX 24 14 0 0
BITMAP
380000
380000
380000
70020C
7E1CEE
7F3CE6
735CE4
739C6C
E30C68
E30E70
E76E71
E68FF2
FCDC3E
787838
ENDCHAR
STARTCHAR b_s_z
ENCODING -1
SWIDTH 1158 0
DWIDTH 23 0
BBX 23 14 0 0
BITMAP
380000
380000
380000
700200
7E1C7E
7F3C8C
735CDC
739C38
E30C38
E30E70
E76E60
E68EEC
FCDDC4
7879F8
ENDCHAR
STARTCHAR c_x
ENCODING -1
SWIDTH 755 0
DWIDTH 15 0
BBX 16 11 0 0
BITMAP
0004
1EEE
32E2
7264
E474
E078
E070
E071
E0B2
E33E
7C3C
ENDCHAR
STARTCHAR c_z
ENCODING -1
SWIDTH 769 0
DWIDTH 15 0
BBX 15 10 0 0
BITMAP
1E7E
324C
72DC
E418
E038
E070
E060
E4E6
FCF4
79FC
ENDCHAR
STARTCHAR e_x
ENCODING -1
SWIDTH 762 0
DWIDTH 15 0
BBX 16 11 0 0
BITMAP
0004
1EEE
3A62
7274
E674
EC78
F870
E070
E0B9
E33E
7C1C
ENDCHAR
STARTCHAR e_z
ENCODING -1
SWIDTH 788 0
DWIDTH 16 0
BBX 16 10 0 0
BITMAP
1E7F
32CE
72CC
E61C
EC38
F838
E070
E466
FCE6
79FC
ENDCHAR
STARTCHAR eacute_x
ENCODING -1
SWIDTH 760 0
DWIDTH 15 0
BBX 16 15 0 0
BITMAP
0300
0300
0600
0400
0804
1EEE
3AE2
7264
E674
EC78
F870
E070
E0B9
E33E
7C1C
ENDCHAR
STARTCHAR f_f_t
ENCODING -1
SWIDTH 780 0
DWIDTH 16 0
BBX 20 20 -4 -5
BITMAP
01EF80
039CE0
0398E0
03B8E0
0738E0
07FFF0
0739C0
0731C0
0771C0
0E71C0
0E7380
0E7390
0EE390
0CE3E0
1FE1C0
7CE000
DCC000
9DC000
B9C000
778000
ENDCHAR
STARTCHAR f_i_x
ENCODING -1
SWIDTH 898 0
DWIDTH 18 0
BBX 23 20 -4 -5
BITMAP
00F800
01CC00
039C00
039C00
030018
07DDDC
0739CC
0739C8
0738D8
0E38F0
0E30E0
0E70E2
0E71E4
0E7E7C
1C3878
3C0000
DC0000
9C0000
B80000
700000
ENDCHAR
STARTCHAR f_i_z
ENCODING -1
SWIDTH 904 0
DWIDTH 18 0
BBX 22 20 -4 -5
BITMAP
00F800
01CC00
039C00
039800
030000
07DCFC
073938
0739B8
073870
0E3870
0E30E0
0E70C0
0E71D8
0E7F88
1C3BF0
3C0000
DC0000
9C0000
B80000
700000
ENDCHAR
STARTCHAR f_l_x
ENCODING -1
SWIDTH 912 0
DWIDTH 18 0
BBX 23 20 -4 -5
BITMAP
01F000
038E00
038C00
039C00
071C08
07DDDC
071CC4
0738E8
0738E8
0E38F0
0E38E0
0E30E2
0E7172
0E3E7C
1C3C38
7C0000
DC0000
9C0000
B80000
700000
ENDCHAR
STARTCHAR f_l_z
ENCODING -1
SWIDTH 938 0
DWIDTH 19 0
BBX 23 20 -4 -5
BITMAP
01F000
038E00
038C00
039C00
071C00
07DCFE
071D9C
073998
073838
0E3870
0E3870
0E38E0
0E70EC
0E3DCC
1C3BF8
7C0000
DC0000
9C0000
B80000
700000
ENDCHAR
STARTCHAR f_t
ENCODING -1
SWIDTH 548 0
DWIDTH 11 0
BBX 16 20 -4 -5
BITMAP
01F0
038E
038C
039C
071C
07FE
071C
0718
0738
0E38
0E38
0E39
0E72
0E3E
1C38
7C00
DC00
9C00
B800
7000
ENDCHAR
STARTCHAR f_u
ENCODING -1
SWIDTH 772 0
DWIDTH 15 0
BBX 20 20 -4 -5
BITMAP
01E000
039000
039000
038000
070000
07FCE0
0739C0
0739C0
0739C0
0E39C0
0E3380
0E7390
0E7390
0C7FE0
1C39C0
7C0000
DC0000
9C0000
B80000
700000
ENDCHAR
STARTCHAR f_x
ENCODING -1
SWIDTH 663 0
DWIDTH 13 0
BBX 18 20 -4 -5
BITMAP
01E000
039000
039000
038000
070100
07FB80
073880
071D00
071F00
0E1E00
0E1C00
0E3C40
0E4E40
0CEF80
1CE700
7C0000
9C0000
9C0000
B80000
700000
ENDCHAR
STARTCHAR g_p
ENCODING -1
SWIDTH 975 0
DWIDTH 20 0
BBX 19 16 0 -5
BITMAP
000E00
1DDDC0
3B9EE0
739CE0
E39CE0
E398E0
E338E0
E738C0
E739C0
FF3F80
77FF00
1E7000
3E7000
6E7000
6C7000
38C000
ENDCHAR
STARTCHAR g_x
ENCODING -1
SWIDTH 892 0
DWIDTH 18 0
BBX 19 16 0 -5
BITMAP
000180
1DDDC0
3B9C80
739C80
E39D00
E38F00
E30E00
E70E20
E71E40
FF67C0
778700
1E0000
3E0000
6E0000
6C0000
380000
ENDCHAR
STARTCHAR g_z
ENCODING -1
SWIDTH 907 0
DWIDTH 18 0
BBX 18 15 0 -5
BITMAP
1DCFC0
3B9180
739B80
E38700
E38700
E30E00
E70C00
E71D80
FF3880
773F00
1E0000
2E0000
4E0000
4C0000
380000
ENDCHAR
STARTCHAR i_x
ENCODING -1
SWIDTH 631 0
DWIDTH 13 0
BBX 13 14 0 0
BITMAP
3800
3800
3800
0030
73B0
7390
7390
63A0
E3C0
E180
E1C8
E7C8
FDF0
70E0
ENDCHAR
STARTCHAR i_z
ENCODING -1
SWIDTH 637 0
DWIDTH 13 0
BBX 13 14 0 0
BITMAP
3800
3800
3800
0000
73F8
7670
7660
70E0
E1C0
E1C0
E380
E3B0
F730
7FE0
ENDCHAR
STARTCHAR iacute_x
ENCODING -1
SWIDTH 631 0
DWIDTH 13 0
BBX 13 15 0 0
BITMAP
0C00
1800
1800
3000
0030
73B0
7390
7390
63A0
E3C0
E180
E1C8
E7C8
FDF0
70E0
ENDCHAR
STARTCHAR iacute_z
ENCODING -1
SWIDTH 637 0
DWIDTH 13 0
BBX 13 15 0 0
BITMAP
0C00
1800
1800
3000
0000
73F8
7670
7660
70E0
E1C0
E1C0
E380
E3B0
F730
7FE0
ENDCHAR
STARTCHAR j_x
ENCODING -1
SWIDTH 624 0
DWIDTH 12 0
BBX 17 19 -4 -5
BITMAP
030000
038000
030000
000300
077300
073900
073900
063A00
0E3C00
0E1800
0E3C80
0E7C80
0CDF00
1F0E00
3C0000
5C0000
9C0000
B80000
700000
ENDCHAR
STARTCHAR j_z
ENCODING -1
SWIDTH 618 0
DWIDTH 12 0
BBX 16 19 -4 -5
BITMAP
0380
0380
0380
0000
073F
0766
076E
070C
0E1C
0E38
0E38
0E73
0E72
1CFE
3C00
DC00
9C00
B800
7000
ENDCHAR
STARTCHAR l_x
ENCODING -1
SWIDTH 631 0
DWIDTH 13 0
BBX 13 14 0 0
BITMAP
3800
3800
3800
3030
73B0
7390
7390
73A0
E3C0
E180
E1C8
E7C8
FDF0
70E0
ENDCHAR
STARTCHAR l_z
ENCODING -1
SWIDTH 635 0
DWIDTH 13 0
BBX 13 14 0 0
BITMAP
3800
3800
3800
7000
73F8
7670
76E0
60E0
E1C0
E1C0
E380
E330
F730
EFE0
ENDCHAR
STARTCHAR m_x
ENCODING -1
SWIDTH 1124 0
DWIDTH 22 0
BBX 24 11 -1 0
BITMAP
000006
3BBCE6
3DCC72
39CE76
338C74
739C78
739C30
739C79
739CF9
671FBE
E71E1C
ENDCHAR
STARTCHAR m_z
ENCODING -1
SWIDTH 1125 0
DWIDTH 23 0
BBX 24 10 -1 0
BITMAP
3BBC7F
3DCCCE
39CE9C
338C1C
739C38
739C30
739C70
739CE6
671EE6
E71DFC
ENDCHAR
STARTCHAR n_z
ENCODING -1
SWIDTH 882 0
DWIDTH 18 0
BBX 19 10 -1 0
BITMAP
3B8FE0
3D99C0
39CB80
318380
738700
738700
738E00
738CC0
63DCC0
E3BF80
ENDCHAR
STARTCHAR o_ae
ENCODING -1
SWIDTH 1089 0
DWIDTH 22 0
BBX 22 10 0 0
BITMAP
1E0F78
3B33E8
73C1C8
E70398
E33FB0
E273E0
E27380
E66784
EC7F88
7879F0
ENDCHAR
STARTCHAR o_s
ENCODING -1
SWIDTH 786 0
DWIDTH 16 0
BBX 17 10 0 0
BITMAP
1E1C00
3A3C00
735C00
E79C00
E31C00
E31C00
E2FC80
E69F00
EC9C00
787800
ENDCHAR
STARTCHAR o_s_x
ENCODING -1
SWIDTH 1132 0
DWIDTH 23 0
BBX 23 11 0 0
BITMAP
00000C
1E1CEC
3A3CE4
735CE4
E39CE8
E31CF8
E31C70
E6FCF0
E69F72
FC9C7C
787838
ENDCHAR
STARTCHAR o_s_z
ENCODING -1
SWIDTH 1139 0
DWIDTH 23 0
BBX 23 10 0 0
BITMAP
1E1CFE
3A3D9C
735D98
E79C38
E31C70
E31C70
E2FCE0
E69CEC
EC9DCC
787BF8
ENDCHAR
STARTCHAR o_x
ENCODING -1
SWIDTH 851 0
DWIDTH 17 0
BBX 18 11 0 0
BITMAP
000300
1E3B80
3A3880
737900
E79B00
E31E00
E21C00
E27C40
E6DC80
EC8F80
78CF00
ENDCHAR
STARTCHAR oacute_s
ENCODING -1
SWIDTH 787 0
DWIDTH 16 0
BBX 17 15 0 0
BITMAP
030000
020000
060000
0C0000
000000
1E1C00
3A3C00
735C00
E39C00
E31C00
E31C00
E2FC80
E69F00
EC9C00
787800
ENDCHAR
STARTCHAR oacute_s_x
ENCODING -1
SWIDTH 1141 0
DWIDTH 23 0
BBX 23 15 0 0
BITMAP
030000
020000
060000
0C0000
000000
1E1CFE
3A3C9C
735D98
E39C38
E31C70
E31C70
E2FCE0
E69CEC
EC9DCC
787BF8
ENDCHAR
STARTCHAR oacute_s_z
ENCODING -1
SWIDTH 1140 0
DWIDTH 23 0
BBX 23 15 0 0
BITMAP
030000
020000
060000
0C0000
000000
1E1CFE
3A3D9C
735D98
E39C38
E31C70
E31C70
E2FCE0
E69CEC
EC9DCC
787BF8
ENDCHAR
STARTCHAR oacute_x
ENCODING -1
SWIDTH 852 0
DWIDTH 17 0
BBX 18 15 0 0
BITMAP
030000
020000
060000
0C0000
000300
1E3B80
3B3880
737900
E79B00
E31E00
E31C00
E27C40
E6DC80
EC8F80
78CF00
ENDCHAR
STARTCHAR r_x
ENCODING -1
SWIDTH 784 0
DWIDTH 16 0
BBX 18 11 -1 0
BITMAP
000300
3B7300
3FB900
393900
303A00
703C00
703C00
705C40
709C80
60CF00
E0CE00
ENDCHAR
STARTCHAR r_z
ENCODING -1
SWIDTH 654 0
DWIDTH 13 0
BBX 14 10 -1 0
BITMAP
3BFC
3FB8
3938
3870
7060
70E0
70C0
71D8
63C8
E3F0
ENDCHAR
STARTCHAR s_x
ENCODING -1
SWIDTH 727 0
DWIDTH 15 0
BBX 16 11 -1 0
BITMAP
0206
0E66
1E72
1E72
2E74
2E78
4E30
6E79
8FB9
4E3E
7C1C
ENDCHAR
STARTCHAR s_z
ENCODING -1
SWIDTH 744 0
DWIDTH 15 0
BBX 16 11 -1 0
BITMAP
0200
0E7F
1E4E
1ECC
2E1C
2E18
6E38
6E70
CE76
4EE6
7DFC
ENDCHAR
STARTCHAR t_x
ENCODING -1
SWIDTH 631 0
DWIDTH 13 0
BBX 13 13 0 0
BITMAP
1800
3800
3030
7FB0
7390
7390
73A0
E3C0
E180
E1C8
E7C8
FDF0
F0E0
ENDCHAR
STARTCHAR t_z
ENCODING -1
SWIDTH 704 0
DWIDTH 14 0
BBX 14 13 0 0
BITMAP
3800
3800
3000
7CFC
7138
71B8
7070
6070
E0E0
E0C0
E1D8
F388
E3F0
ENDCHAR
STARTCHAR u_v
ENCODING -1
SWIDTH 923 0
DWIDTH 18 0
BBX 18 10 0 0
BITMAP
739CC0
739CC0
739C40
631C40
E718C0
E73880
E73880
EF3900
FE3F00
7E1C00
ENDCHAR
STARTCHAR u_x
ENCODING -1
SWIDTH 878 0
DWIDTH 18 0
BBX 18 11 0 0
BITMAP
000180
739980
739C80
739C80
631D00
E71E00
E70C00
E70E40
EF3E40
FFEF80
738700
ENDCHAR
STARTCHAR y_p
ENCODING -1
SWIDTH 954 0
DWIDTH 19 0
BBX 19 16 0 -5
BITMAP
001C00
739FC0
739CC0
7398E0
6338E0
E738C0
E739C0
E739C0
EF71C0
FE7F80
7FFF00
1E7000
6E6000
4CE000
7CE000
38C000
ENDCHAR
STARTCHAR y_x
ENCODING -1
SWIDTH 871 0
DWIDTH 17 0
BBX 18 16 0 -5
BITMAP
000180
73B980
739C80
739D80
631D00
E71E00
E71C00
E71C40
EF3E40
FE6F80
7F8700
1E0000
6E0000
4C0000
7C0000
380000
ENDCHAR
STARTCHAR y_z
ENCODING -1
SWIDTH 888 0
DWIDTH 18 0
BBX 18 15 0 -5
BITMAP
739FC0
73B380
73B300
630700
E70E00
E70E00
E71C00
EF1980
FE3980
7E7F00
1E0000
6E0000
4E0000
5C0000
380000
ENDCHAR
STARTCHAR a_x.end
ENCODING -1
SWIDTH 884 0
DWIDTH 18 0
BBX 18 11 0 0
BITMAP
000180
1DDDC0
3B9CC0
739C80
E38D80
E38F00
E30E00
E70E00
E71E00
FFE780
73C700
ENDCHAR
STARTCHAR b_s.end
ENCODING -1
SWIDTH 731 0
DWIDTH 15 0
BBX 15 14 0 0
BITMAP
3800
3800
3800
7002
7E1C
7F3C
735C
739C
E30C
E30E
E76E
E68E
FCDC
7878
ENDCHAR
STARTCHAR e_x.end
ENCODING -1
SWIDTH 747 0
DWIDTH 15 0
BBX 15 11 0 0
BITMAP
0004
1EEE
3A62
7274
E674
EC78
F870
E070
E0F0
E33C
7C1C
ENDCHAR
STARTCHAR f_u.end
ENCODING -1
SWIDTH 724 0
DWIDTH 14 0
BBX 19 20 -4 -5
BITMAP
01E000
039000
039000
038000
070000
07FCE0
0739C0
0739C0
0739C0
0E39C0
0E3380
0E7380
0E7380
0C7FC0
1C39C0
7C0000
DC0000
9C0000
B80000
700000
ENDCHAR
STARTCHAR fi.end
ENCODING -1
SWIDTH 479 0
DWIDTH 10 0
BBX 14 20 -4 -5
BITMAP
00F8
01CC
039C
0398
0300
07DC
0738
0738
0738
0E38
0E30
0E70
0E70
0E7C
1C38
3C00
DC00
9C00
B800
7000
ENDCHAR
STARTCHAR fl.end
ENCODING -1
SWIDTH 490 0
DWIDTH 10 0
BBX 15 20 -4 -5
BITMAP
01F0
038E
038C
039C
071C
07DC
071C
0738
0738
0E38
0E38
0E30
0E70
0E3C
1C38
7C00
DC00
9C00
B800
7000
ENDCHAR
STARTCHAR i_x.end
ENCODING -1
SWIDTH 616 0
DWIDTH 12 0
BBX 12 14 0 0
BITMAP
3800
3800
3800
0030
73B0
7390
7390
63A0
E3C0
E180
E1C0
E7C0
FDF0
70E0
ENDCHAR
STARTCHAR o_s.end
ENCODING -1
SWIDTH 718 0
DWIDTH 14 0
BBX 14 10 0 0
BITMAP
1E1C
3A3C
735C
E79C
E31C
E31C
E2FC
E69C
EC9C
7878
ENDCHAR
STARTCHAR oacute_s.end
ENCODING -1
SWIDTH 719 0
DWIDTH 14 0
BBX 14 15 0 0
BITMAP
0300
0200
0600
0C00
0000
1E1C
3A3C
735C
E39C
E31C
E31C
E2FC
E69C
EC9C
7878
ENDCHAR
STARTCHAR u_x.end
ENCODING -1
SWIDTH 863 0
DWIDTH 17 0
BBX 17 11 0 0
BITMAP
000180
739980
739C80
739C80
631D00
E71E00
E70C00
E70E00
EF3E00
FFEF00
738700
ENDCHAR
STARTCHAR uni0424.loclBGR
ENCODING -1
SWIDTH 840 0
DWIDTH 17 0
BBX 17 18 0 -2
BITMAP
07F000
0C7000
186000
08E000
07FC00
1CE600
30C300
71C300
61C380
E1C380
E1C300
E38700
738E00
739C00
3FF800
030000
070000
070000
ENDCHAR
STARTCHAR uni0492.loclBSH
ENCODING -1
SWIDTH 459 0
DWIDTH 9 0
BBX 12 15 0 0
BITMAP
0FF0
37E0
6E00
CE00
CE00
CE40
4F80
1C00
1C00
1C00
1C00
1800
3800
3800
3800
ENDCHAR
STARTCHAR uni04AA.loclCHU
ENCODING -1
SWIDTH 497 0
DWIDTH 10 0
BBX 11 19 0 -4
BITMAP
07C0
0E40
1C60
3860
38C0
7000
7000
7000
F000
F000
F000
F020
70C0
7F80
3E00
0800
0E00
0200
1C00
ENDCHAR
STARTCHAR uni0418.loclSRB
ENCODING -1
SWIDTH 705 0
DWIDTH 14 0
BBX 15 15 0 0
BITMAP
070E
1F1C
671C
6E3C
CE3C
CE7C
4EF8
0DB8
1F38
1F38
1E30
1C70
1870
3870
3870
ENDCHAR
STARTCHAR uni0419.loclSRB
ENCODING -1
SWIDTH 705 0
DWIDTH 14 0
BBX 15 19 0 0
BITMAP
0184
01C8
01F0
0000
070E
1F1C
671C
6E3C
CE3C
CE7C
4EF8
0DB8
1F38
1F38
1E30
1C70
1870
3870
3870
ENDCHAR
STARTCHAR uni0430.end
ENCODING -1
SWIDTH 467 0
DWIDTH 9 0
BBX 10 10 0 0
BITMAP
1DC0
3B80
7380
E380
E380
E300
E700
E700
FF80
7380
ENDCHAR
STARTCHAR uni0432.end
ENCODING -1
SWIDTH 406 0
DWIDTH 8 0
BBX 8 15 0 0
BITMAP
0E
1D
19
39
33
72
72
EE
EF
E3
E3
E3
E2
E4
78
ENDCHAR
STARTCHAR uni0434.end
ENCODING -1
SWIDTH 480 0
DWIDTH 10 0
BBX 10 15 0 -5
BITMAP
1DC0
3B80
7380
E380
E380
E300
E700
E700
FF00
7700
1E00
6E00
4E00
4C00
3800
ENDCHAR
STARTCHAR uni0435.end
ENCODING -1
SWIDTH 366 0
DWIDTH 7 0
BBX 7 10 0 0
BITMAP
1E
3A
72
E6
EC
F8
E0
E2
FC
78
ENDCHAR
STARTCHAR uni0451.end
ENCODING -1
SWIDTH 366 0
DWIDTH 7 0
BBX 8 14 0 0
BITMAP
1B
3B
00
00
1E
3A
72
E6
EC
F8
E0
E2
FC
78
ENDCHAR
STARTCHAR uni0436.end
ENCODING -1
SWIDTH 848 0
DWIDTH 17 0
BBX 18 10 -1 0
BITMAP
3C73C0
2E7740
466640
06EE00
07FC00
06EC00
4EEC00
CCCC00
DDCE40
71C780
ENDCHAR
STARTCHAR uni0437.end
ENCODING -1
SWIDTH 426 0
DWIDTH 9 0
BBX 9 15 0 -5
BITMAP
1E00
2700
4700
4780
8700
8700
8E00
3C00
0E00
0E00
1E00
2E00
4E00
4C00
3800
ENDCHAR
STARTCHAR uni0438.end
ENCODING -1
SWIDTH 459 0
DWIDTH 9 0
BBX 9 10 0 0
BITMAP
7380
7380
7380
6300
E700
E700
E700
EF00
FF80
7300
ENDCHAR
STARTCHAR uni0439.end
ENCODING -1
SWIDTH 459 0
DWIDTH 9 0
BBX 9 14 0 0
BITMAP
1880
1980
1F00
0000
7380
7380
7380
6300
E700
E700
E700
EF00
FF80
7300
ENDCHAR
STARTCHAR uni043A.end
ENCODING -1
SWIDTH 501 0
DWIDTH 10 0
BBX 11 10 -1 0
BITMAP
38E0
39E0
3A00
3600
7F80
7380
7380
7380
63C0
E1C0
ENDCHAR
STARTCHAR uni043B.end
ENCODING -1
SWIDTH 511 0
DWIDTH 10 0
BBX 11 10 -1 0
BITMAP
03E0
02E0
04E0
04C0
04C0
0DC0
49C0
E9C0
D9E0
70C0
ENDCHAR
STARTCHAR uni043C.end
ENCODING -1
SWIDTH 780 0
DWIDTH 16 0
BBX 17 10 -1 0
BITMAP
018780
038700
058F00
058F00
059700
099600
49EE00
E9EE00
D9CF80
71C700
ENDCHAR
STARTCHAR uni043D.end
ENCODING -1
SWIDTH 460 0
DWIDTH 9 0
BBX 10 10 -1 0
BITMAP
39C0
39C0
39C0
31C0
7F80
7380
7380
7380
6380
E1C0
ENDCHAR
STARTCHAR uni043E.end
ENCODING -1
SWIDTH 439 0
DWIDTH 9 0
BBX 8 10 0 0
BITMAP
1E
3B
73
E3
E3
E3
E2
E6
EC
78
ENDCHAR
STARTCHAR uni043F.end
ENCODING -1
SWIDTH 454 0
DWIDTH 9 0
BBX 10 10 -1 0
BITMAP
3F80
39C0
39C0
3180
7380
7380
7380
7380
63C0
E380
ENDCHAR
STARTCHAR uni0441.end
ENCODING -1
SWIDTH 341 0
DWIDTH 7 0
BBX 7 10 0 0
BITMAP
1E
32
72
E4
E0
E0
E0
E4
FC
78
ENDCHAR
STARTCHAR uni0442.end
ENCODING -1
SWIDTH 701 0
DWIDTH 14 0
BBX 15 10 -1 0
BITMAP
3FBC
39CC
39CE
338C
739C
739C
739C
739C
671E
E71C
ENDCHAR
STARTCHAR uni0443.end
ENCODING -1
SWIDTH 460 0
DWIDTH 9 0
BBX 9 15 0 -5
BITMAP
7380
7380
7380
6300
E700
E700
E700
EF00
FE00
7E00
3E00
4E00
4E00
5C00
3800
ENDCHAR
STARTCHAR uni0445.end
ENCODING -1
SWIDTH 500 0
DWIDTH 10 0
BBX 10 11 0 0
BITMAP
00C0
1CC0
2E40
4E80
4F00
8F00
8E00
0F00
1700
2780
4380
ENDCHAR
STARTCHAR uni0447.end
ENCODING -1
SWIDTH 459 0
DWIDTH 9 0
BBX 9 10 0 0
BITMAP
7380
7380
7380
6300
E700
7F00
7700
0700
0780
0700
ENDCHAR
STARTCHAR uni0448.end
ENCODING -1
SWIDTH 706 0
DWIDTH 14 0
BBX 14 10 0 0
BITMAP
739C
739C
739C
6338
E738
E738
E738
EF78
FFFC
73B8
ENDCHAR
STARTCHAR uni044B.end
ENCODING -1
SWIDTH 608 0
DWIDTH 12 0
BBX 12 10 0 0
BITMAP
7030
7070
71F0
6E60
E260
E2E0
E6E0
E6E0
FCF0
7860
ENDCHAR
STARTCHAR uni0455.end
ENCODING -1
SWIDTH 316 0
DWIDTH 6 0
BBX 7 10 -1 0
BITMAP
0E
1E
1E
1E
2E
2E
6E
CE
4E
7C
ENDCHAR
STARTCHAR uni0456.end
ENCODING -1
SWIDTH 209 0
DWIDTH 4 0
BBX 5 14 0 0
BITMAP
38
38
38
00
70
70
70
60
E0
E0
E0
E0
F0
60
ENDCHAR
STARTCHAR uni0458.end
ENCODING -1
SWIDTH 213 0
DWIDTH 4 0
BBX 9 19 -4 -5
BITMAP
0300
0380
0300
0000
0700
0700
0700
0700
0E00
0E00
0E00
0E00
0C00
1C00
7C00
DC00
9C00
B800
7000
ENDCHAR
STARTCHAR uni044E.end
ENCODING -1
SWIDTH 675 0
DWIDTH 14 0
BBX 13 10 -1 0
BITMAP
3878
39C8
39C8
3B88
7F88
7388
7718
7710
63B0
E1E0
ENDCHAR
STARTCHAR uni044F.end
ENCODING -1
SWIDTH 480 0
DWIDTH 10 0
BBX 11 10 -1 0
BITMAP
0FE0
1CC0
39C0
39C0
39C0
1F80
0980
EB80
DBE0
71C0
ENDCHAR
STARTCHAR uni0437.init
ENCODING -1
SWIDTH 455 0
DWIDTH 9 0
BBX 10 15 0 -5
BITMAP
3C00
4E00
4700
8700
0E00
0E00
1C00
7840
1C80
1D00
1E00
7C00
DC00
9800
7000
ENDCHAR
STARTCHAR uni0445.init
ENCODING -1
SWIDTH 390 0
DWIDTH 8 0
BBX 10 11 -1 0
BITMAP
0300
3380
3900
3900
3A00
1C00
3C00
5C40
9C80
CF80
CE00
ENDCHAR
STARTCHAR uni0436.loclBGR
ENCODING -1
SWIDTH 882 0
DWIDTH 18 0
BBX 19 14 -1 0
BITMAP
003800
003000
003000
007000
3C73C0
2E7740
466640
06EE00
07FC00
06EC00
4EEC20
CCCC20
DDCE40
71C780
ENDCHAR
STARTCHAR uni043A.loclBGR
ENCODING -1
SWIDTH 518 0
DWIDTH 10 0
BBX 12 14 -1 0
BITMAP
1C00
1C00
1C00
3800
38C0
3900
3E00
3F80
7B80
7380
7390
7390
63E0
E1C0
ENDCHAR
STARTCHAR uni044E.loclBGR
ENCODING -1
SWIDTH 675 0
DWIDTH 14 0
BBX 17 14 -1 0
BITMAP
1C0000
1C0000
1C0000
380000
387800
39C800
39C880
3B9F00
7F8800
738800
771800
771000
63B000
E1E000
ENDCHAR
STARTCHAR uni0493.loclBSH
ENCODING -1
SWIDTH 398 0
DWIDTH 8 0
BBX 9 10 -1 0
BITMAP
3F80
3F80
7000
7000
7E00
6000
E400
E400
F800
7000
ENDCHAR
STARTCHAR uni04AB.loclCHU
ENCODING -1
SWIDTH 384 0
DWIDTH 8 0
BBX 8 14 0 -4
BITMAP
1E
3A
72
E0
E0
E0
E1
E2
FE
78
10
1C
0C
38
ENDCHAR
STARTCHAR uni0453.loclMKD
ENCODING -1
SWIDTH 267 0
DWIDTH 5 0
BBX 7 18 0 0
BITMAP
06
0C
08
10
7C
80
00
00
70
70
70
60
E0
E0
E4
E4
F8
70
ENDCHAR
STARTCHAR uni0433.loclSRB
ENCODING -1
SWIDTH 267 0
DWIDTH 5 0
BBX 6 14 0 0
BITMAP
7C
80
00
00
70
70
70
60
E0
E0
E4
E4
F8
70
ENDCHAR
STARTCHAR uni043F.loclSRB
ENCODING -1
SWIDTH 505 0
DWIDTH 10 0
BBX 11 14 0 0
BITMAP
3F80
0000
0000
0000
7380
7380
7380
6300
E700
E700
E720
EF20
FFC0
7380
ENDCHAR
STARTCHAR uni0442.loclSRB
ENCODING -1
SWIDTH 752 0
DWIDTH 15 0
BBX 16 13 0 0
BITMAP
1FFC
2000
0000
739C
739C
739C
6338
E738
E738
E739
EF7A
FFFE
73BC
ENDCHAR
STARTCHAR uni04150437
ENCODING -1
SWIDTH 940 0
DWIDTH 19 0
BBX 20 20 0 -5
BITMAP
078000
0CC000
18C000
18C000
198000
1C0F00
1E1380
382380
702380
704380
F04380
F08710
F11C20
7F0760
3C0780
000F00
003700
002700
002E00
001C00
ENDCHAR
STARTCHAR uni04150445
ENCODING -1
SWIDTH 797 0
DWIDTH 16 0
BBX 17 15 0 0
BITMAP
078000
0CC000
1CC000
18C000
198600
1C0700
0E7300
3C7200
783400
703C00
F03800
F03880
F07900
719F00
3E1C00
ENDCHAR
STARTCHAR uni04010437
ENCODING -1
SWIDTH 940 0
DWIDTH 19 0
BBX 20 23 0 -5
BITMAP
06E000
066000
000000
078000
0CC000
18C000
18C000
198000
1C0F00
1E1380
382380
702380
704380
F04380
F08710
F11C20
7F0760
3C0780
000F00
003700
002700
002E00
001C00
ENDCHAR
STARTCHAR uni04010445
ENCODING -1
SWIDTH 797 0
DWIDTH 16 0
BBX 17 19 0 0
BITMAP
066000
06E000
000000
000000
078000
0CC000
1CC000
18C000
198600
1C0700
0E7300
3C7200
783400
703C00
F03800
F03880
F07900
719F00
3E1C00
ENDCHAR
STARTCHAR uni04210437
ENCODING -1
SWIDTH 973 0
DWIDTH 19 0
BBX 20 20 0 -5
BITMAP
078000
0E4000
1C6000
386000
38C000
700780
7009C0
7011C0
F021C0
F021C0
F04380
F04380
708E10
7F0720
3E03C0
000F80
001B00
001700
001700
001E00
ENDCHAR
STARTCHAR uni04210445
ENCODING -1
SWIDTH 814 0
DWIDTH 16 0
BBX 17 15 0 0
BITMAP
07C000
0E4000
1C6000
386000
38C700
700300
707100
703A00
F03A00
F03C00
F03800
F03880
707C80
7F9F00
3E0E00
ENDCHAR
STARTCHAR uni04040437
ENCODING -1
SWIDTH 973 0
DWIDTH 19 0
BBX 20 20 0 -5
BITMAP
078000
0E4000
1C6000
386000
38C000
700780
7F09C0
7011C0
F021C0
F021C0
F04380
F04380
708E10
7F0720
3E03C0
000F80
001B00
001700
001700
001E00
ENDCHAR
STARTCHAR uni04040445
ENCODING -1
SWIDTH 814 0
DWIDTH 16 0
BBX 17 15 0 0
BITMAP
07C000
0E4000
1C6000
386000
38C700
704300
7F3100
703A00
F03E00
F03C00
F03800
F03880
707C80
7F9F00
3E0E00
ENDCHAR
STARTCHAR uni04300445
ENCODING -1
SWIDTH 899 0
DWIDTH 18 0
BBX 19 11 0 0
BITMAP
000180
1DDDC0
3B9CC0
739C80
E38D80
E38F00
E30E00
E70E20
E71E40
FFE7C0
73C780
ENDCHAR
STARTCHAR uni04300447
ENCODING -1
SWIDTH 993 0
DWIDTH 20 0
BBX 21 10 0 0
BITMAP
1DDCE0
3B9CE0
7398C0
E3B9C0
E3B9C0
E33FC0
E71DC8
E70190
FF81F0
7381C0
ENDCHAR
STARTCHAR uni04310433
ENCODING -1
SWIDTH 816 0
DWIDTH 16 0
BBX 17 15 0 0
BITMAP
002000
1FE000
1FC000
0FC000
040000
1E1E00
3A6E00
738E00
E38E00
E31E00
E37C00
E67000
E67080
EC7300
787C00
ENDCHAR
STARTCHAR uni04310453
ENCODING -1
SWIDTH 816 0
DWIDTH 16 0
BBX 17 15 0 0
BITMAP
002700
1FE600
1FC400
0FCC00
040000
1E1E00
3A6E00
738E00
E38E00
E31E00
E37C00
E67000
E67080
EC7300
787C00
ENDCHAR
STARTCHAR uni04310451
ENCODING -1
SWIDTH 814 0
DWIDTH 16 0
BBX 17 15 0 0
BITMAP
0FE000
1FD980
1FD980
0C0000
0C0000
060E00
1E3B00
733300
737300
E37600
E2FC00
E6E080
E6E100
FC7E00
787C00
ENDCHAR
STARTCHAR uni04310436
ENCODING -1
SWIDTH 1261 0
DWIDTH 25 0
BBX 26 15 0 0
BITMAP
00200000
1FE00000
1FC00000
1FC00000
0C000000
0638E380
1E5CE6C0
738CEC80
730CCC00
E30FFC00
E30DD800
E21DD800
E6D99840
E4999C80
78F38F00
ENDCHAR
STARTCHAR uni04310439
ENCODING -1
SWIDTH 935 0
DWIDTH 19 0
BBX 20 15 0 0
BITMAP
002000
1FDC40
1FDC80
1F8F00
0C0000
0639C0
1E3980
737380
737380
E37380
E37380
E66310
E6E720
FC7BE0
787380
ENDCHAR
STARTCHAR uni0431045E
ENCODING -1
SWIDTH 916 0
DWIDTH 18 0
BBX 19 20 0 -5
BITMAP
002000
1FDC40
1FDC80
1F8F00
0C0000
0639C0
1E3980
737380
737380
E37380
E37380
E66320
E6E720
FC7F40
787780
000F00
003E00
002E00
007E00
003C00
ENDCHAR
STARTCHAR uni0431044D
ENCODING -1
SWIDTH 860 0
DWIDTH 17 0
BBX 16 15 0 0
BITMAP
0020
1FE0
1FC0
1FC0
0C00
061E
1E67
7347
7387
E31F
E307
E247
E6CE
E4CC
7878
ENDCHAR
STARTCHAR uni04310456
ENCODING -1
SWIDTH 697 0
DWIDTH 14 0
BBX 15 15 0 0
BITMAP
0040
1FD8
1FBC
1F98
0C00
0638
1E38
7370
7370
E370
E370
E662
E6E4
FC7C
7870
ENDCHAR
STARTCHAR uni04310457
ENCODING -1
SWIDTH 697 0
DWIDTH 14 0
BBX 15 15 0 0
BITMAP
0FC0
1FB6
1FB6
0C00
0C00
0638
1E38
7370
7370
E370
E270
E662
E6E4
FC7C
7870
ENDCHAR
STARTCHAR uni04310458
ENCODING -1
SWIDTH 669 0
DWIDTH 13 0
BBX 14 20 0 -5
BITMAP
0040
1FD8
1FB8
1F98
0C00
0638
1E38
7370
7370
E370
E370
E260
E6E4
E4E4
78F8
01E0
06C0
05C0
05C0
0780
ENDCHAR
STARTCHAR uni04320433
ENCODING -1
SWIDTH 837 0
DWIDTH 17 0
BBX 17 15 0 0
BITMAP
0E0000
1D0000
190000
390000
330000
721E00
726F00
EF8700
EF0E00
E31E00
E33C00
E37080
E27080
E47300
783C00
ENDCHAR
STARTCHAR uni04320453
ENCODING -1
SWIDTH 837 0
DWIDTH 17 0
BBX 17 15 0 0
BITMAP
0E0300
1D0600
190400
390C00
330000
721E00
726F00
EF8700
EF0E00
E31E00
E33C00
E37080
E27080
E47300
783C00
ENDCHAR
STARTCHAR uni04320436
ENCODING -1
SWIDTH 1279 0
DWIDTH 26 0
BBX 26 15 0 0
BITMAP
0E000000
1D000000
19000000
39000000
33000000
723C6380
72CCE6C0
EF8EEEC0
EF0EEC00
E30FFC00
E30CDC00
E30DDC00
E2DDDC40
E6D9CC80
78718F00
ENDCHAR
STARTCHAR uni04320437
ENCODING -1
SWIDTH 824 0
DWIDTH 16 0
BBX 17 20 0 -5
BITMAP
0E0000
1D0000
190000
390000
310000
733C00
724E00
E28E00
EF0E00
EF0E00
E30C00
E31C00
E27080
E63900
781E00
003C00
00DC00
00B800
00B800
00F000
ENDCHAR
STARTCHAR uni04320445
ENCODING -1
SWIDTH 851 0
DWIDTH 17 0
BBX 18 15 0 0
BITMAP
0E0000
1D0000
190000
390000
310300
733B80
727880
E29900
EF1D00
EF1E00
E31C00
E31C00
E23C40
E64C80
798F00
ENDCHAR
STARTCHAR uni04330437
ENCODING -1
SWIDTH 840 0
DWIDTH 17 0
BBX 18 15 0 -5
BITMAP
3C3C00
4E4E00
8E4E00
9E8E00
3D0E00
790E00
E21C40
E27880
E41880
F81F00
003C00
005C00
009C00
00B800
007000
ENDCHAR
STARTCHAR uni04330445
ENCODING -1
SWIDTH 740 0
DWIDTH 15 0
BBX 16 11 0 0
BITMAP
000C
3CCE
4EE4
8EE4
1EE8
3C70
7870
E0F1
E172
E63E
F838
ENDCHAR
STARTCHAR uni04330447
ENCODING -1
SWIDTH 880 0
DWIDTH 18 0
BBX 18 10 0 0
BITMAP
3C7380
4E6700
8EE700
1EE700
3CEF00
79FF00
E17E40
E20E40
E40F80
F80700
ENDCHAR
STARTCHAR uni04530437
ENCODING -1
SWIDTH 840 0
DWIDTH 17 0
BBX 18 20 0 -5
BITMAP
030000
060000
040000
0C0000
000000
3C3C00
4E4E00
8E4E00
9E8E00
3D0E00
790E00
E21C40
E27880
E41880
F81F00
003C00
005C00
009C00
00B800
007000
ENDCHAR
STARTCHAR uni04530445
ENCODING -1
SWIDTH 740 0
DWIDTH 15 0
BBX 16 15 0 0
BITMAP
0300
0600
0400
0C00
000C
3CCE
4EE4
8EE4
1EE8
3C70
7870
E0F1
E172
E63E
F838
ENDCHAR
STARTCHAR uni04530447
ENCODING -1
SWIDTH 880 0
DWIDTH 18 0
BBX 18 15 0 0
BITMAP
030000
060000
040000
0C0000
000000
3C7380
4E6700
8EE700
1EE700
3CEF00
79FF00
E17E40
E20E40
E40F80
F80700
ENDCHAR
STARTCHAR uni04340447
ENCODING -1
SWIDTH 1010 0
DWIDTH 20 0
BBX 21 15 0 -5
BITMAP
1DDCE0
3B9CE0
739CE0
E39CE0
E39DC0
E33FC0
E73DC8
E721C8
FF41F0
7780E0
1E0000
3E0000
6E0000
6C0000
380000
ENDCHAR
STARTCHAR uni04340458
ENCODING -1
SWIDTH 746 0
DWIDTH 15 0
BBX 16 19 0 -5
BITMAP
000C
000E
000C
0000
1DDC
3B9C
739C
E39C
E398
E338
E739
E73A
FF3A
77FC
1E70
2E70
4E70
7FE0
39C0
ENDCHAR
STARTCHAR uni04350437
ENCODING -1
SWIDTH 876 0
DWIDTH 18 0
BBX 18 15 0 -5
BITMAP
1E1E00
3A2700
724700
E68700
EC8700
F88600
E10E00
E13840
E61C80
780F00
001E00
006E00
005C00
005C00
007800
ENDCHAR
STARTCHAR uni04350445
ENCODING -1
SWIDTH 762 0
DWIDTH 15 0
BBX 16 11 0 0
BITMAP
0004
1EEE
3A62
7274
E674
EC78
F870
E070
E0B9
E33E
7C1C
ENDCHAR
STARTCHAR uni04350447
ENCODING -1
SWIDTH 889 0
DWIDTH 18 0
BBX 19 10 0 0
BITMAP
1E7380
3A7380
726700
E6E700
ECE700
F8FF00
E17720
E20E40
E407C0
780700
ENDCHAR
STARTCHAR uni04510437
ENCODING -1
SWIDTH 876 0
DWIDTH 18 0
BBX 18 18 0 -5
BITMAP
3B0000
1B0000
000000
1E1E00
3A2700
724700
E68700
EC8700
F88600
E10E00
E13840
E61C80
780F00
001E00
006E00
005C00
005C00
007800
ENDCHAR
STARTCHAR uni04510445
ENCODING -1
SWIDTH 762 0
DWIDTH 15 0
BBX 16 14 0 0
BITMAP
1B00
3B00
0000
0004
1EEE
3A62
7274
E674
EC78
F870
E070
E0B9
E33E
7C1C
ENDCHAR
STARTCHAR uni04510447
ENCODING -1
SWIDTH 889 0
DWIDTH 18 0
BBX 19 14 0 0
BITMAP
1B0000
3B0000
000000
000000
1E7380
3A7380
726700
E6E700
ECE700
F8FF00
E17720
E20E40
E407C0
780700
ENDCHAR
STARTCHAR uni04360447
ENCODING -1
SWIDTH 1392 0
DWIDTH 28 0
BBX 30 10 -1 0
BITMAP
3C73CE70
2E774E60
46665CE0
06EE1CE0
07FC1CE0
06EC1FE0
4EEC2EC4
CCCC61C8
DDCE40F0
71C780E0
ENDCHAR
STARTCHAR uni04370437
ENCODING -1
SWIDTH 921 0
DWIDTH 18 0
BBX 19 15 0 -5
BITMAP
1E0F00
271380
472380
47C380
874380
874700
8E4700
3C9C20
0E8E40
0F06C0
0E0F00
3E3700
4E2E00
5C2E00
383C00
ENDCHAR
STARTCHAR uni04380447
ENCODING -1
SWIDTH 1010 0
DWIDTH 20 0
BBX 21 10 0 0
BITMAP
739CE0
739CE0
739CE0
631CE0
E71DC0
E73FC0
E73DC8
EF41C8
FFC1F0
7380E0
ENDCHAR
STARTCHAR uni04390447
ENCODING -1
SWIDTH 1010 0
DWIDTH 20 0
BBX 21 14 0 0
BITMAP
188000
198000
1F0000
000000
739CE0
739CE0
739CE0
631CE0
E71DC0
E73FC0
E73DC8
EF41C8
FFC1F0
7380E0
ENDCHAR
STARTCHAR uni043A0447
ENCODING -1
SWIDTH 1016 0
DWIDTH 20 0
BBX 22 10 -1 0
BITMAP
38E738
39EE70
3A0E70
360E70
7F8EF0
738FE0
7397E4
7390E4
63E0F8
E3C070
ENDCHAR
STARTCHAR uni045C0447
ENCODING -1
SWIDTH 1016 0
DWIDTH 20 0
BBX 22 15 -1 0
BITMAP
01C000
018000
030000
020000
000000
38E738
39EE70
3A0E70
360E70
7F8EF0
738FE0
7397E4
7390E4
63E0F8
E3C070
ENDCHAR
STARTCHAR uni043B0447
ENCODING -1
SWIDTH 1061 0
DWIDTH 21 0
BBX 23 10 -1 0
BITMAP
03E738
02E738
04E738
04C738
04C770
0DCFF0
49CF72
E9D072
D9F07C
70E038
ENDCHAR
STARTCHAR uni043C0447
ENCODING -1
SWIDTH 1276 0
DWIDTH 26 0
BBX 27 10 -1 0
BITMAP
030F39C0
078E7380
079E7380
079E7380
07BE7380
0FAC7F00
4BFCBF20
EBDC8720
DBDF07C0
738E0380
ENDCHAR
STARTCHAR uni043D0447
ENCODING -1
SWIDTH 1011 0
DWIDTH 20 0
BBX 22 10 -1 0
BITMAP
39CE70
39CE70
39CE70
31CE70
7F8EE0
739FE0
739EE4
7390E4
63A0E8
E1C070
ENDCHAR
STARTCHAR uni043E0433
ENCODING -1
SWIDTH 804 0
DWIDTH 16 0
BBX 17 10 0 0
BITMAP
1E1E00
3B6F00
738700
E70E00
E31E00
E27C00
E67080
E6E100
ECF200
787C00
ENDCHAR
STARTCHAR uni043E0453
ENCODING -1
SWIDTH 804 0
DWIDTH 16 0
BBX 17 15 0 0
BITMAP
000380
000300
000600
000400
000000
1E1E00
3B6F00
738700
E70E00
E31E00
E27C00
E67080
E6E100
ECF200
787C00
ENDCHAR
STARTCHAR uni043E0436
ENCODING -1
SWIDTH 1271 0
DWIDTH 25 0
BBX 26 10 0 0
BITMAP
1E38E380
3B4CE6C0
738EEEC0
E70EEC00
E30FFC00
E20DDC00
E2CDDC40
E69DDC40
EC999C80
78F38F00
ENDCHAR
STARTCHAR uni043E0437
ENCODING -1
SWIDTH 837 0
DWIDTH 17 0
BBX 18 15 0 -5
BITMAP
1E3C00
3B4E00
738E00
E70E00
E30E00
E20E00
E61C40
E67880
EC1880
781F00
003C00
005C00
009C00
00B800
007000
ENDCHAR
STARTCHAR uni043E043B
ENCODING -1
SWIDTH 992 0
DWIDTH 20 0
BBX 21 10 0 0
BITMAP
1E03E0
3B06E0
7304C0
E30DC0
E30DC0
E309C0
E6C988
E6C990
FF91F0
7C71E0
ENDCHAR
STARTCHAR uni043E043C
ENCODING -1
SWIDTH 1207 0
DWIDTH 24 0
BBX 25 10 0 0
BITMAP
1E070E00
3B070E00
73071E00
E3071C00
E30B2C00
E30B3C00
E6CB5C80
E6CBDC80
FF939F00
7C738E00
ENDCHAR
STARTCHAR uni043E0445
ENCODING -1
SWIDTH 850 0
DWIDTH 17 0
BBX 18 11 0 0
BITMAP
000300
1E3B80
3A3880
737900
E79B00
E31E00
E21C00
E27C40
E6DC80
EC8F80
78CF00
ENDCHAR
STARTCHAR uni043E0459
ENCODING -1
SWIDTH 1179 0
DWIDTH 24 0
BBX 23 10 0 0
BITMAP
1E03E0
3B06E0
7304C0
E30DFC
E30DFE
E309CE
E209CE
E6C98C
EDD198
7EF0F0
ENDCHAR
STARTCHAR uni043E044D
ENCODING -1
SWIDTH 867 0
DWIDTH 17 0
BBX 17 10 0 0
BITMAP
1E1E00
3B2700
73C380
E70380
E31F00
E20700
E24700
E6C600
ECCC00
787800
ENDCHAR
STARTCHAR uni043F0447
ENCODING -1
SWIDTH 1010 0
DWIDTH 20 0
BBX 22 10 -1 0
BITMAP
3F8E70
398E70
39CE70
318E70
738EE0
739FE0
739EE4
7390E4
63A0E8
E1C070
ENDCHAR
STARTCHAR uni04400437
ENCODING -1
SWIDTH 890 0
DWIDTH 18 0
BBX 21 16 -2 -5
BITMAP
0C0000
1FC780
1CE9C0
1CF1C0
18E1C0
38E1C0
38E1C0
39C388
39CF10
3F8310
7F03E0
700780
700B80
701380
601700
C00E00
ENDCHAR
STARTCHAR uni04410437
ENCODING -1
SWIDTH 876 0
DWIDTH 18 0
BBX 18 15 0 -5
BITMAP
1E1E00
3A2700
724700
E08700
E08700
E08600
E10E00
E13840
E61C80
780F00
001E00
006E00
005C00
005C00
007800
ENDCHAR
STARTCHAR uni04410445
ENCODING -1
SWIDTH 755 0
DWIDTH 15 0
BBX 16 11 0 0
BITMAP
0004
1EEE
32E2
7264
E474
E078
E070
E071
E0B2
E33E
7C3C
ENDCHAR
STARTCHAR uni04410447
ENCODING -1
SWIDTH 889 0
DWIDTH 18 0
BBX 19 10 0 0
BITMAP
1E7380
3A7380
726700
E0E700
E0E700
E0FF00
E17720
E20E40
E407C0
780700
ENDCHAR
STARTCHAR uni0441044A
ENCODING -1
SWIDTH 841 0
DWIDTH 17 0
BBX 17 10 0 0
BITMAP
1E7C00
3AC800
72D000
E03F00
E07300
E06380
E0E300
E1E700
E6E600
787C00
ENDCHAR
STARTCHAR uni04420447
ENCODING -1
SWIDTH 1257 0
DWIDTH 25 0
BBX 27 10 -1 0
BITMAP
3FBC7380
39CC7380
39CE7380
338C7380
739C6700
739CFF00
739CF720
739C8720
671D0740
E70E0380
ENDCHAR
STARTCHAR uni04430447
ENCODING -1
SWIDTH 989 0
DWIDTH 20 0
BBX 21 15 0 -5
BITMAP
739CE0
739CE0
7399C0
6339C0
E739C0
E73FC0
E73D88
EF4390
FEC1F0
7F01C0
1E0000
6E0000
4C0000
7C0000
380000
ENDCHAR
STARTCHAR uni04430458
ENCODING -1
SWIDTH 725 0
DWIDTH 15 0
BBX 15 19 0 -5
BITMAP
000C
001C
000C
0000
739C
739C
7398
6338
E738
E738
E73A
EF72
FE74
7E78
1FF0
6E70
4EE0
5CE0
3BC0
ENDCHAR
STARTCHAR uni045E0447
ENCODING -1
SWIDTH 989 0
DWIDTH 20 0
BBX 21 19 0 -5
BITMAP
188000
198000
1F0000
000000
739CE0
739CE0
7399C0
6339C0
E739C0
E73FC0
E73D88
EF4390
FEC1F0
7F01C0
1E0000
6E0000
4C0000
7C0000
380000
ENDCHAR
STARTCHAR uni045E0458
ENCODING -1
SWIDTH 725 0
DWIDTH 15 0
BBX 15 19 0 -5
BITMAP
188C
199C
1F0C
0000
739C
739C
7398
6338
E738
E738
E73A
EF72
FE74
7FF8
1E70
6E70
5CE0
7FE0
3BC0
ENDCHAR
STARTCHAR uni04440437
ENCODING -1
SWIDTH 1148 0
DWIDTH 23 0
BBX 24 19 0 -5
BITMAP
00C000
01C000
01C000
018000
1DB8F0
3BDD38
739E38
E39C3C
E31C38
E71C38
E71871
E739E2
FFF072
77E07C
0E00F0
0E0170
0E0270
0C02E0
1801C0
ENDCHAR
STARTCHAR uni04450447
ENCODING -1
SWIDTH 1027 0
DWIDTH 21 0
BBX 21 11 0 0
BITMAP
00C000
1CCE70
2E4CE0
4E9CE0
4F9CE0
8F1DE0
8E1FE0
0E2FC8
1721C8
2741D0
4380E0
ENDCHAR
STARTCHAR uni0445044A
ENCODING -1
SWIDTH 1006 0
DWIDTH 20 0
BBX 19 11 0 0
BITMAP
00C000
1CCF80
2E5B00
4E9A00
4F87E0
8F0EE0
860C60
8E1C60
173CE0
277DC0
438F80
ENDCHAR
STARTCHAR uni04470447
ENCODING -1
SWIDTH 1010 0
DWIDTH 20 0
BBX 21 10 0 0
BITMAP
739CE0
739CE0
739CE0
631CE0
E71DC0
7F3FC0
773DC8
0741C8
07C1F0
0780E0
ENDCHAR
STARTCHAR uni04480447
ENCODING -1
SWIDTH 1257 0
DWIDTH 25 0
BBX 26 10 0 0
BITMAP
739CE700
739CE700
739CE700
6338E600
E739CE00
E739FE00
E739EE40
EF7A0E40
FFFE0F80
73BC0F00
ENDCHAR
STARTCHAR uni045F0447
ENCODING -1
SWIDTH 1010 0
DWIDTH 20 0
BBX 21 15 0 -5
BITMAP
739CE0
739CE0
739CE0
631CE0
E71DC0
E73FC0
E73DC8
EF41C8
FFC1F0
7380E0
080000
180000
1C0000
0C0000
080000
ENDCHAR
STARTCHAR uni044B0447
ENCODING -1
SWIDTH 1157 0
DWIDTH 23 0
BBX 24 10 0 0
BITMAP
70339C
70739C
71F39C
6E6398
E267B8
E2E7F8
E6E7B9
E6E839
FCF83E
78701C
ENDCHAR
STARTCHAR uni04550437
ENCODING -1
SWIDTH 840 0
DWIDTH 17 0
BBX 19 15 -1 -5
BITMAP
0E1E00
1E2700
1E4700
2E4700
2E8700
2E8700
6E8E20
CF3C40
4E0C40
7C0F80
001E00
002E00
004E00
005C00
003800
ENDCHAR
STARTCHAR uni04550445
ENCODING -1
SWIDTH 727 0
DWIDTH 15 0
BBX 16 11 -1 0
BITMAP
0206
0E66
1E72
1E72
2E74
2E78
4E30
6E79
8FB9
4E3E
7C1C
ENDCHAR
STARTCHAR uni04550447
ENCODING -1
SWIDTH 909 0
DWIDTH 18 0
BBX 20 11 -1 0
BITMAP
020000
0E39C0
1E39C0
1E39C0
2E39C0
2E7380
4E7F80
6EBB90
8F0390
4E03E0
7801C0
ENDCHAR
STARTCHAR uni04540437
ENCODING -1
SWIDTH 876 0
DWIDTH 18 0
BBX 18 15 0 -5
BITMAP
1E1E00
3A2700
724700
E08700
FC8700
E08600
E10E00
E13840
E61C80
780F00
001E00
006E00
005C00
005C00
007800
ENDCHAR
STARTCHAR uni04540445
ENCODING -1
SWIDTH 755 0
DWIDTH 15 0
BBX 16 11 0 0
BITMAP
0004
1EEE
32E2
7664
E07C
FC78
E070
E071
E0B2
E33E
7C3C
ENDCHAR
STARTCHAR uni04540447
ENCODING -1
SWIDTH 889 0
DWIDTH 18 0
BBX 19 10 0 0
BITMAP
1E7380
3A7380
726700
E0E700
FCE700
E0FF00
E17720
E20E40
E407C0
780700
ENDCHAR
STARTCHAR uni044D0437
ENCODING -1
SWIDTH 837 0
DWIDTH 17 0
BBX 19 15 -1 -5
BITMAP
1F1E00
27A700
43C700
038700
1F8700
030700
470E20
C63C40
CC0CC0
780F00
001E00
006E00
004E00
005C00
003800
ENDCHAR
STARTCHAR uni04560447
ENCODING -1
SWIDTH 763 0
DWIDTH 15 0
BBX 16 14 0 0
BITMAP
3800
3800
3800
0000
739C
739C
739C
639C
E3B8
E7F8
E7F9
E439
F83E
701C
ENDCHAR
STARTCHAR uni04570447
ENCODING -1
SWIDTH 763 0
DWIDTH 15 0
BBX 16 14 0 0
BITMAP
6C00
EC00
0000
0000
739C
739C
739C
639C
E3B8
E7F8
E7F9
E439
F83E
701C
ENDCHAR
STARTCHAR uni04570457
ENCODING -1
SWIDTH 543 0
DWIDTH 11 0
BBX 12 14 0 0
BITMAP
7FF0
FFF0
0000
0000
71C0
7380
7380
6380
E380
E300
E710
E720
FFC0
7380
ENDCHAR
STARTCHAR uni04580447
ENCODING -1
SWIDTH 743 0
DWIDTH 15 0
BBX 20 19 -4 -5
BITMAP
030000
038000
030000
000000
0739C0
0739C0
073180
077380
0E7380
0E7F80
0E7B90
0E8320
0D83E0
1F0380
3C0000
5C0000
9C0000
B80000
700000
ENDCHAR
STARTCHAR uni04580458
ENCODING -1
SWIDTH 480 0
DWIDTH 10 0
BBX 14 19 -4 -5
BITMAP
0318
03BC
0318
0000
0738
0738
0730
0670
0E70
0E70
0E74
0EE4
0CE8
1FF0
3CE0
5CE0
9DC0
FFC0
7780
ENDCHAR
STARTCHAR uni045B0447
ENCODING -1
SWIDTH 990 0
DWIDTH 20 0
BBX 22 19 -1 -5
BITMAP
1C0000
1C0000
1C0000
7F0000
380E70
380C60
3F9CE0
3B9CE0
739CE0
739FE0
73AFC4
73A1C8
6341F0
E780E0
0F0000
170000
260000
2E0000
1C0000
ENDCHAR
STARTCHAR uni045B0458
ENCODING -1
SWIDTH 722 0
DWIDTH 14 0
BBX 16 19 -1 -5
BITMAP
0C06
1C0E
1C06
7F00
380E
380E
3F9C
3B9C
739C
739C
739D
73B9
633A
E77C
0FB8
1730
2670
3FF0
1DE0
ENDCHAR
STARTCHAR uni044E0433
ENCODING -1
SWIDTH 1050 0
DWIDTH 21 0
BBX 23 10 -1 0
BITMAP
387870
39C9B8
39DA38
3B9C38
7F88F8
7389E0
771BC2
771384
63B388
E1C1F0
ENDCHAR
STARTCHAR uni044E0453
ENCODING -1
SWIDTH 1050 0
DWIDTH 21 0
BBX 23 15 -1 0
BITMAP
00000C
000008
000018
000030
000000
387870
39C9B8
39DA38
3B9C38
7F88F8
7389E0
771BC2
771384
63B388
E1C1F0
ENDCHAR
STARTCHAR uni044E0436
ENCODING -1
SWIDTH 1507 0
DWIDTH 30 0
BBX 32 10 -1 0
BITMAP
3878E38E
39C9739A
39DA3332
3B9C3370
7F883FF0
73883760
771A7761
77166661
63B66672
E1E3CE3C
ENDCHAR
STARTCHAR uni044E0437
ENCODING -1
SWIDTH 1073 0
DWIDTH 21 0
BBX 23 15 -1 -5
BITMAP
3878F0
39C938
39DA38
3B9C38
7F8838
738870
771870
7711C2
63B0E4
E1C078
0000F0
000370
0002E0
0002E0
0003C0
ENDCHAR
STARTCHAR uni044E043B
ENCODING -1
SWIDTH 1228 0
DWIDTH 25 0
BBX 26 10 -1 0
BITMAP
38780F80
39C81B00
39C81700
3B883700
7F882700
73982600
771B6E40
77B36E40
63FE4F80
E1E38700
ENDCHAR
STARTCHAR uni044E043C
ENCODING -1
SWIDTH 1443 0
DWIDTH 29 0
BBX 31 10 -1 0
BITMAP
38781C38
39C81C78
39C83C70
3B883CF0
7F883CF0
73983DF0
771B3D72
77B35F64
63FE4E7C
E1E38E78
ENDCHAR
STARTCHAR uni044E0445
ENCODING -1
SWIDTH 1088 0
DWIDTH 22 0
BBX 24 11 -1 0
BITMAP
00000C
3878EC
39C8E4
39C9E4
3B9EE8
7F8870
7388F0
7719F1
771372
63B27E
E1E338
ENDCHAR
STARTCHAR uni044E0459
ENCODING -1
SWIDTH 1415 0
DWIDTH 28 0
BBX 29 10 -1 0
BITMAP
38780F80
39C81B00
39C81700
3B8837F0
7F882770
73882638
771A6E30
771B6E70
63BF4660
E1F387C0
ENDCHAR
STARTCHAR uni044E044D
ENCODING -1
SWIDTH 1103 0
DWIDTH 22 0
BBX 22 10 -1 0
BITMAP
387878
39C99C
39DA1C
3B9C1C
7F887C
73881C
771A18
771338
63B230
E1E3E0
ENDCHAR
STARTCHAR uni044F0447
ENCODING -1
SWIDTH 1030 0
DWIDTH 21 0
BBX 22 10 -1 0
BITMAP
0FE738
1CC670
39CE70
39CE70
39CE70
1F8FF0
499FE4
EB90E4
DBE0F8
71C070
ENDCHAR
STARTCHAR uni04300445.liga
ENCODING -1
SWIDTH 884 0
DWIDTH 18 0
BBX 18 11 0 0
BITMAP
000180
1DDDC0
3B9CC0
739C80
E38D80
E38F00
E30E00
E70E00
E71E00
FFE780
73C700
ENDCHAR
STARTCHAR uni04300447.liga
ENCODING -1
SWIDTH 947 0
DWIDTH 19 0
BBX 19 10 0 0
BITMAP
1DDCE0
3B9CE0
7398C0
E3B9C0
E3B9C0
E33FC0
E71DC0
E70180
FF81E0
7381C0
ENDCHAR
STARTCHAR uni04310451.liga
ENCODING -1
SWIDTH 746 0
DWIDTH 15 0
BBX 17 15 0 0
BITMAP
0FE000
1FD980
1FD980
0C0000
0C0000
060E00
1E3B00
733300
737300
E37600
E2FC00
E6E000
E6E200
FC7C00
783C00
ENDCHAR
STARTCHAR uni04310436.liga
ENCODING -1
SWIDTH 1258 0
DWIDTH 25 0
BBX 26 15 0 0
BITMAP
00200000
1FE00000
1FC00000
1FC00000
0C000000
0638E380
1E5CE6C0
738CEC80
730CCC00
E30FFC00
E30DD800
E21DD800
E6D99800
E4999C80
78F38F00
ENDCHAR
STARTCHAR uni04310439.liga
ENCODING -1
SWIDTH 901 0
DWIDTH 18 0
BBX 18 15 0 0
BITMAP
002000
1FDC40
1FDC80
1F8F00
0C0000
0639C0
1E3980
737380
737380
E37380
E37380
E66300
E6E700
FC7BC0
787380
ENDCHAR
STARTCHAR uni0431045E.liga
ENCODING -1
SWIDTH 890 0
DWIDTH 18 0
BBX 18 20 0 -5
BITMAP
002000
1FDC40
1FDC80
1F8F00
0C0000
0639C0
1E3980
737380
737380
E37380
E37380
E66300
E6E700
FC7F00
787700
001F00
002600
006E00
006E00
003C00
ENDCHAR
STARTCHAR uni04310456.liga
ENCODING -1
SWIDTH 639 0
DWIDTH 13 0
BBX 14 15 0 0
BITMAP
0040
1FD8
1FBC
1F98
0C00
0638
1E38
7370
7370
E370
E370
E660
E6E0
FC78
7870
ENDCHAR
STARTCHAR uni04310457.liga
ENCODING -1
SWIDTH 638 0
DWIDTH 13 0
BBX 15 15 0 0
BITMAP
0FC0
1FB6
1FB6
0C00
0C00
0638
1E30
7370
7370
E370
E270
E660
E6E0
FC78
7870
ENDCHAR
STARTCHAR uni04310458.liga
ENCODING -1
SWIDTH 638 0
DWIDTH 13 0
BBX 13 20 0 -5
BITMAP
0040
1FD8
1FB8
1F98
0C00
0638
1E38
7370
7370
E370
E370
E260
E6E0
E4E0
78E0
03E0
04C0
0DC0
05C0
0780
ENDCHAR
STARTCHAR uni04320436.liga
ENCODING -1
SWIDTH 1275 0
DWIDTH 26 0
BBX 26 15 0 0
BITMAP
0E000000
1D000000
19000000
39000000
33000000
723C6380
72CCE6C0
EF8EEEC0
EF0EEC00
E30FFC00
E30CDC00
E30DDC00
E2DDDC00
E6D9CCC0
78718F00
ENDCHAR
STARTCHAR uni04320437.liga
ENCODING -1
SWIDTH 752 0
DWIDTH 15 0
BBX 15 20 0 -5
BITMAP
0E00
1D00
1900
3900
3100
733C
724E
E28E
EF0E
EF0E
E30C
E31C
E270
E638
781C
007C
009C
00B8
00B8
00F0
ENDCHAR
STARTCHAR uni04320445.liga
ENCODING -1
SWIDTH 842 0
DWIDTH 17 0
BBX 17 15 0 0
BITMAP
0E0000
1D0000
190000
390000
310300
733B80
727880
E29900
EF1D00
EF1E00
E31C00
E31C00
E23C00
E64E00
798F00
ENDCHAR
STARTCHAR uni04330437.liga
ENCODING -1
SWIDTH 768 0
DWIDTH 15 0
BBX 15 15 0 -5
BITMAP
3C3C
4E4E
8E4E
9E8E
3D0E
790E
E21C
E278
E418
F81C
007C
00DC
009C
00B8
0070
ENDCHAR
STARTCHAR uni04330445.liga
ENCODING -1
SWIDTH 725 0
DWIDTH 15 0
BBX 15 11 0 0
BITMAP
000C
3CCE
4EE4
8EE4
9EE8
3C70
7870
E0F0
E170
E63C
F838
ENDCHAR
STARTCHAR uni04330447.liga
ENCODING -1
SWIDTH 834 0
DWIDTH 17 0
BBX 17 10 0 0
BITMAP
3C7380
4E6700
8EE700
1EE700
3CEF00
79FF00
E17E00
E20E00
E40F80
F80700
ENDCHAR
STARTCHAR uni04530437.liga
ENCODING -1
SWIDTH 768 0
DWIDTH 15 0
BBX 15 20 0 -5
BITMAP
0300
0600
0400
0C00
0000
3C3C
4E4E
8E4E
9E8E
3D0E
790E
E21C
E278
E418
F81C
007C
00DC
009C
00B8
0070
ENDCHAR
STARTCHAR uni04530445.liga
ENCODING -1
SWIDTH 725 0
DWIDTH 15 0
BBX 15 15 0 0
BITMAP
0300
0600
0400
0C00
000C
3CCE
4EE4
8EE4
9EE8
3C70
7870
E0F0
E170
E63C
F838
ENDCHAR
STARTCHAR uni04530447.liga
ENCODING -1
SWIDTH 834 0
DWIDTH 17 0
BBX 17 15 0 0
BITMAP
030000
060000
040000
0C0000
000000
3C7380
4E6700
8EE700
1EE700
3CEF00
79FF00
E17E00
E20E00
E40F80
F80700
ENDCHAR
STARTCHAR uni04340447.liga
ENCODING -1
SWIDTH 965 0
DWIDTH 19 0
BBX 19 15 0 -5
BITMAP
1DDCE0
3B9CE0
739CE0
E39CE0
E39DC0
E33FC0
E73DC0
E721C0
FF41E0
7780E0
1E0000
3E0000
6E0000
6C0000
380000
ENDCHAR
STARTCHAR uni04340458.liga
ENCODING -1
SWIDTH 715 0
DWIDTH 14 0
BBX 15 19 0 -5
BITMAP
000C
000E
000C
0000
1DDC
3B9C
739C
E39C
E398
E338
E738
E738
FF38
77F0
1E70
2E70
4E70
7FE0
39C0
ENDCHAR
STARTCHAR uni04350437.liga
ENCODING -1
SWIDTH 804 0
DWIDTH 16 0
BBX 16 15 0 -5
BITMAP
1E1E
3A27
7247
E687
EC87
F886
E10E
E138
E61C
780E
003E
004E
005C
005C
0078
ENDCHAR
STARTCHAR uni04350445.liga
ENCODING -1
SWIDTH 747 0
DWIDTH 15 0
BBX 15 11 0 0
BITMAP
0004
1EEE
3A62
7274
E674
EC78
F870
E070
E0F0
E33C
7C1C
ENDCHAR
STARTCHAR uni04350447.liga
ENCODING -1
SWIDTH 844 0
DWIDTH 17 0
BBX 17 10 0 0
BITMAP
1E7380
3A7380
726700
E6E700
ECE700
F8FF00
E17700
E20E00
E40780
780700
ENDCHAR
STARTCHAR uni04510437.liga
ENCODING -1
SWIDTH 804 0
DWIDTH 16 0
BBX 16 18 0 -5
BITMAP
3B00
1B00
0000
1E1E
3A27
7247
E687
EC87
F886
E10E
E138
E61C
780E
003E
004E
005C
005C
0078
ENDCHAR
STARTCHAR uni04510445.liga
ENCODING -1
SWIDTH 747 0
DWIDTH 15 0
BBX 15 14 0 0
BITMAP
1B00
3B00
0000
0004
1EEE
3A62
7274
E674
EC78
F870
E070
E0F0
E33C
7C1C
ENDCHAR
STARTCHAR uni04510447.liga
ENCODING -1
SWIDTH 844 0
DWIDTH 17 0
BBX 17 14 0 0
BITMAP
1B0000
3B0000
000000
000000
1E7380
3A7380
726700
E6E700
ECE700
F8FF00
E17700
E20E00
E40780
780700
ENDCHAR
STARTCHAR uni04360447.liga
ENCODING -1
SWIDTH 1341 0
DWIDTH 27 0
BBX 28 10 -1 0
BITMAP
3C73CE70
2E774E60
46665CE0
06EE1CE0
07FC1CE0
06EC1FE0
4EEC2EC0
CCCC61C0
DDCE40F0
71C780E0
ENDCHAR
STARTCHAR uni04370437.liga
ENCODING -1
SWIDTH 849 0
DWIDTH 17 0
BBX 17 15 0 -5
BITMAP
1E0F00
271380
472380
47C380
874380
874700
8E4700
3C9C00
0E8E00
0F0600
0E0F00
3E3700
4E6E00
5C2E00
383C00
ENDCHAR
STARTCHAR uni04380447.liga
ENCODING -1
SWIDTH 964 0
DWIDTH 19 0
BBX 19 10 0 0
BITMAP
739CE0
739CE0
739CE0
631CE0
E71DC0
E73FC0
E73DC0
EF41C0
FFC1E0
7380C0
ENDCHAR
STARTCHAR uni04390447.liga
ENCODING -1
SWIDTH 964 0
DWIDTH 19 0
BBX 19 14 0 0
BITMAP
188000
198000
1F0000
000000
739CE0
739CE0
739CE0
631CE0
E71DC0
E73FC0
E73DC0
EF41C0
FFC1E0
7380C0
ENDCHAR
STARTCHAR uni043A0447.liga
ENCODING -1
SWIDTH 978 0
DWIDTH 20 0
BBX 21 10 -1 0
BITMAP
38E738
39EE70
3A0E70
360E70
7F8EF0
738FE0
7397E0
7390E0
63E0F8
E3C070
ENDCHAR
STARTCHAR uni045C0447.liga
ENCODING -1
SWIDTH 978 0
DWIDTH 20 0
BBX 21 15 -1 0
BITMAP
01C000
018000
030000
020000
000000
38E738
39EE70
3A0E70
360E70
7F8EF0
738FE0
7397E0
7390E0
63E0F8
E3C070
ENDCHAR
STARTCHAR uni043B0447.liga
ENCODING -1
SWIDTH 1015 0
DWIDTH 20 0
BBX 21 10 -1 0
BITMAP
03E738
02E738
04E738
04C738
04C770
0DCFF0
49CF70
E9D070
D9F078
70E030
ENDCHAR
STARTCHAR uni043C0447.liga
ENCODING -1
SWIDTH 1231 0
DWIDTH 25 0
BBX 26 10 -1 0
BITMAP
030F39C0
078E7380
079E7380
079E7380
07BE7380
0FAC7F00
4BFCBF00
EBDC8700
DBDF07C0
738E0380
ENDCHAR
STARTCHAR uni043D0447.liga
ENCODING -1
SWIDTH 965 0
DWIDTH 19 0
BBX 20 10 -1 0
BITMAP
39CE70
39CE70
39CE70
31CE70
7F8EE0
739FE0
739EE0
7390E0
63A0E0
E1C070
ENDCHAR
STARTCHAR uni043E0436.liga
ENCODING -1
SWIDTH 1268 0
DWIDTH 25 0
BBX 26 10 0 0
BITMAP
1E38E380
3B4CE6C0
738EEEC0
E70EEC00
E30FFC00
E20DDC00
E2CDDC00
E69DDC00
EC999C80
78F38F00
ENDCHAR
STARTCHAR uni043E0437.liga
ENCODING -1
SWIDTH 765 0
DWIDTH 15 0
BBX 15 15 0 -5
BITMAP
1E3C
3B4E
738E
E70E
E30E
E20E
E61C
E678
EC18
781C
007C
00DC
009C
00B8
0070
ENDCHAR
STARTCHAR uni043E043B.liga
ENCODING -1
SWIDTH 945 0
DWIDTH 19 0
BBX 19 10 0 0
BITMAP
1E03E0
3B06E0
7304C0
E30DC0
E30DC0
E309C0
E6C9C0
E6C980
FF91E0
7C71C0
ENDCHAR
STARTCHAR uni043E043C.liga
ENCODING -1
SWIDTH 1161 0
DWIDTH 23 0
BBX 23 10 0 0
BITMAP
1E070E
3B070E
73071E
E3071C
E30B2C
E30B3C
E6CB5C
E6CBDC
FF939E
7C738C
ENDCHAR
STARTCHAR uni043E0445.liga
ENCODING -1
SWIDTH 835 0
DWIDTH 17 0
BBX 17 11 0 0
BITMAP
000300
1E3B80
3A3880
737900
E79B00
E31E00
E31C00
E27C00
E65C00
EC8F00
78CE00
ENDCHAR
STARTCHAR uni043F0447.liga
ENCODING -1
SWIDTH 965 0
DWIDTH 19 0
BBX 20 10 -1 0
BITMAP
3F8E70
398E70
39CE70
318E70
738EE0
739FE0
739EE0
7390E0
63A0E0
E1C070
ENDCHAR
STARTCHAR uni04400437.liga
ENCODING -1
SWIDTH 818 0
DWIDTH 16 0
BBX 18 16 -2 -5
BITMAP
0C0000
1FC780
1CE9C0
1CF1C0
18E1C0
38E1C0
38E1C0
39C380
39CF00
3F8300
7F0380
700F80
701B80
701380
601700
C00E00
ENDCHAR
STARTCHAR uni04410437.liga
ENCODING -1
SWIDTH 804 0
DWIDTH 16 0
BBX 16 15 0 -5
BITMAP
1E1E
3A27
7247
E087
E087
E086
E10E
E138
E61C
780E
003E
004E
005C
005C
0078
ENDCHAR
STARTCHAR uni04410445.liga
ENCODING -1
SWIDTH 740 0
DWIDTH 15 0
BBX 15 11 0 0
BITMAP
0004
1EEE
32E2
7264
E474
E078
E070
E070
E0F0
E33C
7C38
ENDCHAR
STARTCHAR uni04410447.liga
ENCODING -1
SWIDTH 843 0
DWIDTH 17 0
BBX 17 10 0 0
BITMAP
1E7380
3A7380
726700
E0E700
E0E700
E0FF00
E17700
E20E00
E40780
780700
ENDCHAR
STARTCHAR uni04420447.liga
ENCODING -1
SWIDTH 1211 0
DWIDTH 24 0
BBX 25 10 -1 0
BITMAP
3FBC7380
39CC7380
39CE7380
338C7380
739C6700
739CFF00
739CF700
739C8700
671D0700
E70E0780
ENDCHAR
STARTCHAR uni04430447.liga
ENCODING -1
SWIDTH 943 0
DWIDTH 19 0
BBX 19 15 0 -5
BITMAP
739CE0
739CE0
7399C0
6339C0
E739C0
E73FC0
E73D80
EF4380
FEC1E0
7F01C0
1E0000
6E0000
4C0000
7C0000
380000
ENDCHAR
STARTCHAR uni04430458.liga
ENCODING -1
SWIDTH 694 0
DWIDTH 14 0
BBX 14 19 0 -5
BITMAP
000C
001C
000C
0000
739C
739C
7398
6338
E738
E738
E738
EF70
FE70
7E70
1FF0
6E70
4EE0
5CE0
3BC0
ENDCHAR
STARTCHAR uni045E0447.liga
ENCODING -1
SWIDTH 943 0
DWIDTH 19 0
BBX 19 19 0 -5
BITMAP
188000
198000
1F0000
000000
739CE0
739CE0
7399C0
6339C0
E739C0
E73FC0
E73D80
EF4380
FEC1E0
7F01C0
1E0000
6E0000
4C0000
7C0000
380000
ENDCHAR
STARTCHAR uni045E0458.liga
ENCODING -1
SWIDTH 694 0
DWIDTH 14 0
BBX 14 19 0 -5
BITMAP
188C
199C
1F0C
0000
739C
739C
7398
6338
E738
E738
E738
EF70
FE70
7FF0
1E70
6E70
5CE0
7FE0
3BC0
ENDCHAR
STARTCHAR uni04440437.liga
ENCODING -1
SWIDTH 1076 0
DWIDTH 22 0
BBX 22 19 0 -5
BITMAP
00C000
01C000
01C000
018000
1DB8F0
3BDD38
739E38
E39C3C
E31C38
E71C38
E71870
E739E0
FFF070
77E070
0E01F0
0E0370
0E0270
0C02E0
1801C0
ENDCHAR
STARTCHAR uni04450447.liga
ENCODING -1
SWIDTH 981 0
DWIDTH 20 0
BBX 20 11 0 0
BITMAP
00C000
1CCE70
2E4CE0
4E9CE0
4F9CE0
8F1DE0
8E1FE0
0E2FC0
1721C0
2741D0
4380E0
ENDCHAR
STARTCHAR uni04470447.liga
ENCODING -1
SWIDTH 964 0
DWIDTH 19 0
BBX 19 10 0 0
BITMAP
739CE0
739CE0
739CE0
631CE0
E71DC0
7F3FC0
773DC0
0741C0
07C1E0
0780C0
ENDCHAR
STARTCHAR uni04480447.liga
ENCODING -1
SWIDTH 1211 0
DWIDTH 24 0
BBX 24 10 0 0
BITMAP
739CE7
739CE7
739CE7
6338E6
E739CE
E739FE
E739EE
EF7A0E
FFFE0F
73BC0E
ENDCHAR
STARTCHAR uni045F0447.liga
ENCODING -1
SWIDTH 964 0
DWIDTH 19 0
BBX 19 15 0 -5
BITMAP
739CE0
739CE0
739CE0
631CE0
E71DC0
E73FC0
E73DC0
EF41C0
FFC1E0
7380C0
080000
180000
1C0000
0C0000
080000
ENDCHAR
STARTCHAR uni044B0447.liga
ENCODING -1
SWIDTH 1112 0
DWIDTH 22 0
BBX 22 10 0 0
BITMAP
70339C
70739C
71F39C
6E6398
E267B8
E2E7F8
E6E7B8
E6E838
FCF83C
787018
ENDCHAR
STARTCHAR uni04550437.liga
ENCODING -1
SWIDTH 768 0
DWIDTH 15 0
BBX 16 15 -1 -5
BITMAP
0E1E
1E27
1E47
2E47
2E87
2E87
6E8E
CF3C
4E0C
7C0E
003E
006E
004E
005C
0038
ENDCHAR
STARTCHAR uni04550445.liga
ENCODING -1
SWIDTH 712 0
DWIDTH 14 0
BBX 15 11 -1 0
BITMAP
0206
0E66
1E72
1E72
1E74
2E78
2E30
6E78
CEF8
4F3C
7C1C
ENDCHAR
STARTCHAR uni04550447.liga
ENCODING -1
SWIDTH 864 0
DWIDTH 17 0
BBX 18 11 -1 0
BITMAP
020000
0E39C0
1E39C0
1E39C0
2E39C0
2E7B80
4E7F80
6EBB80
8F0380
4E03C0
7801C0
ENDCHAR
STARTCHAR uni04540437.liga
ENCODING -1
SWIDTH 804 0
DWIDTH 16 0
BBX 16 15 0 -5
BITMAP
1E1E
3A27
7247
E087
FC87
E086
E10E
E138
E61C
780E
003E
004E
005C
005C
0078
ENDCHAR
STARTCHAR uni04540445.liga
ENCODING -1
SWIDTH 740 0
DWIDTH 15 0
BBX 15 11 0 0
BITMAP
0004
1EEE
32E2
7664
E07C
FC78
E070
E070
E0F0
E33C
7C38
ENDCHAR
STARTCHAR uni04540447.liga
ENCODING -1
SWIDTH 844 0
DWIDTH 17 0
BBX 17 10 0 0
BITMAP
1E7380
3A7380
726700
E0E700
FCE700
E0FF00
E17700
E20E00
E40780
780700
ENDCHAR
STARTCHAR uni044D0437.liga
ENCODING -1
SWIDTH 765 0
DWIDTH 15 0
BBX 16 15 -1 -5
BITMAP
1F1E
27A7
43C7
0387
1F87
0307
470E
C63C
CC0C
780E
003E
004E
004E
005C
0038
ENDCHAR
STARTCHAR uni04560447.liga
ENCODING -1
SWIDTH 717 0
DWIDTH 14 0
BBX 14 14 0 0
BITMAP
3800
3800
3800
0000
739C
739C
739C
639C
E3B8
E7F8
E7F8
E438
F83C
701C
ENDCHAR
STARTCHAR uni04570447.liga
ENCODING -1
SWIDTH 718 0
DWIDTH 14 0
BBX 14 14 0 0
BITMAP
6C00
EC00
0000
0000
739C
739C
739C
639C
E3B8
E7F8
E7F8
E438
F83C
701C
ENDCHAR
STARTCHAR uni04570457.liga
ENCODING -1
SWIDTH 476 0
DWIDTH 10 0
BBX 12 14 0 0
BITMAP
7FF0
FFF0
0000
0000
71C0
7380
7380
6380
E380
E300
E700
E700
FFC0
7380
ENDCHAR
STARTCHAR uni04580447.liga
ENCODING -1
SWIDTH 697 0
DWIDTH 14 0
BBX 18 19 -4 -5
BITMAP
030000
038000
030000
000000
0739C0
0739C0
073180
077380
0E7380
0E7F80
0E7B80
0E8300
0D83C0
1F0380
3C0000
5C0000
9C0000
B80000
700000
ENDCHAR
STARTCHAR uni04580458.liga
ENCODING -1
SWIDTH 449 0
DWIDTH 9 0
BBX 14 19 -4 -5
BITMAP
0318
03BC
0318
0000
0738
0738
0738
0670
0E70
0E70
0E70
0EE0
0CE0
1FE0
3CE0
5CE0
9DC0
FFC0
7780
ENDCHAR
STARTCHAR uni045B0447.liga
ENCODING -1
SWIDTH 937 0
DWIDTH 19 0
BBX 20 19 -1 -5
BITMAP
1C0000
1C0000
1C0000
7F0000
380E70
380C60
3F9CE0
3B9CE0
739CE0
739FE0
73AFC0
73A1C0
6341F0
E780E0
0F0000
170000
260000
2E0000
1C0000
ENDCHAR
STARTCHAR uni045B0458.liga
ENCODING -1
SWIDTH 691 0
DWIDTH 14 0
BBX 15 19 -1 -5
BITMAP
0C06
1C0E
1C06
7F00
380E
380E
3F9C
3B9C
739C
739C
739C
73B8
6338
E778
0FB8
1730
2670
3FF0
1DE0
ENDCHAR
STARTCHAR uni044E0436.liga
ENCODING -1
SWIDTH 1503 0
DWIDTH 30 0
BBX 31 10 -1 0
BITMAP
3878E38E
39C9739A
39DA3332
3B9C3370
7F883FF0
73883760
771A7760
77166660
63B66672
E1E3CE3C
ENDCHAR
STARTCHAR uni044E0437.liga
ENCODING -1
SWIDTH 1001 0
DWIDTH 20 0
BBX 21 15 -1 -5
BITMAP
3878F0
39C938
39DA38
3B9C38
7F8838
738870
771870
7711C0
63B0E0
E1C070
0001F0
000270
0006E0
0002E0
0003C0
ENDCHAR
STARTCHAR uni044E043B.liga
ENCODING -1
SWIDTH 1181 0
DWIDTH 24 0
BBX 25 10 -1 0
BITMAP
38780F80
39C81B00
39C81700
3B883700
7F882700
73982600
771B6600
77B36E00
63FE4F80
E1E38700
ENDCHAR
STARTCHAR uni044E043C.liga
ENCODING -1
SWIDTH 1396 0
DWIDTH 28 0
BBX 29 10 -1 0
BITMAP
38781C38
39C81C78
39C83C70
3B883CF0
7F883CF0
73983DF0
771B3D70
77B35F60
63FE4E78
E1E38E70
ENDCHAR
STARTCHAR uni044E0445.liga
ENCODING -1
SWIDTH 1072 0
DWIDTH 21 0
BBX 22 11 -1 0
BITMAP
00000C
3878EC
39C8E4
39C9E4
3B9EE8
7F8870
7388F0
7719F0
771370
63B27C
E1E338
ENDCHAR
STARTCHAR uni044F0447.liga
ENCODING -1
SWIDTH 984 0
DWIDTH 20 0
BBX 21 10 -1 0
BITMAP
0FE738
1CC670
39CE70
39CE70
39CE70
1F8FF0
499FE0
EB90E0
DBE0F8
71C070
ENDCHAR
STARTCHAR brevecombcy
ENCODING -1
SWIDTH 0 0
DWIDTH 0 0
BBX 7 3 -6 11
BITMAP
62
E4
78
ENDCHAR
STARTCHAR brevecombcy.case
ENCODING -1
SWIDTH 0 0
DWIDTH 0 0
BBX 7 3 -5 16
BITMAP
62
E4
78
ENDCHAR
ENDFONT
